<svg width="66" height="68" viewBox="0 0 66 68" fill="none" xmlns="http://www.w3.org/2000/svg">
<g clip-path="url(#clip0_7_2851)">
<path d="M33.4908 8.41344C33.4711 8.10461 33.427 7.81198 33.369 7.54133C33.4235 7.60148 33.4815 7.65815 33.5419 7.7102C33.8865 7.98895 34.2694 8.10808 34.5851 8.15319C34.9088 8.19946 35.1966 8.18905 35.4612 8.15782C35.59 8.14394 35.7106 8.12312 35.8336 8.09999C35.8418 8.09883 35.851 8.09652 35.8592 8.0942C35.9822 8.06182 36.1052 8.02828 36.2258 7.99705C36.7109 7.849 37.1077 7.63965 37.4141 7.46962C37.8225 7.24754 38.1822 7.03935 38.5686 6.92484C38.665 6.88899 38.7636 6.87973 38.8634 6.85429L39.0154 6.8219L39.1825 6.80455C39.4064 6.77564 39.6304 6.76638 39.8602 6.75597C40.3104 6.74903 40.7699 6.7791 41.2306 6.85891C41.6553 6.94103 42.138 7.11337 42.5244 7.27877C42.1972 7.01622 41.7295 6.76523 41.3153 6.58479C40.865 6.39626 40.3974 6.25052 39.9228 6.14064C39.6826 6.09206 39.4413 6.04117 39.1987 6.0111L39.0316 5.98681C39.0212 5.98565 39.0108 5.98449 39.0003 5.98334L38.8193 5.97408C38.6882 5.97177 38.5524 5.95558 38.4213 5.96483C37.8852 5.98102 37.3793 6.11866 36.9256 6.22854C36.5728 6.31992 36.2224 6.40204 35.8824 6.43558C35.8023 6.44021 35.7234 6.44715 35.6433 6.45525C35.6352 6.45525 35.6282 6.4564 35.6201 6.4564C35.5354 6.45756 35.4472 6.45872 35.3637 6.45409C35.1885 6.44946 35.0249 6.42864 34.9053 6.3951C34.7789 6.36503 34.7266 6.31761 34.722 6.31298C34.7255 6.30835 34.7208 6.31298 34.7243 6.31067C34.7243 6.31067 34.7243 6.31182 34.7232 6.31067C34.7232 6.3072 34.722 6.30373 34.7197 6.30141C34.7127 6.2991 34.715 6.28175 34.7081 6.27597C34.7057 6.27134 34.7011 6.26787 34.6965 6.26324C34.6976 6.26209 34.6999 6.26324 34.6988 6.26209C34.6918 6.2644 34.6756 6.25977 34.6663 6.24358C34.6582 6.22507 34.6663 6.18459 34.6733 6.15221C34.6733 6.15221 34.6756 6.1337 34.6779 6.10594C34.6814 6.08512 34.6814 6.02035 34.7394 5.98449C34.7464 5.97871 34.7556 5.97061 34.7649 5.96599L34.7951 5.95905C34.8171 5.95442 34.8427 5.94517 34.8717 5.94054C34.9251 5.94632 34.9947 5.94285 35.0655 5.95095C35.1989 5.97408 35.359 5.98681 35.4983 5.92319C35.6341 5.85264 35.6979 5.70921 35.6909 5.50217C35.6828 5.40849 35.6445 5.30439 35.5946 5.19335C35.5865 5.176 35.5772 5.15865 35.5668 5.14246C35.5343 5.09272 35.4936 5.04415 35.4519 4.99441C35.4275 4.96549 35.4008 4.93773 35.3741 4.90882C35.3625 4.89841 35.3486 4.888 35.3358 4.87759C35.2094 4.78274 35.0713 4.70409 34.9204 4.65551C34.8902 4.6451 34.8601 4.63701 34.8299 4.62775C34.751 4.60231 34.6733 4.60231 34.599 4.59421C34.5236 4.58959 34.4505 4.5838 34.389 4.59421C34.2636 4.61041 34.1511 4.62544 34.0849 4.64973C34.0153 4.67402 33.9759 4.6879 33.9759 4.6879C33.6347 4.8186 33.3295 5.0615 33.1184 5.40733C32.9919 5.61553 32.913 5.85842 32.8874 6.11057C32.8259 5.97987 32.7842 5.907 32.7842 5.907C32.7842 5.907 32.7424 5.97987 32.6809 6.11057C32.6554 5.85842 32.5765 5.61553 32.45 5.40733C32.2399 5.06034 31.9348 4.8186 31.5925 4.6879C31.5925 4.6879 31.553 4.67402 31.4834 4.64973C31.4161 4.62544 31.3047 4.60925 31.1794 4.59421C31.1179 4.5838 31.0436 4.58959 30.9693 4.59421C30.8939 4.60231 30.8173 4.60231 30.7384 4.62775C30.7106 4.63585 30.6827 4.64395 30.6549 4.6532C30.4982 4.70294 30.3543 4.7839 30.2244 4.88453C30.2139 4.89263 30.2035 4.90072 30.1942 4.90998C30.1675 4.93773 30.1408 4.96665 30.1165 4.99557C30.0747 5.0453 30.0341 5.09388 30.0016 5.14362C29.9911 5.15981 29.9818 5.17716 29.9737 5.19451C29.9238 5.30439 29.8855 5.40964 29.8774 5.50333C29.8716 5.71037 29.9354 5.85379 30.07 5.92435C30.2093 5.98681 30.3694 5.97524 30.5029 5.95211C30.5736 5.94517 30.6421 5.94748 30.6966 5.9417C30.7257 5.94632 30.7523 5.95558 30.7732 5.9602L30.8034 5.96714C30.8127 5.97177 30.822 5.98102 30.8289 5.98565C30.8869 6.02035 30.8869 6.08512 30.8904 6.1071C30.8939 6.13486 30.8962 6.15336 30.8962 6.15336C30.902 6.18691 30.9102 6.22739 30.902 6.24474C30.8927 6.26093 30.8765 6.26556 30.8695 6.26324C30.8695 6.26324 30.8707 6.26324 30.8719 6.2644C30.8672 6.26787 30.8637 6.2725 30.8603 6.27712C30.8521 6.28406 30.8545 6.30026 30.8487 6.30257C30.8463 6.30488 30.8452 6.30835 30.844 6.31182C30.8428 6.31298 30.8417 6.31182 30.8428 6.31182C30.8463 6.31414 30.8405 6.30951 30.8452 6.31414C30.8405 6.31876 30.7883 6.36734 30.6618 6.39626C30.5423 6.42864 30.3787 6.44946 30.2035 6.45525C30.1199 6.45987 30.0317 6.45872 29.947 6.45756C29.9389 6.45756 29.932 6.45756 29.9238 6.4564C29.8438 6.44831 29.7649 6.44252 29.6848 6.43674C29.3448 6.4032 28.9955 6.32108 28.6416 6.2297C28.1879 6.11982 27.682 5.98218 27.1459 5.96599C27.0148 5.95558 26.8802 5.97177 26.749 5.97524L26.568 5.98449C26.5576 5.98449 26.5471 5.98565 26.5367 5.98796L26.3696 6.01225C26.1271 6.04233 25.8846 6.09322 25.6444 6.1418C25.1698 6.25168 24.7033 6.39741 24.2531 6.58595C23.8376 6.76638 23.3712 7.01737 23.0428 7.27993C23.4304 7.11453 23.9119 6.94103 24.3378 6.86007C24.7996 6.77911 25.2579 6.74903 25.7082 6.75713C25.9368 6.76754 26.1619 6.77679 26.3858 6.80571L26.5529 6.82306L26.7049 6.85544C26.8047 6.88089 26.9034 6.8913 26.9997 6.926C27.3861 7.04051 27.747 7.2487 28.1543 7.47078C28.4606 7.64196 28.8574 7.85015 29.3425 7.9982C29.4632 8.03059 29.5862 8.06297 29.7092 8.09536C29.7173 8.09767 29.7266 8.09999 29.7347 8.10114C29.8577 8.12428 29.9784 8.1451 30.106 8.16013C30.3706 8.19136 30.6595 8.20177 30.9821 8.15551C31.2989 8.1104 31.6806 7.99126 32.0264 7.71251C32.0868 7.66046 32.1436 7.60379 32.1982 7.54364C32.1402 7.8143 32.0949 8.10693 32.0763 8.41575C32.0694 8.521 32.0659 8.62857 32.0659 8.7373C32.0659 8.84602 32.0705 8.94896 32.0763 9.0519C32.1193 9.77133 32.3026 10.4098 32.472 10.862C32.5799 11.15 32.9896 11.15 33.0975 10.862C33.2669 10.4086 33.4491 9.77133 33.4932 9.0519C33.5001 8.94896 33.5036 8.84371 33.5036 8.7373C33.5036 8.63089 33.499 8.521 33.4932 8.41575L33.4908 8.41344Z" fill="#B78B49"/>
<path d="M33.9492 2.83493C34.1337 2.70885 34.1522 2.44977 33.984 2.30287C33.9178 2.2462 33.8563 2.18721 33.8029 2.13053C33.2727 1.51173 32.7876 0.00231593 32.7632 2.64583e-06C32.74 -0.00231063 32.2596 1.51289 31.7305 2.13053C31.6806 2.18374 31.6226 2.23926 31.5611 2.29362C31.3928 2.44167 31.4091 2.70885 31.5994 2.82683C32.3165 3.27214 32.7563 4.63581 32.7737 4.63581C32.7911 4.63581 33.2796 3.29411 33.9492 2.83493Z" fill="#B78B49"/>
<path d="M27.892 8.86195C27.8108 8.77752 27.7238 8.70234 27.6344 8.63525C27.4627 8.56123 27.3084 8.46869 27.1691 8.35997C27.0206 8.28826 26.8709 8.22696 26.7096 8.17606C26.4926 8.11245 26.2675 8.07544 26.0436 8.07081C25.8196 8.06387 25.5968 8.09394 25.3879 8.14946C25.1791 8.20498 24.9795 8.28132 24.7973 8.37732C24.4318 8.56932 24.1208 8.81453 23.8504 9.07593C23.5777 9.33733 23.3422 9.61377 23.131 9.89367C22.7075 10.4546 22.3733 11.0214 22.0832 11.5627C21.51 12.6476 21.1131 13.6296 20.8079 14.4323C20.4505 15.2142 20.0456 16.1904 19.6162 17.3286C19.5257 17.5657 19.4352 17.8109 19.3424 18.0619C19.1405 18.1093 18.9374 18.1451 18.7378 18.1613C18.4558 18.1856 18.1785 18.1787 17.9151 18.1324C17.8501 18.1174 17.784 18.1081 17.7202 18.0908C17.6575 18.0711 17.5948 18.0526 17.5322 18.0341C17.4718 18.0087 17.4127 17.9844 17.3535 17.9589C17.3233 17.9474 17.2955 17.9323 17.2676 17.9161L17.1841 17.8699C17.1562 17.8537 17.1272 17.8409 17.1005 17.8224L17.0228 17.7669C16.9706 17.7299 16.9172 17.6964 16.8719 17.6513C16.8243 17.6085 16.7756 17.568 16.7304 17.524C16.6874 17.4766 16.6445 17.4292 16.6016 17.3818C16.5563 17.3367 16.5226 17.2811 16.4832 17.2314C16.4472 17.1782 16.4031 17.1319 16.373 17.0741C16.308 16.9631 16.2372 16.8566 16.1861 16.7375C16.1583 16.6797 16.1304 16.6218 16.1026 16.564C16.0794 16.5039 16.0562 16.4437 16.033 16.3847C16.0109 16.3257 15.9831 16.2644 15.9668 16.2066C15.9506 16.1488 15.9309 16.0921 15.9169 16.0343C15.802 15.5739 15.8752 15.0997 16.0991 14.7215C16.3184 14.341 16.6851 14.0634 17.0692 13.9616C17.2618 13.9107 17.4567 13.9118 17.6331 13.9593C17.8095 14.0078 17.9673 14.1062 18.0892 14.2392C18.3363 14.5064 18.4407 14.8765 18.5185 15.2154C18.5289 15.2582 18.5371 15.2998 18.5417 15.3414C18.5475 15.3831 18.5545 15.4247 18.5603 15.4664C18.5626 15.5068 18.5661 15.5473 18.5684 15.5878L18.5719 15.648L18.5696 15.7069C18.5672 15.8631 18.5371 16.0111 18.4686 16.1268C18.4025 16.2448 18.2945 16.3223 18.1739 16.3593C18.0532 16.3963 17.9255 16.394 17.8072 16.372C17.6888 16.35 17.5809 16.3072 17.4869 16.2529C17.3941 16.1985 17.3105 16.1372 17.2514 16.0667C17.2479 16.0632 17.2444 16.0586 17.2409 16.0539C17.4266 16.2147 17.7062 16.2309 17.9105 16.0771C18.1449 15.9001 18.1913 15.5681 18.0149 15.3345C17.8374 15.1009 17.5043 15.0546 17.2699 15.2304C17.1063 15.3542 17.0344 15.5531 17.0657 15.7416C17.0622 15.8573 17.1052 15.9915 17.1968 16.1095C17.2572 16.1927 17.3419 16.2644 17.4382 16.3304C17.5357 16.3963 17.6494 16.4518 17.7805 16.4854C17.9105 16.5189 18.0578 16.5339 18.211 16.4981C18.363 16.4645 18.5197 16.3674 18.6148 16.2193C18.7134 16.0736 18.7587 15.8966 18.7726 15.7197L18.7796 15.6526V15.5855C18.7796 15.5404 18.7796 15.4953 18.7796 15.449C18.7691 15.36 18.768 15.2651 18.7506 15.1737C18.7355 15.0812 18.7216 14.9875 18.6972 14.895C18.6868 14.8487 18.6751 14.8013 18.6647 14.7539C18.6519 14.7065 18.6357 14.6579 18.6206 14.6093C18.5556 14.415 18.464 14.2172 18.3177 14.0391C18.1727 13.8621 17.9696 13.7129 17.7329 13.6354C17.4962 13.5568 17.2328 13.5429 16.9833 13.5961C16.482 13.7025 16.0179 14.0229 15.7173 14.4867C15.5665 14.718 15.4574 14.984 15.404 15.2686C15.3495 15.552 15.3541 15.8515 15.411 16.1418C15.4249 16.2147 15.4458 16.2853 15.4632 16.3581C15.4818 16.431 15.5073 16.4946 15.5294 16.5629C15.5526 16.6311 15.5758 16.6982 15.599 16.7664C15.628 16.8335 15.657 16.9006 15.686 16.9677C15.7394 17.1042 15.8171 17.2337 15.8891 17.3667C15.9227 17.435 15.9715 17.4951 16.0132 17.5599C16.0585 17.6223 16.0968 17.6894 16.1502 17.7484C16.2012 17.8086 16.2523 17.8687 16.3033 17.9289C16.359 17.9855 16.4182 18.0399 16.4762 18.0954C16.5319 18.1532 16.5992 18.2007 16.6642 18.2492L16.7617 18.3233C16.7942 18.3476 16.8313 18.3672 16.8661 18.3892L16.9729 18.4528C17.0077 18.4748 17.0437 18.4956 17.0819 18.5118C17.1574 18.5465 17.2328 18.5824 17.3094 18.6147C17.3883 18.6413 17.4672 18.6679 17.5461 18.6957C17.6262 18.72 17.7074 18.7362 17.7886 18.7558C18.1158 18.8229 18.4512 18.8391 18.7831 18.8206C18.8782 18.8148 18.9722 18.8056 19.0662 18.794C19.0221 18.9097 18.978 19.0265 18.9328 19.1433C18.6833 19.776 18.4094 20.4353 18.0926 21.1085C17.4521 22.4467 16.6375 23.8451 15.4911 25.0792C14.9178 25.6934 14.2669 26.2636 13.5451 26.7714L13.4117 26.8685L13.2724 26.9587C13.1796 27.0189 13.0856 27.0802 12.9928 27.1403C12.8083 27.2664 12.6098 27.3728 12.4161 27.4873C12.0285 27.7198 11.6235 27.9222 11.207 28.1003C10.5954 28.3606 9.96651 28.5514 9.3457 28.6127C8.72606 28.6752 8.11802 28.5931 7.59701 28.3386C7.33593 28.2137 7.09805 28.0448 6.88454 27.8493C6.67915 27.6504 6.49233 27.4422 6.36469 27.1947C6.23357 26.9518 6.1303 26.6939 6.08156 26.4209C6.02934 26.1502 6.00497 25.8727 6.02354 25.5962C6.02354 25.4574 6.04907 25.3209 6.06299 25.1845C6.0746 25.1162 6.08852 25.0491 6.10129 24.9809C6.11289 24.9126 6.12681 24.8456 6.14538 24.7796C6.16279 24.7125 6.18019 24.6466 6.1976 24.5807C6.21616 24.5148 6.24053 24.4511 6.26026 24.3852C6.29971 24.2545 6.35425 24.1296 6.40298 24.0047C6.61069 23.5062 6.8915 23.0516 7.20481 22.6491C7.83257 21.8441 8.63671 21.2542 9.46406 21.0136C9.876 20.8922 10.2914 20.8609 10.6755 20.9153C11.0596 20.9604 11.4065 21.1004 11.6502 21.3259C11.8962 21.5503 12.032 21.851 12.0842 22.1402C12.1387 22.4305 12.1237 22.7092 12.0842 22.9545C12.0006 23.431 11.8312 23.7814 11.7024 24.0116C11.8057 23.7791 11.7825 23.4992 11.6177 23.2818C11.3752 22.9625 10.9203 22.8989 10.6001 23.1407C10.2798 23.3813 10.216 23.8358 10.4585 24.155C10.6999 24.4743 11.1559 24.5379 11.4762 24.2962C11.5284 24.2568 11.5736 24.2106 11.6119 24.162C11.5783 24.214 11.5493 24.2568 11.5261 24.2892C11.4854 24.3447 11.4657 24.3736 11.4657 24.3736C11.4657 24.3736 11.4889 24.347 11.533 24.295C11.5771 24.2429 11.6409 24.162 11.7175 24.0521C11.8672 23.8312 12.0738 23.483 12.2002 22.9787C12.2594 22.7277 12.2965 22.4363 12.2583 22.1147C12.2211 21.7967 12.0923 21.4416 11.8185 21.1582C11.5481 20.8737 11.1501 20.6898 10.7277 20.6157C10.3042 20.5313 9.83538 20.5405 9.37007 20.6527C8.9036 20.7638 8.44061 20.972 8.00663 21.2565C7.57149 21.5399 7.16999 21.9054 6.80796 22.3264C6.44824 22.7497 6.12449 23.232 5.87501 23.7733C5.81583 23.9098 5.75085 24.0463 5.70212 24.1897C5.67659 24.2615 5.64874 24.332 5.62437 24.4049C5.60232 24.4789 5.58028 24.5518 5.55823 24.627C5.53502 24.701 5.51646 24.7762 5.50021 24.8525C5.48397 24.9288 5.4654 25.0052 5.45031 25.0827C5.42943 25.24 5.39694 25.3961 5.38997 25.558C5.3598 25.8796 5.37605 26.2115 5.43291 26.5447C5.48396 26.8789 5.60348 27.2086 5.76362 27.5209C5.91911 27.8366 6.1535 28.1142 6.40414 28.3641C6.65943 28.6058 6.95068 28.8221 7.27791 28.9852C7.93004 29.3183 8.69357 29.4235 9.41533 29.3553C9.69614 29.3298 9.97347 29.2824 10.245 29.2177C10.8298 29.2396 11.475 29.1968 12.1561 29.0719C12.4114 29.0245 12.6713 28.9632 12.9336 28.8869C12.9997 28.8683 13.0647 28.8464 13.1309 28.8267C13.197 28.8047 13.2631 28.7828 13.3293 28.7596C13.3943 28.7342 13.4627 28.711 13.5265 28.6833C13.5904 28.6555 13.6553 28.6278 13.7192 28.6C13.848 28.5445 13.9791 28.4878 14.1102 28.4311C14.239 28.3687 14.3678 28.3028 14.4978 28.2368C14.5628 28.2044 14.6277 28.1709 14.6927 28.1374C14.7589 28.105 14.8204 28.0645 14.8842 28.0286C15.0118 27.9534 15.1395 27.8794 15.2683 27.8031C15.9575 27.3728 16.5749 26.8801 17.1086 26.3619C17.6424 25.8449 18.0984 25.3071 18.4663 24.7773C18.5127 24.7114 18.5614 24.6478 18.6055 24.583C18.6485 24.5171 18.6902 24.4511 18.732 24.3864C18.8144 24.2557 18.8991 24.1319 18.9722 24.0058C19.0441 23.8786 19.1149 23.7548 19.1834 23.6357C19.217 23.5756 19.253 23.5177 19.282 23.4576C19.3122 23.3974 19.3412 23.3385 19.3702 23.2806C19.4282 23.165 19.4839 23.0528 19.5385 22.9452C19.5907 22.8365 19.6348 22.7289 19.68 22.6283C19.7241 22.5265 19.7671 22.4293 19.8077 22.3368C19.846 22.2431 19.8785 22.1529 19.9109 22.0673C19.9899 21.9031 20.0838 21.7226 20.1674 21.5167C20.2115 21.415 20.2567 21.3086 20.3043 21.1975C20.3159 21.1698 20.3275 21.142 20.3403 21.1131C20.3507 21.0842 20.3623 21.0552 20.3728 21.0263C20.3948 20.9685 20.418 20.9095 20.4401 20.8494C20.5306 20.6088 20.6281 20.3509 20.7302 20.0802C20.8253 19.8061 20.9251 19.5181 21.0296 19.2173C21.1572 18.8403 21.2872 18.4424 21.4194 18.0272C21.4891 17.9913 21.5598 17.9555 21.6283 17.9184C22.2247 17.5981 22.8003 17.2221 23.3457 16.7826C23.4814 16.6739 23.6184 16.5548 23.7437 16.4472C23.8725 16.335 24.0013 16.2228 24.1312 16.1095C24.39 15.8816 24.6488 15.6491 24.9052 15.4097C25.6014 14.7585 26.2594 14.0842 26.8489 13.3636C27.1424 13.0027 27.4186 12.6314 27.6634 12.2382C27.9071 11.8449 28.1229 11.4308 28.2657 10.9763C28.3353 10.7496 28.3875 10.5113 28.398 10.2615C28.4096 10.014 28.3817 9.75488 28.2947 9.50967C28.2077 9.26562 28.0638 9.0447 27.8932 8.86773L27.892 8.86195ZM20.7128 19.1144C20.6269 19.4198 20.5445 19.7124 20.4668 19.99C20.3844 20.2664 20.3055 20.5278 20.2324 20.773C20.2138 20.8343 20.1964 20.8945 20.179 20.9546C20.1697 20.9847 20.1616 21.0136 20.1535 21.0425C20.1442 21.0714 20.1349 21.0992 20.1245 21.1281C20.0873 21.2415 20.0502 21.349 20.0154 21.4531C19.9504 21.6636 19.8738 21.8487 19.8112 22.0187C19.7705 22.0997 19.7311 22.1864 19.6847 22.2755C19.6371 22.3634 19.586 22.4559 19.5338 22.5531C19.4804 22.6491 19.4282 22.7509 19.3691 22.8538C19.3076 22.9556 19.2449 23.0609 19.1788 23.1707C19.1463 23.2251 19.1126 23.2806 19.079 23.3373C19.0453 23.394 19.0059 23.4483 18.9699 23.505C18.8956 23.6184 18.8179 23.734 18.739 23.8532C18.6589 23.9723 18.5684 24.088 18.4814 24.2094C18.4373 24.2695 18.392 24.3309 18.3468 24.3933C18.3003 24.4546 18.2504 24.5136 18.2006 24.5749C17.8153 25.0699 17.3512 25.5708 16.822 26.0542C16.2929 26.5377 15.6918 27.0015 15.0292 27.4145C14.9051 27.4873 14.7821 27.5602 14.6602 27.6319C14.5987 27.6666 14.5396 27.7071 14.4769 27.7383C14.4142 27.7707 14.3516 27.8031 14.2901 27.8355C14.1659 27.9002 14.0429 27.965 13.9199 28.0275C13.7946 28.0841 13.6693 28.1408 13.5463 28.1975C13.4848 28.2253 13.4233 28.2542 13.3618 28.2819C13.3003 28.3108 13.2399 28.3328 13.1796 28.3583C13.1181 28.3814 13.0566 28.4045 12.9963 28.4265C12.9348 28.4473 12.8733 28.4693 12.8118 28.489C12.5658 28.5688 12.3198 28.6359 12.0784 28.6925C11.8614 28.7423 11.6467 28.7828 11.4367 28.8163C11.4588 28.807 11.482 28.7978 11.504 28.7885C11.9542 28.5954 12.3871 28.3768 12.792 28.1316C12.9963 28.0101 13.2028 27.8968 13.3966 27.7614C13.4952 27.6967 13.5927 27.6319 13.6902 27.5671L13.8364 27.47L13.9768 27.3659C14.7333 26.8211 15.4168 26.2035 16.0074 25.5419C16.5981 24.8779 17.0982 24.1712 17.5206 23.4599C17.9441 22.7474 18.2945 22.0303 18.5962 21.3317C18.8933 20.6308 19.1439 19.9495 19.3667 19.2983C19.434 19.0971 19.4979 18.8993 19.5594 18.705C19.6278 18.6899 19.6963 18.6737 19.7647 18.6564C19.9272 18.6171 20.085 18.5662 20.244 18.5164C20.4006 18.4609 20.5584 18.4065 20.7128 18.3418C20.7928 18.3094 20.8729 18.2758 20.9518 18.2411C20.8683 18.543 20.7882 18.8357 20.7093 19.1156L20.7128 19.1144ZM21.2094 17.3216C20.9576 17.4593 20.7023 17.583 20.4447 17.6941C20.3043 17.7565 20.1616 17.8086 20.0189 17.8629C19.9469 17.8872 19.8761 17.9115 19.8042 17.9346C19.8564 17.7692 19.9075 17.6073 19.9585 17.4488C20.3264 16.2945 20.6698 15.3021 20.9739 14.5029C21.3289 13.7256 21.7815 12.776 22.3988 11.7431C22.7098 11.2296 23.0637 10.6941 23.4896 10.1805C23.7019 9.92375 23.9351 9.67507 24.1927 9.44837C24.4492 9.22051 24.7335 9.0181 25.041 8.8712C25.3496 8.72662 25.6838 8.64219 26.0203 8.66301C26.0888 8.66764 26.1573 8.67573 26.2257 8.6873C26.206 8.6873 26.1863 8.6873 26.1665 8.68961C25.9484 8.70118 25.678 8.75554 25.3926 8.88971C25.2522 8.96027 25.1048 9.04354 24.9621 9.14996C24.8193 9.25637 24.6743 9.37781 24.5374 9.52008C23.9804 10.0822 23.5 10.8965 23.0788 11.8287C22.9732 12.0624 22.8699 12.3018 22.769 12.5493C22.6715 12.798 22.5729 13.0525 22.4707 13.3115C22.4452 13.3763 22.4208 13.4411 22.3953 13.507C22.3721 13.5729 22.3489 13.6389 22.3257 13.706C22.2793 13.839 22.2329 13.9731 22.1865 14.1085C22.14 14.2438 22.0925 14.3803 22.046 14.5179C22.0008 14.6556 21.9579 14.7944 21.9126 14.9343C21.6504 15.7625 21.4183 16.5663 21.2071 17.3239L21.2094 17.3216ZM27.6019 10.76C27.4789 11.1278 27.2828 11.4945 27.0542 11.8496C26.8245 12.2058 26.5599 12.5516 26.2779 12.8905C25.7105 13.5695 25.0688 14.2195 24.39 14.8557C24.1394 15.0893 23.8876 15.3183 23.6334 15.5427C23.5058 15.6549 23.3782 15.7671 23.2517 15.8793C23.1194 15.9949 23.0022 16.099 22.8757 16.202C22.5125 16.5004 22.1296 16.7711 21.7374 17.0151C21.9323 16.3905 22.1342 15.7382 22.3466 15.0696C22.7017 13.9593 23.0556 12.9113 23.4315 11.9779C23.6195 11.513 23.8145 11.0792 24.0257 10.6906C24.1312 10.4963 24.2403 10.3124 24.354 10.1424C24.4678 9.97117 24.5861 9.81502 24.7056 9.67276C24.8252 9.52933 24.9528 9.40557 25.0781 9.29338C25.2046 9.18234 25.3346 9.09328 25.461 9.01578C25.7175 8.86658 25.967 8.7914 26.1747 8.75901C26.2733 8.7405 26.3638 8.73935 26.4427 8.73472C26.4485 8.73588 26.4532 8.73819 26.459 8.73935C26.452 8.74282 26.4462 8.74629 26.4392 8.75091C26.3743 8.7914 26.307 8.82725 26.2431 8.87352C26.1782 8.91863 26.1132 8.96374 26.0482 9.00884C25.9867 9.05858 25.924 9.10947 25.8614 9.15921C25.7999 9.21126 25.7419 9.26793 25.6827 9.32345C25.4494 9.55015 25.2406 9.8104 25.0607 10.0915C24.7938 10.5055 24.6035 10.9404 24.4469 11.3638C24.2902 11.7871 24.1707 12.2023 24.0605 12.5944C23.9514 12.9877 23.8528 13.3601 23.7541 13.706C23.6555 14.0518 23.5557 14.3699 23.4513 14.6556C23.247 15.2281 23.015 15.6665 22.8316 15.9556C22.784 16.0262 22.7411 16.0898 22.704 16.1442C22.668 16.1997 22.6309 16.2413 22.6042 16.2783C22.5497 16.3512 22.5206 16.3894 22.5206 16.3894C22.5206 16.3894 22.5543 16.3558 22.6193 16.291C22.6506 16.2587 22.6935 16.2205 22.7365 16.1696C22.7806 16.1199 22.8316 16.0609 22.8885 15.9961C23.109 15.7289 23.3967 15.3079 23.6601 14.7412C23.7936 14.4589 23.9224 14.1432 24.0477 13.8008C24.173 13.4584 24.296 13.0906 24.4248 12.7055C24.5548 12.3215 24.6882 11.919 24.8507 11.5176C25.0131 11.1162 25.1988 10.7103 25.4413 10.3332C25.7685 9.81849 26.1805 9.39863 26.6574 9.10369C26.7479 9.0447 26.8407 8.9915 26.9336 8.9406C26.9591 8.95448 26.9858 8.96836 27.0113 8.9834C27.3234 9.16383 27.5636 9.41367 27.6623 9.71902C27.7609 10.0244 27.7249 10.3933 27.6008 10.76H27.6019Z" fill="#B78B49"/>
<path d="M59.8164 25.5539C59.8094 25.392 59.7781 25.2358 59.756 25.0785C59.741 25.001 59.7224 24.9247 59.7062 24.8483C59.6899 24.772 59.6725 24.6957 59.6481 24.6228C59.6261 24.5488 59.604 24.4747 59.582 24.4007C59.5576 24.3278 59.5298 24.2573 59.5042 24.1856C59.4555 24.041 59.3905 23.9057 59.3314 23.7692C59.0819 23.2267 58.7581 22.7456 58.3984 22.3222C58.0364 21.9001 57.6349 21.5357 57.1997 21.2523C56.7669 20.9678 56.3039 20.7596 55.8363 20.6486C55.3698 20.5364 54.901 20.5283 54.4786 20.6116C54.0551 20.6856 53.6583 20.8695 53.3879 21.154C53.114 21.4374 52.9852 21.7925 52.9481 22.1106C52.9098 22.431 52.9481 22.7236 53.0061 22.9746C53.1314 23.4789 53.3392 23.8259 53.4888 24.0479C53.5654 24.159 53.6293 24.2388 53.6733 24.2908C53.7174 24.3429 53.7406 24.3695 53.7406 24.3695C53.7406 24.3695 53.7198 24.3406 53.6803 24.285C53.6571 24.2527 53.6281 24.2099 53.5944 24.1578C53.6327 24.2076 53.678 24.2527 53.7302 24.292C54.0505 24.5326 54.5065 24.4701 54.7479 24.1509C54.9892 23.8316 54.9266 23.3771 54.6063 23.1365C54.286 22.8959 53.83 22.9584 53.5886 23.2776C53.4239 23.4951 53.4007 23.775 53.5039 24.0075C53.3751 23.7773 53.2057 23.4268 53.1222 22.9503C53.0827 22.7062 53.0665 22.4275 53.1222 22.136C53.1744 21.8469 53.3101 21.5473 53.5561 21.3217C53.7998 21.095 54.1456 20.9562 54.5309 20.9111C54.915 20.8568 55.3304 20.888 55.7423 21.0094C56.5697 21.2512 57.3726 21.8399 58.0016 22.6449C58.316 23.0474 58.5957 23.502 58.8034 24.0005C58.8521 24.1266 58.9078 24.2503 58.9461 24.381C58.967 24.4458 58.9902 24.5106 59.0088 24.5765C59.0262 24.6424 59.0436 24.7084 59.061 24.7755C59.0807 24.8414 59.0935 24.9085 59.1051 24.9767C59.1178 25.045 59.1318 25.112 59.1434 25.1803C59.1573 25.3168 59.1817 25.4544 59.1828 25.5921C59.2014 25.8685 59.177 26.1461 59.1248 26.4167C59.0772 26.6897 58.9728 26.9476 58.8417 27.1905C58.714 27.438 58.526 27.6462 58.3218 27.8452C58.1071 28.0395 57.8704 28.2095 57.6094 28.3344C57.0883 28.5889 56.4803 28.671 55.8607 28.6086C55.2399 28.5473 54.6109 28.3576 53.9994 28.0962C53.5828 27.9181 53.1779 27.7156 52.7903 27.4832C52.5954 27.3686 52.3969 27.2622 52.2136 27.1362C52.1196 27.0749 52.0268 27.0147 51.9339 26.9546L51.7947 26.8644L51.6613 26.7672C50.9395 26.2594 50.2874 25.6892 49.7153 25.075C48.5688 23.8421 47.7543 22.4425 47.1137 21.1043C46.7969 20.4311 46.5231 19.7718 46.2736 19.1392C46.2284 19.0223 46.1843 18.9055 46.1402 18.7899C46.2342 18.8014 46.3282 18.8107 46.4233 18.8165C46.7552 18.8361 47.0905 18.8199 47.4177 18.7517C47.499 18.732 47.5814 18.717 47.6603 18.6915C47.7392 18.6649 47.8181 18.6383 47.897 18.6106C47.9736 18.5782 48.049 18.5423 48.1244 18.5076C48.1627 18.4914 48.1987 18.4706 48.2335 18.4486L48.3402 18.385C48.3751 18.3631 48.4122 18.3445 48.4447 18.3191L48.5422 18.2451C48.6071 18.1953 48.6733 18.1491 48.7301 18.0912C48.7882 18.0357 48.8473 17.9814 48.903 17.9247C48.9541 17.8645 49.0051 17.8044 49.0562 17.7443C49.1096 17.6864 49.149 17.6193 49.1931 17.5557C49.2349 17.4909 49.2836 17.4308 49.3173 17.3626C49.3892 17.2295 49.467 17.1 49.5204 16.9635C49.5494 16.8964 49.5784 16.8293 49.6074 16.7623C49.6306 16.694 49.6538 16.6258 49.677 16.5587C49.699 16.4893 49.7257 16.4268 49.7431 16.354C49.7606 16.2811 49.7814 16.2105 49.7954 16.1377C49.8534 15.8474 49.8569 15.5478 49.8023 15.2644C49.7489 14.981 49.6387 14.7139 49.489 14.4825C49.1885 14.0187 48.7243 13.6983 48.223 13.5919C47.9724 13.5387 47.709 13.5514 47.4734 13.6312C47.2367 13.7099 47.0325 13.8591 46.8886 14.0349C46.7424 14.2119 46.6507 14.4108 46.5858 14.6051C46.5707 14.6537 46.5533 14.7023 46.5417 14.7497C46.5301 14.7971 46.5196 14.8446 46.5092 14.8908C46.4848 14.9834 46.4709 15.0782 46.4558 15.1696C46.4384 15.2609 46.4361 15.3546 46.4268 15.4448C46.4256 15.4911 46.4268 15.5362 46.4268 15.5813V15.6484L46.4337 15.7155C46.4488 15.8925 46.4929 16.0694 46.5916 16.2152C46.6867 16.3632 46.8434 16.4604 46.9954 16.4939C47.1485 16.5298 47.2959 16.5147 47.4259 16.4812C47.5558 16.4477 47.6707 16.3921 47.7682 16.3262C47.8645 16.2603 47.9492 16.1874 48.0095 16.1053C48.1012 15.9873 48.1441 15.8531 48.1407 15.7375C48.1732 15.5489 48.1012 15.3488 47.9364 15.2262C47.702 15.0493 47.3679 15.0955 47.1915 15.3303C47.0139 15.564 47.0604 15.8971 47.2959 16.0729C47.5001 16.2267 47.7798 16.2117 47.9654 16.0498C47.962 16.0532 47.9596 16.0579 47.955 16.0625C47.8947 16.1342 47.8123 16.1955 47.7194 16.2487C47.6266 16.3031 47.5175 16.3459 47.3992 16.3678C47.282 16.3898 47.1532 16.3921 47.0325 16.3551C46.913 16.3193 46.8039 16.2406 46.7378 16.1226C46.6693 16.007 46.6391 15.8589 46.6368 15.7028L46.6345 15.6438L46.638 15.5836C46.6403 15.5432 46.6438 15.5027 46.6461 15.4622C46.6519 15.4206 46.6589 15.3801 46.6647 15.3373C46.6705 15.2956 46.6774 15.2528 46.6879 15.2112C46.7668 14.8735 46.87 14.5033 47.1172 14.235C47.239 14.102 47.3969 14.0037 47.5732 13.9551C47.7496 13.9065 47.9457 13.9054 48.1372 13.9574C48.5213 14.0592 48.8879 14.3368 49.1073 14.7173C49.3312 15.0955 49.4043 15.5686 49.2894 16.0301C49.2767 16.0879 49.2558 16.1446 49.2395 16.2024C49.2233 16.2603 49.1954 16.3204 49.1734 16.3806C49.1502 16.4407 49.127 16.4997 49.1038 16.5599C49.0759 16.6177 49.0481 16.6755 49.0202 16.7333C48.9692 16.8525 48.8984 16.9589 48.8334 17.0699C48.8032 17.1278 48.7591 17.174 48.7232 17.2272C48.6837 17.2781 48.6501 17.3336 48.6048 17.3776C48.5619 17.425 48.5189 17.4724 48.476 17.5199C48.4296 17.5638 48.3809 17.6043 48.3344 17.6471C48.2892 17.6922 48.2347 17.7257 48.1824 17.7628L48.1047 17.8183C48.0792 17.8368 48.049 17.8495 48.0211 17.8657L47.9376 17.912C47.9097 17.9282 47.8819 17.9432 47.8517 17.9548C47.7926 17.979 47.7322 18.0045 47.673 18.0299C47.6104 18.0484 47.5477 18.0681 47.485 18.0866C47.4212 18.104 47.3551 18.1132 47.2901 18.1283C47.0267 18.1745 46.7494 18.1815 46.4674 18.1572C46.2678 18.141 46.0659 18.1051 45.8628 18.0577C45.77 17.8067 45.6795 17.5615 45.589 17.3244C45.1585 16.1863 44.7535 15.2101 44.3973 14.4282C44.0909 13.6255 43.6953 12.6435 43.122 11.5585C42.8319 11.0172 42.4977 10.4505 42.0742 9.88951C41.863 9.6096 41.6263 9.33201 41.3548 9.07177C41.0844 8.81037 40.7734 8.56516 40.4079 8.37316C40.2257 8.27715 40.0273 8.19966 39.8173 8.1453C39.6084 8.08978 39.3856 8.06086 39.1617 8.06665C38.9377 8.07127 38.7126 8.10829 38.4956 8.1719C38.3157 8.22858 38.151 8.29682 37.9862 8.37894C37.9676 8.372 37.9502 8.36853 37.9317 8.36275C37.7959 8.50039 37.6392 8.62068 37.4629 8.71899C37.4118 8.76294 37.3607 8.80805 37.3132 8.85779C37.1414 9.03475 36.9987 9.25567 36.9117 9.49972C36.8247 9.74377 36.7968 10.0029 36.8084 10.2515C36.8189 10.5002 36.8711 10.7385 36.9407 10.9663C37.0823 11.4209 37.2993 11.835 37.5429 12.2282C37.7878 12.6215 38.0639 12.9928 38.3575 13.3536C38.9458 14.0742 39.6049 14.7474 40.3011 15.3997C40.5576 15.6392 40.8164 15.8728 41.0751 16.0995C41.2051 16.2129 41.3339 16.3251 41.4627 16.4372C41.5868 16.5448 41.7238 16.6639 41.8607 16.7727C42.4061 17.2122 42.9816 17.5881 43.5781 17.9085C43.6477 17.9455 43.7173 17.9825 43.7869 18.0172C43.9192 18.4325 44.0492 18.8303 44.1768 19.2074C44.2812 19.5081 44.381 19.7961 44.4762 20.0703C44.5783 20.3421 44.6758 20.5988 44.7663 20.8394C44.7895 20.8996 44.8115 20.9586 44.8336 21.0164C44.8452 21.0453 44.8556 21.0742 44.8661 21.1031C44.8777 21.1309 44.8904 21.1598 44.902 21.1876C44.9496 21.2986 44.9949 21.405 45.039 21.5068C45.1225 21.7127 45.2165 21.8931 45.2954 22.0574C45.3279 22.1418 45.3616 22.2332 45.3987 22.3269C45.4393 22.4194 45.4822 22.5165 45.5263 22.6183C45.5716 22.7201 45.6157 22.8265 45.6679 22.9352C45.7213 23.0428 45.7781 23.155 45.8362 23.2707C45.8652 23.3285 45.8953 23.3875 45.9243 23.4476C45.9533 23.5078 45.9893 23.5656 46.023 23.6258C46.0914 23.7461 46.1622 23.8698 46.2342 23.9959C46.3084 24.122 46.392 24.2457 46.4744 24.3764C46.5161 24.4412 46.5579 24.5071 46.6008 24.5731C46.6449 24.6378 46.6925 24.7014 46.7401 24.7674C47.1079 25.2971 47.564 25.8349 48.0977 26.352C48.6315 26.869 49.2488 27.3629 49.9381 27.7931C50.0669 27.8683 50.1945 27.9435 50.3222 28.0187C50.386 28.0545 50.4475 28.095 50.5136 28.1274C50.5786 28.1609 50.6436 28.1933 50.7086 28.2269C50.8385 28.2916 50.9673 28.3587 51.0961 28.4212C51.2273 28.4779 51.3584 28.5345 51.4872 28.5901C51.5522 28.6178 51.616 28.6456 51.6798 28.6733C51.7436 28.7011 51.8121 28.7242 51.8771 28.7497C51.9432 28.7728 52.0094 28.7959 52.0755 28.8168C52.1416 28.8376 52.2066 28.8584 52.2728 28.8769C52.535 28.9532 52.7949 29.0134 53.0502 29.062C53.7314 29.188 54.3765 29.2297 54.9614 29.2077C55.2329 29.2725 55.5102 29.3199 55.791 29.3453C56.514 29.4136 57.2763 29.3083 57.9285 28.9752C58.2545 28.8133 58.5469 28.5958 58.8022 28.3541C59.0529 28.1054 59.2861 27.8267 59.4427 27.5109C59.6029 27.1998 59.7224 26.869 59.7735 26.5347C59.8292 26.2028 59.8466 25.8696 59.8164 25.5481V25.5539ZM42.333 16.2013C42.2065 16.0984 42.0881 15.9943 41.957 15.8786C41.8305 15.7664 41.7029 15.6554 41.5752 15.542C41.3211 15.3176 41.0693 15.0886 40.8187 14.855C40.1399 14.22 39.497 13.5688 38.9307 12.8898C38.6488 12.5509 38.3842 12.2039 38.1544 11.8489C37.9259 11.4938 37.7297 11.1271 37.6067 10.7593C37.4826 10.3926 37.4455 10.0237 37.5452 9.71833C37.6439 9.41297 37.8852 9.16314 38.1962 8.9827C38.2218 8.96767 38.2473 8.95379 38.274 8.93991C38.3668 8.9908 38.4585 9.04401 38.5501 9.10299C39.0271 9.39794 39.439 9.8178 39.7662 10.3325C40.0099 10.7096 40.1956 11.1155 40.3568 11.5169C40.5193 11.9194 40.6527 12.3208 40.7827 12.7048C40.9115 13.0888 41.0345 13.4577 41.1598 13.8001C41.2851 14.1425 41.4139 14.4582 41.5474 14.7405C41.8108 15.3072 42.0986 15.7282 42.319 15.9954C42.3759 16.0602 42.427 16.1192 42.4711 16.1689C42.514 16.2198 42.5569 16.2568 42.5883 16.2904C42.6532 16.354 42.6869 16.3887 42.6869 16.3887C42.6869 16.3887 42.6579 16.3505 42.6033 16.2776C42.5766 16.2406 42.5395 16.199 42.5035 16.1435C42.4664 16.0891 42.4246 16.0255 42.3759 15.9549C42.1926 15.6658 41.9605 15.2286 41.7563 14.6549C41.6518 14.3692 41.552 14.0511 41.4534 13.7053C41.3548 13.3594 41.2561 12.987 41.1471 12.5937C41.0368 12.2005 40.9173 11.7864 40.7607 11.3631C40.604 10.9397 40.4125 10.5037 40.1468 10.0908C39.967 9.8097 39.7593 9.54946 39.5249 9.32276C39.4645 9.26724 39.4077 9.21056 39.3462 9.15851C39.2835 9.10762 39.2208 9.05789 39.1593 9.00815C39.0944 8.96304 39.0294 8.91793 38.9644 8.87282C38.9006 8.82656 38.8333 8.7907 38.7683 8.75022C38.7613 8.74675 38.7555 8.74328 38.7486 8.73865C38.7544 8.7375 38.759 8.73518 38.7648 8.73403C38.8437 8.73865 38.9331 8.73981 39.0329 8.75832C39.2417 8.78955 39.4912 8.86588 39.7465 9.01509C39.873 9.09259 40.0041 9.18165 40.1294 9.29268C40.2547 9.40372 40.3824 9.52748 40.5019 9.67206C40.6226 9.81433 40.7409 9.97163 40.8535 10.1417C40.966 10.3128 41.0763 10.4956 41.1819 10.6899C41.3942 11.0785 41.588 11.5123 41.776 11.9772C42.1531 12.9107 42.507 13.9586 42.8609 15.0689C43.0733 15.7375 43.2752 16.3898 43.4701 17.0144C43.0779 16.7715 42.695 16.4997 42.3318 16.2013H42.333ZM43.9981 17.3209C43.7869 16.5633 43.5548 15.7595 43.2926 14.9313C43.2485 14.7913 43.2056 14.6526 43.1592 14.5149C43.1116 14.3773 43.0652 14.2408 43.0188 14.1055C42.9723 13.9701 42.9248 13.836 42.8795 13.703C42.8563 13.637 42.8331 13.5699 42.8099 13.504C42.7844 13.4381 42.76 13.3733 42.7345 13.3085C42.6335 13.0494 42.5337 12.7961 42.4362 12.5463C42.3365 12.2999 42.232 12.0594 42.1264 11.8257C41.7052 10.8935 41.2248 10.0792 40.6678 9.51707C40.5309 9.37481 40.3859 9.25336 40.2431 9.14695C40.1004 9.04054 39.953 8.9561 39.8126 8.8867C39.5272 8.75253 39.2568 8.69817 39.0387 8.6866C39.0178 8.68545 38.9992 8.68429 38.9795 8.68429C39.0479 8.67273 39.1164 8.66347 39.1849 8.66C39.5214 8.63803 39.8556 8.72362 40.1642 8.8682C40.4729 9.01509 40.7572 9.2175 41.0125 9.44536C41.2701 9.67206 41.5021 9.9219 41.7156 10.1775C42.1415 10.6911 42.4954 11.2266 42.8064 11.7401C43.4237 12.773 43.8763 13.7226 44.2313 14.4999C44.5354 15.2991 44.8788 16.2915 45.2467 17.4458C45.2977 17.6055 45.3488 17.7674 45.401 17.9316C45.3302 17.9085 45.2583 17.8842 45.1863 17.8599C45.0448 17.8056 44.902 17.7535 44.7605 17.691C44.5029 17.58 44.2476 17.4562 43.9958 17.3186L43.9981 17.3209ZM53.1291 28.6918C52.8866 28.6352 52.6406 28.5692 52.3946 28.4883C52.3331 28.4686 52.2716 28.4466 52.2101 28.4258C52.1498 28.4027 52.0883 28.3807 52.0268 28.3576C51.9664 28.3321 51.9049 28.3102 51.8446 28.2812C51.7831 28.2535 51.7216 28.2246 51.6601 28.1968C51.5371 28.1401 51.4118 28.0846 51.2864 28.0268C51.1634 27.9643 51.0404 27.8984 50.9163 27.8348C50.8536 27.8024 50.7921 27.77 50.7295 27.7376C50.6656 27.7064 50.6076 27.6671 50.5461 27.6312C50.4243 27.5595 50.3013 27.4866 50.1771 27.4138C49.5146 27.0008 48.9146 26.537 48.3843 26.0536C47.8552 25.5701 47.3911 25.0693 47.0058 24.5742C46.9571 24.5129 46.9072 24.4539 46.8596 24.3926C46.8143 24.3302 46.7691 24.2689 46.725 24.2087C46.638 24.0873 46.5475 23.9704 46.4674 23.8525C46.3885 23.7333 46.3119 23.6165 46.2365 23.5043C46.1993 23.4476 46.1599 23.3933 46.1274 23.3366C46.0938 23.2799 46.0601 23.2244 46.0276 23.17C45.9615 23.0613 45.8988 22.9549 45.8373 22.8531C45.7781 22.7502 45.7259 22.6484 45.6725 22.5524C45.6203 22.4552 45.5693 22.3639 45.5217 22.2748C45.4764 22.1857 45.4358 22.099 45.3952 22.018C45.3325 21.8492 45.256 21.6629 45.191 21.4524C45.1562 21.3483 45.1202 21.2396 45.0819 21.1274C45.0726 21.0997 45.0633 21.0707 45.0529 21.0418C45.0448 21.0129 45.0355 20.9828 45.0274 20.9539C45.01 20.8949 44.9914 20.8336 44.974 20.7723C44.9009 20.5271 44.822 20.2657 44.7396 19.9893C44.6618 19.7117 44.5795 19.4191 44.4936 19.1137C44.4147 18.8338 44.3346 18.5412 44.2511 18.2393C44.3311 18.274 44.41 18.3075 44.4901 18.3399C44.6444 18.4047 44.8023 18.4591 44.9589 18.5146C45.1179 18.5643 45.2757 18.6152 45.4381 18.6545C45.5066 18.6719 45.5751 18.6881 45.6435 18.7031C45.705 18.8974 45.7689 19.0952 45.8362 19.2965C46.0589 19.9476 46.3096 20.6289 46.6066 21.3298C46.9095 22.0284 47.2588 22.7456 47.6823 23.458C48.1059 24.1705 48.6048 24.8761 49.1954 25.54C49.7872 26.2028 50.4695 26.8192 51.2261 27.364L51.3665 27.4681L51.5127 27.5653C51.6102 27.6301 51.7077 27.6948 51.8063 27.7596C52.0001 27.8938 52.2066 28.0083 52.4109 28.1297C52.8158 28.3749 53.2486 28.5935 53.6989 28.7867C53.7209 28.7959 53.7441 28.8052 53.7662 28.8144C53.5561 28.7809 53.3426 28.7404 53.1245 28.6907L53.1291 28.6918Z" fill="#B78B49"/>
<path d="M33.4908 59.5868C33.4711 59.8956 33.427 60.1882 33.369 60.4589C33.4235 60.3988 33.4815 60.3421 33.5419 60.29C33.8865 60.0113 34.2694 59.8921 34.5851 59.847C34.9088 59.8008 35.1966 59.8112 35.4612 59.8424C35.59 59.8563 35.7106 59.8771 35.8336 59.9002C35.8418 59.9014 35.851 59.9037 35.8592 59.906C35.9822 59.9384 36.1052 59.972 36.2258 60.0032C36.7109 60.1512 37.1077 60.3606 37.4141 60.5318C37.8225 60.7538 38.1822 60.962 38.5686 61.0765C38.665 61.1124 38.7636 61.1216 38.8634 61.1471L39.0154 61.1795L39.1825 61.1968C39.4064 61.2258 39.6304 61.235 39.8602 61.2454C40.3104 61.2524 40.7699 61.2223 41.2306 61.1425C41.6553 61.0603 42.138 60.888 42.5244 60.7226C42.1972 60.9852 41.7295 61.2362 41.3153 61.4166C40.865 61.6051 40.3974 61.7509 39.9228 61.8607C39.6826 61.9093 39.4413 61.9602 39.1987 61.9903L39.0316 62.0146C39.0212 62.0157 39.0108 62.0169 39.0003 62.018L38.8193 62.0273C38.6882 62.0296 38.5524 62.047 38.4213 62.0366C37.8852 62.0204 37.3793 61.8827 36.9256 61.7728C36.5728 61.6815 36.2224 61.5993 35.8824 61.5658C35.8023 61.5612 35.7234 61.5542 35.6433 61.5473C35.6352 61.5473 35.6282 61.5461 35.6201 61.5461C35.5354 61.545 35.4472 61.5438 35.3637 61.5485C35.1885 61.5531 35.0249 61.5739 34.9053 61.6074C34.7789 61.6375 34.7266 61.6849 34.722 61.6896C34.7255 61.6942 34.7208 61.6896 34.7243 61.6919C34.7243 61.6919 34.7243 61.6907 34.7232 61.6919C34.7232 61.6953 34.722 61.6988 34.7197 61.7011C34.7127 61.7034 34.715 61.7196 34.7081 61.7266C34.7057 61.7312 34.7011 61.7347 34.6965 61.7393C34.6976 61.7405 34.6999 61.7393 34.6988 61.7405C34.6918 61.7381 34.6756 61.7428 34.6663 61.759C34.6582 61.7775 34.6663 61.8179 34.6733 61.8503C34.6733 61.8503 34.6756 61.8688 34.6779 61.8966C34.6814 61.9174 34.6814 61.9822 34.7394 62.018C34.7464 62.0238 34.7556 62.0319 34.7649 62.0366L34.7951 62.0435C34.8171 62.0481 34.8427 62.0574 34.8717 62.062C34.9251 62.0562 34.9947 62.0597 35.0655 62.0516C35.1989 62.0285 35.359 62.0157 35.4983 62.0793C35.6341 62.1499 35.6979 62.2933 35.6909 62.5004C35.6828 62.5941 35.6445 62.6982 35.5946 62.8092C35.5865 62.8265 35.5772 62.8439 35.5668 62.8601C35.5343 62.9098 35.4936 62.9584 35.4519 63.0081C35.4275 63.037 35.4008 63.0648 35.3741 63.0937C35.3625 63.1041 35.3486 63.1145 35.3358 63.125C35.2094 63.2198 35.0713 63.2984 34.9204 63.347C34.8902 63.3574 34.8601 63.3655 34.8299 63.3748C34.751 63.4002 34.6733 63.4002 34.599 63.4083C34.5236 63.413 34.4505 63.4187 34.389 63.4083C34.2636 63.3921 34.1511 63.3771 34.0849 63.3528C34.0153 63.3285 33.9759 63.3146 33.9759 63.3146C33.6347 63.1839 33.3295 62.941 33.1184 62.5952C32.9919 62.387 32.913 62.1441 32.8874 61.892C32.8259 62.0227 32.7842 62.0955 32.7842 62.0955C32.7842 62.0955 32.7424 62.0227 32.6809 61.892C32.6554 62.1441 32.5765 62.387 32.45 62.5952C32.2399 62.9422 31.9348 63.1839 31.5925 63.3146C31.5925 63.3146 31.553 63.3285 31.4834 63.3528C31.4161 63.3771 31.3047 63.3933 31.1794 63.4083C31.1179 63.4187 31.0436 63.413 30.9693 63.4083C30.8939 63.4002 30.8173 63.4002 30.7384 63.3748C30.7106 63.3667 30.6827 63.3586 30.6549 63.3493C30.4982 63.2996 30.3543 63.2186 30.2244 63.118C30.2139 63.1099 30.2035 63.1018 30.1942 63.0926C30.1675 63.0648 30.1408 63.0359 30.1165 63.007C30.0747 62.9572 30.0341 62.9087 30.0016 62.8589C29.9911 62.8427 29.9818 62.8254 29.9737 62.808C29.9238 62.6982 29.8855 62.5929 29.8774 62.5004C29.8716 62.2933 29.9354 62.1487 30.07 62.0793C30.2093 62.0169 30.3694 62.0285 30.5029 62.0516C30.5736 62.0585 30.6421 62.0562 30.6966 62.062C30.7257 62.0574 30.7523 62.0481 30.7732 62.0435L30.8034 62.0366C30.8127 62.0319 30.822 62.0227 30.8289 62.018C30.8869 61.9833 30.8869 61.9186 30.8904 61.8966C30.8939 61.8688 30.8962 61.8503 30.8962 61.8503C30.902 61.8168 30.9102 61.7763 30.902 61.759C30.8927 61.7428 30.8765 61.7381 30.8695 61.7405C30.8695 61.7405 30.8707 61.7405 30.8719 61.7393C30.8672 61.7358 30.8637 61.7312 30.8603 61.7266C30.8521 61.7196 30.8545 61.7034 30.8487 61.7011C30.8463 61.6988 30.8452 61.6953 30.844 61.6919C30.8428 61.6907 30.8417 61.6919 30.8428 61.6919C30.8463 61.6896 30.8405 61.6942 30.8452 61.6896C30.8405 61.6849 30.7883 61.6364 30.6618 61.6074C30.5423 61.5751 30.3787 61.5542 30.2035 61.5485C30.1199 61.5438 30.0317 61.545 29.947 61.5461C29.9389 61.5461 29.932 61.5461 29.9238 61.5473C29.8438 61.5554 29.7649 61.5612 29.6848 61.5658C29.3448 61.5993 28.9955 61.6815 28.6416 61.7728C28.1879 61.8827 27.682 62.0204 27.1459 62.0366C27.0148 62.047 26.8802 62.0308 26.749 62.0273L26.568 62.018C26.5576 62.018 26.5471 62.0169 26.5367 62.0146L26.3696 61.9903C26.1271 61.9602 25.8846 61.9093 25.6444 61.8607C25.1698 61.7509 24.7033 61.6051 24.2531 61.4166C23.8376 61.2362 23.3712 60.9852 23.0428 60.7226C23.4304 60.888 23.9119 61.0615 24.3378 61.1425C24.7996 61.2234 25.2579 61.2535 25.7082 61.2454C25.9368 61.235 26.1619 61.2258 26.3858 61.1968L26.5529 61.1795L26.7049 61.1471C26.8047 61.1216 26.9034 61.1112 26.9997 61.0765C27.3861 60.962 27.747 60.7538 28.1543 60.5318C28.4606 60.3606 28.8574 60.1524 29.3425 60.0032C29.4632 59.9708 29.5862 59.9384 29.7092 59.906C29.7173 59.9037 29.7266 59.9014 29.7347 59.9002C29.8577 59.8771 29.9784 59.8563 30.106 59.8413C30.3706 59.81 30.6595 59.7996 30.9821 59.8459C31.2989 59.891 31.6806 60.0101 32.0264 60.2889C32.0868 60.3409 32.1436 60.3976 32.1982 60.4577C32.1402 60.1871 32.0949 59.8945 32.0763 59.5856C32.0694 59.4804 32.0659 59.3728 32.0659 59.2641C32.0659 59.1554 32.0705 59.0524 32.0763 58.9495C32.1193 58.2301 32.3026 57.5916 32.472 57.1393C32.5799 56.8513 32.9896 56.8513 33.0975 57.1393C33.2669 57.5927 33.4491 58.2301 33.4932 58.9495C33.5001 59.0524 33.5036 59.1577 33.5036 59.2641C33.5036 59.3705 33.499 59.4804 33.4932 59.5856L33.4908 59.5868Z" fill="#B78B49"/>
<path d="M33.9492 65.1651C34.1337 65.2912 34.1522 65.5503 33.984 65.6972C33.9178 65.7539 33.8563 65.8129 33.8029 65.8695C33.2727 66.4883 32.7888 67.9978 32.7632 68.0001C32.74 68.0024 32.2596 66.4872 31.7305 65.8695C31.6806 65.8163 31.6226 65.7608 31.5611 65.7065C31.3928 65.5584 31.4091 65.2912 31.5994 65.1732C32.3165 64.7279 32.7563 63.3643 32.7737 63.3643C32.7911 63.3643 33.2796 64.706 33.9492 65.1651Z" fill="#B78B49"/>
<path d="M28.2935 58.4962C28.3805 58.2522 28.4084 57.9931 28.3968 57.7444C28.3863 57.4957 28.3341 57.2575 28.2645 57.0296C28.1229 56.575 27.9059 56.161 27.6623 55.7677C27.4174 55.3744 27.1413 55.0032 26.8477 54.6423C26.2594 53.9217 25.6003 53.2485 24.904 52.5962C24.6476 52.3568 24.3888 52.1231 24.1301 51.8964C24.0001 51.7831 23.8713 51.6709 23.7425 51.5587C23.6183 51.4511 23.4814 51.332 23.3445 51.2233C22.7991 50.7837 22.2236 50.4078 21.6271 50.0874C21.5575 50.0504 21.4879 50.0134 21.4183 49.9787C21.286 49.5635 21.156 49.1656 21.0284 48.7885C20.9239 48.4878 20.8242 48.1998 20.729 47.9257C20.6269 47.6539 20.5294 47.3971 20.4389 47.1565C20.4157 47.0964 20.3937 47.0374 20.3716 46.9796C20.36 46.9506 20.3496 46.9217 20.3391 46.8928C20.3275 46.8651 20.3148 46.8361 20.3031 46.8084C20.2556 46.6973 20.2103 46.5909 20.1662 46.4891C20.0827 46.2833 19.9887 46.1028 19.9098 45.9386C19.8773 45.8541 19.8436 45.7628 19.8065 45.6691C19.7659 45.5766 19.723 45.4794 19.6789 45.3776C19.6336 45.2758 19.5895 45.1694 19.5373 45.0607C19.4839 44.9531 19.4271 44.8409 19.369 44.7253C19.34 44.6674 19.3099 44.6084 19.2809 44.5483C19.2518 44.4882 19.2159 44.4303 19.1822 44.3702C19.1138 44.2499 19.043 44.1261 18.971 44.0001C18.8968 43.874 18.8132 43.7502 18.7308 43.6195C18.6891 43.5547 18.6473 43.4888 18.6044 43.4229C18.5603 43.3581 18.5127 43.2945 18.4651 43.2286C18.0973 42.6988 17.6412 42.161 17.1075 41.644C16.5737 41.127 15.9564 40.6331 15.2671 40.2028C15.1383 40.1276 15.0107 40.0524 14.883 39.9773C14.8192 39.9414 14.7577 39.9009 14.6916 39.8685C14.6266 39.835 14.5616 39.8026 14.4966 39.7691C14.3667 39.7043 14.2378 39.6372 14.109 39.5747C13.9779 39.5181 13.8468 39.4614 13.718 39.4059C13.653 39.3781 13.5892 39.3504 13.5254 39.3226C13.4616 39.2948 13.3931 39.2717 13.3281 39.2463C13.262 39.2231 13.1958 39.2 13.1297 39.1792C13.0635 39.1584 12.9986 39.1375 12.9324 39.119C12.6702 39.0427 12.4103 38.9825 12.155 38.934C11.4738 38.8079 10.8287 38.7663 10.2438 38.7882C9.9723 38.7235 9.69497 38.676 9.41416 38.6506C8.69124 38.5824 7.92887 38.6876 7.27674 39.0207C6.95067 39.1826 6.65826 39.4001 6.40298 39.6418C6.15233 39.8905 5.9191 40.1693 5.76245 40.485C5.60231 40.7962 5.4828 41.127 5.43174 41.4612C5.37604 41.7932 5.35864 42.1263 5.38881 42.4478C5.39461 42.6098 5.4271 42.7659 5.44914 42.9232C5.46423 43.0007 5.4828 43.0771 5.49904 43.1534C5.51529 43.2297 5.53269 43.3061 5.55706 43.3789C5.57911 43.453 5.60115 43.527 5.6232 43.601C5.64757 43.6739 5.67542 43.7444 5.70095 43.8161C5.74968 43.9607 5.81466 44.0961 5.87384 44.2325C6.12332 44.775 6.44707 45.2562 6.80679 45.6795C7.16883 46.1017 7.57032 46.466 8.00546 46.7494C8.43828 47.0339 8.90127 47.2421 9.3689 47.3532C9.83537 47.4653 10.3042 47.4734 10.7265 47.3902C11.1501 47.3161 11.5469 47.1322 11.8173 46.8477C12.0911 46.5643 12.22 46.2092 12.2571 45.8912C12.2954 45.5696 12.2571 45.2781 12.1991 45.0272C12.0737 44.5229 11.866 44.1759 11.7163 43.9538C11.6398 43.8428 11.5759 43.7629 11.5318 43.7109C11.4878 43.6588 11.4645 43.6322 11.4645 43.6322C11.4645 43.6322 11.4854 43.6612 11.5249 43.7167C11.5481 43.7491 11.5771 43.7919 11.6108 43.8439C11.5725 43.7942 11.5272 43.7491 11.475 43.7097C11.1547 43.4692 10.6987 43.5316 10.4573 43.8508C10.216 44.1701 10.2786 44.6246 10.5989 44.8652C10.9192 45.1058 11.3752 45.0433 11.6166 44.7241C11.7813 44.5067 11.8045 44.2268 11.7013 43.9943C11.8301 44.2244 11.9995 44.5749 12.083 45.0514C12.1225 45.2955 12.1387 45.5742 12.083 45.8657C12.0308 46.1549 11.8939 46.4544 11.649 46.68C11.4054 46.9067 11.0596 47.0455 10.6743 47.0906C10.2902 47.145 9.87483 47.1137 9.46289 46.9923C8.63554 46.7505 7.83256 46.1618 7.20364 45.3568C6.88917 44.9543 6.60952 44.4997 6.40182 44.0012C6.35308 43.8751 6.29738 43.7514 6.25909 43.6207C6.2382 43.5559 6.21499 43.4911 6.19643 43.4252C6.17902 43.3593 6.16162 43.2933 6.14421 43.2263C6.12449 43.1603 6.11172 43.0932 6.10012 43.025C6.08735 42.9568 6.07343 42.8897 6.06182 42.8214C6.0479 42.685 6.02353 42.5473 6.02237 42.4097C6.00381 42.1332 6.02817 41.8556 6.08039 41.585C6.12797 41.312 6.2324 41.0541 6.36352 40.8112C6.49116 40.5637 6.67915 40.3555 6.88337 40.1565C7.09804 39.9622 7.33476 39.7922 7.59584 39.6673C8.11685 39.4128 8.72489 39.3307 9.34453 39.3932C9.96534 39.4545 10.5943 39.6441 11.2058 39.9056C11.6224 40.0837 12.0273 40.2861 12.4149 40.5186C12.6098 40.6331 12.8083 40.7395 12.9916 40.8656C13.0856 40.9269 13.1784 40.987 13.2713 41.0472L13.4105 41.1374L13.5439 41.2345C14.2657 41.7423 14.9178 42.3125 15.4899 42.9267C16.6364 44.1597 17.4509 45.5592 18.0915 46.8963C18.4082 47.5694 18.6821 48.2287 18.9316 48.8614C18.9768 48.9782 19.0209 49.095 19.065 49.2107C18.971 49.1991 18.877 49.1899 18.7819 49.1841C18.45 49.1644 18.1147 49.1806 17.7874 49.2489C17.7062 49.2685 17.6238 49.2847 17.5449 49.309C17.466 49.3356 17.3871 49.3622 17.3082 49.39C17.2316 49.4224 17.1562 49.4582 17.0808 49.4929C17.0425 49.5091 17.0065 49.5299 16.9717 49.5519L16.8649 49.6155C16.8301 49.6375 16.793 49.656 16.7605 49.6815L16.663 49.7555C16.5981 49.8052 16.5319 49.8515 16.4751 49.9093C16.417 49.9648 16.3579 50.0192 16.3022 50.0759C16.2511 50.136 16.2 50.1962 16.149 50.2563C16.0956 50.3141 16.0562 50.3812 16.0121 50.4448C15.9703 50.5096 15.9216 50.5698 15.8879 50.638C15.816 50.771 15.7382 50.9006 15.6848 51.037C15.6558 51.1041 15.6268 51.1712 15.5978 51.2383C15.5746 51.3065 15.5514 51.3748 15.5282 51.4419C15.5061 51.5113 15.4795 51.5737 15.462 51.6466C15.4446 51.7195 15.4238 51.79 15.4098 51.8629C15.3518 52.1532 15.3483 52.4528 15.4029 52.7362C15.4562 53.0195 15.5665 53.2867 15.7162 53.518C16.0167 53.9819 16.4809 54.3022 16.9821 54.4087C17.2328 54.4619 17.4962 54.4491 17.7317 54.3693C17.9685 54.2907 18.1727 54.1415 18.3166 53.9657C18.4628 53.7887 18.5545 53.5898 18.6194 53.3954C18.6345 53.3469 18.6519 53.2983 18.6635 53.2509C18.6751 53.2034 18.6856 53.156 18.696 53.1097C18.7204 53.0172 18.7343 52.9224 18.7494 52.831C18.7668 52.7396 18.7691 52.6459 18.7784 52.5557C18.7796 52.5095 18.7784 52.4643 18.7784 52.4192V52.3521L18.7714 52.2851C18.7564 52.1081 18.7123 51.9311 18.6136 51.7854C18.5185 51.6373 18.3618 51.5402 18.2098 51.5066C18.0567 51.4708 17.9093 51.4858 17.7793 51.5194C17.6494 51.5529 17.5345 51.6084 17.437 51.6744C17.3407 51.7403 17.256 51.8132 17.1957 51.8953C17.104 52.0133 17.061 52.1474 17.0645 52.2631C17.032 52.4516 17.104 52.6517 17.2688 52.7743C17.5032 52.9513 17.8373 52.905 18.0137 52.6702C18.1913 52.4366 18.1448 52.1035 17.9093 51.9277C17.7051 51.7738 17.4254 51.7889 17.2397 51.9508C17.2432 51.9473 17.2456 51.9427 17.2502 51.9381C17.3105 51.8664 17.3929 51.8051 17.4857 51.7519C17.5786 51.6975 17.6877 51.6547 17.806 51.6327C17.9232 51.6107 18.052 51.6084 18.1727 51.6454C18.2922 51.6813 18.4013 51.7599 18.4674 51.8779C18.5359 51.9936 18.5661 52.1416 18.5684 52.2978L18.5707 52.3568L18.5672 52.4169C18.5649 52.4574 18.5614 52.4979 18.5591 52.5384C18.5533 52.58 18.5463 52.6205 18.5405 52.6633C18.5347 52.7049 18.5278 52.7477 18.5173 52.7894C18.4384 53.1271 18.3351 53.4972 18.088 53.7656C17.9661 53.8986 17.8083 53.9969 17.632 54.0455C17.4556 54.0929 17.2595 54.0952 17.068 54.0432C16.6839 53.9414 16.3172 53.6638 16.0979 53.2832C15.874 52.905 15.8009 52.4308 15.9158 51.9705C15.9285 51.9126 15.9494 51.8559 15.9657 51.7981C15.9819 51.7403 16.0097 51.6801 16.0318 51.62C16.055 51.5599 16.0782 51.5009 16.1014 51.4407C16.1293 51.3829 16.1571 51.3251 16.185 51.2672C16.236 51.1481 16.3068 51.0417 16.3718 50.9306C16.402 50.8728 16.446 50.8265 16.482 50.7733C16.5215 50.7224 16.5551 50.6669 16.6004 50.623C16.6433 50.5756 16.6862 50.5281 16.7292 50.4807C16.7756 50.4368 16.8243 50.3963 16.8707 50.3535C16.916 50.3084 16.9705 50.2748 17.0216 50.2378L17.0993 50.1823C17.1249 50.1638 17.155 50.1511 17.1829 50.1349L17.2664 50.0886C17.2943 50.0724 17.3221 50.0574 17.3523 50.0458C17.4115 50.0215 17.4718 49.9961 17.531 49.9706C17.5937 49.9521 17.6563 49.9325 17.719 49.914C17.7828 49.8966 17.8489 49.8873 17.9139 49.8723C18.1773 49.826 18.4547 49.8191 18.7366 49.8434C18.9362 49.8596 19.1381 49.8954 19.3412 49.9429C19.434 50.1939 19.5245 50.4391 19.615 50.6762C20.0455 51.8143 20.4505 52.7905 20.8068 53.5724C21.1131 54.3751 21.5088 55.3571 22.082 56.442C22.3721 56.9833 22.7063 57.5501 23.1298 58.1111C23.341 58.391 23.5777 58.6686 23.8493 58.9288C24.1196 59.1902 24.4306 59.4354 24.7961 59.6274C24.9783 59.7234 25.1767 59.8009 25.3868 59.8553C25.5956 59.9108 25.8184 59.9397 26.0424 59.9339C26.2663 59.9293 26.4914 59.8923 26.7084 59.8287C26.8697 59.7778 27.0194 59.7153 27.1679 59.6448C27.306 59.536 27.4615 59.4435 27.6333 59.3695C27.7238 59.3024 27.8096 59.2272 27.8909 59.1428C28.0626 58.9658 28.2053 58.7449 28.2924 58.5008L28.2935 58.4962ZM20.9553 49.7601C20.8752 49.7254 20.7963 49.6919 20.7162 49.6595C20.5619 49.5947 20.4041 49.5404 20.2474 49.4848C20.0885 49.4351 19.9307 49.3842 19.7682 49.3449C19.6997 49.3275 19.6313 49.3113 19.5628 49.2963C19.5013 49.102 19.4375 48.9054 19.3702 48.703C19.1474 48.0518 18.8968 47.3705 18.5997 46.6696C18.2969 45.971 17.9476 45.2538 17.524 44.5414C17.1005 43.8289 16.6015 43.1233 16.0109 42.4594C15.4191 41.7967 14.7368 41.1802 13.9802 40.6354L13.8398 40.5313L13.6936 40.4341C13.5962 40.3694 13.4975 40.3046 13.4001 40.2398C13.2063 40.1056 12.9997 39.9911 12.7955 39.8697C12.3905 39.6245 11.9577 39.4059 11.5075 39.2127C11.4854 39.2035 11.4622 39.1942 11.4402 39.185C11.6502 39.2185 11.8637 39.259 12.0819 39.3087C12.3244 39.3654 12.5704 39.4313 12.8152 39.5123C12.8767 39.532 12.9382 39.5539 12.9997 39.5747C13.0601 39.5979 13.1216 39.6199 13.1831 39.643C13.2434 39.6684 13.3049 39.6904 13.3652 39.7193C13.4267 39.7471 13.4882 39.776 13.5497 39.8038C13.6727 39.8604 13.7981 39.916 13.9234 39.9738C14.0464 40.0362 14.1694 40.1022 14.2935 40.1658C14.3562 40.1982 14.4177 40.2306 14.4804 40.263C14.5442 40.2942 14.6022 40.3335 14.6637 40.3694C14.7855 40.4411 14.9085 40.5139 15.0327 40.5868C15.6953 40.9997 16.2952 41.4635 16.8255 41.947C17.3546 42.4305 17.8188 42.9313 18.204 43.4264C18.2528 43.4877 18.3027 43.5466 18.3502 43.608C18.3955 43.6704 18.4407 43.7317 18.4848 43.7919C18.5719 43.9133 18.6624 44.0301 18.7424 44.1481C18.8213 44.2672 18.8979 44.3841 18.9734 44.4963C19.0105 44.5529 19.0499 44.6073 19.0824 44.664C19.1161 44.7206 19.1497 44.7762 19.1822 44.8305C19.2484 44.9392 19.311 45.0457 19.3725 45.1474C19.4317 45.2504 19.4839 45.3522 19.5373 45.4482C19.5895 45.5453 19.6406 45.6367 19.6881 45.7258C19.7334 45.8148 19.774 45.9016 19.8146 45.9825C19.8773 46.1514 19.9539 46.3376 20.0189 46.5481C20.0537 46.6522 20.0896 46.761 20.1279 46.8731C20.1372 46.9009 20.1465 46.9298 20.1569 46.9587C20.1651 46.9877 20.1743 47.0177 20.1825 47.0466C20.1999 47.1056 20.2184 47.1669 20.2358 47.2282C20.3089 47.4734 20.3879 47.7348 20.4702 48.0113C20.548 48.2889 20.6304 48.5815 20.7162 48.8869C20.7951 49.1668 20.8752 49.4594 20.9588 49.7613L20.9553 49.7601ZM21.9149 53.0681C21.959 53.2081 22.0019 53.3469 22.0484 53.4845C22.0959 53.6221 22.1423 53.7586 22.1888 53.894C22.2352 54.0293 22.2828 54.1634 22.328 54.2965C22.3512 54.3624 22.3744 54.4295 22.3976 54.4954C22.4232 54.5613 22.4475 54.6261 22.4731 54.6909C22.574 54.95 22.6738 55.2033 22.7713 55.4531C22.8711 55.6995 22.9755 55.94 23.0811 56.1737C23.5023 57.1059 23.9827 57.9202 24.5397 58.4823C24.6766 58.6246 24.8217 58.7461 24.9644 58.8525C25.1071 58.9589 25.2545 59.0433 25.3949 59.1127C25.6803 59.2469 25.9507 59.3012 26.1689 59.3128C26.1897 59.314 26.2083 59.3151 26.228 59.3151C26.1596 59.3267 26.0911 59.3359 26.0227 59.3394C25.6861 59.3614 25.352 59.2758 25.0433 59.1312C24.7346 58.9843 24.4503 58.7819 24.1951 58.554C23.9375 58.3273 23.7054 58.0775 23.4919 57.8219C23.066 57.3083 22.7121 56.7728 22.4011 56.2593C21.7838 55.2264 21.3312 54.2768 20.9762 53.4995C20.6721 52.7003 20.3287 51.7079 19.9608 50.5536C19.9098 50.394 19.8587 50.232 19.8065 50.0678C19.8773 50.0909 19.9492 50.1152 20.0212 50.1395C20.1627 50.1939 20.3055 50.2459 20.447 50.3084C20.7046 50.4194 20.9599 50.5432 21.2117 50.6808C21.4229 51.4384 21.655 52.2423 21.9172 53.0704L21.9149 53.0681ZM27.6634 58.2811C27.5648 58.5864 27.3234 58.8363 27.0125 59.0167C26.9869 59.0317 26.9614 59.0456 26.9347 59.0595C26.8419 59.0086 26.7502 58.9554 26.6585 58.8964C26.1816 58.6015 25.7697 58.1816 25.4425 57.6669C25.1988 57.2898 25.0131 56.8839 24.8518 56.4825C24.6894 56.08 24.5559 55.6786 24.426 55.2946C24.2972 54.9106 24.1742 54.5417 24.0488 54.1993C23.9235 53.8569 23.7947 53.5412 23.6613 53.259C23.3979 52.6922 23.1113 52.2712 22.8896 52.004C22.8328 51.9392 22.7817 51.8802 22.7376 51.8305C22.6947 51.7796 22.6518 51.7426 22.6204 51.7091C22.5554 51.6454 22.5218 51.6107 22.5218 51.6107C22.5218 51.6107 22.5508 51.6489 22.6053 51.7218C22.632 51.7588 22.6692 51.8004 22.7051 51.8559C22.7423 51.9103 22.7852 51.9739 22.8328 52.0445C23.0161 52.3336 23.2482 52.7709 23.4524 53.3445C23.5568 53.6302 23.6566 53.9483 23.7553 54.2941C23.8539 54.64 23.9525 55.0124 24.0616 55.4057C24.1718 55.7989 24.2914 56.213 24.448 56.6363C24.6058 57.0597 24.7961 57.4957 25.0619 57.9086C25.2417 58.1897 25.4506 58.45 25.6838 58.6767C25.7442 58.7322 25.801 58.7888 25.8625 58.8409C25.9252 58.8918 25.9878 58.9415 26.0493 58.9913C26.1143 59.0364 26.1793 59.0815 26.2443 59.1266C26.3081 59.1729 26.3754 59.2087 26.4404 59.2492C26.4473 59.2527 26.4532 59.2561 26.4601 59.2608C26.4543 59.2619 26.4497 59.2642 26.4439 59.2654C26.365 59.2608 26.2756 59.2596 26.1758 59.2411C25.967 59.2099 25.7175 59.1335 25.4622 58.9843C25.3357 58.9068 25.2046 58.8178 25.0793 58.7067C24.9539 58.5957 24.8263 58.4719 24.7068 58.3273C24.5861 58.1851 24.4677 58.0278 24.3552 57.8578C24.2426 57.6866 24.1324 57.5038 24.0268 57.3095C23.8145 56.9209 23.6207 56.4871 23.4327 56.0222C23.0556 55.0888 22.7016 54.0408 22.3477 52.9305C22.1354 52.2619 21.9335 51.6096 21.7385 50.985C22.1307 51.2279 22.5137 51.4997 22.8769 51.7981C23.0033 51.9011 23.1217 52.0052 23.2528 52.1208C23.3793 52.233 23.507 52.3441 23.6346 52.4574C23.8887 52.6818 24.1405 52.9108 24.3912 53.1444C25.07 53.7794 25.7128 54.4306 26.2791 55.1096C26.5611 55.4485 26.8256 55.7955 27.0554 56.1506C27.284 56.5056 27.4801 56.8723 27.6031 57.2401C27.7272 57.6068 27.7644 57.9757 27.6646 58.2811H27.6634Z" fill="#B78B49"/>
<path d="M59.7734 41.4598C59.7223 41.1255 59.6028 40.7959 59.4427 40.4836C59.2872 40.1678 59.0528 39.8902 58.8022 39.6404C58.5469 39.3986 58.2556 39.1823 57.9284 39.0193C57.2763 38.6861 56.5127 38.5809 55.791 38.6491C55.5102 38.6746 55.2328 38.722 54.9613 38.7868C54.3765 38.7648 53.7313 38.8076 53.0502 38.9325C52.7949 38.9799 52.535 39.0412 52.2727 39.1176C52.2066 39.1361 52.1416 39.1581 52.0754 39.1777C52.0093 39.1997 51.9443 39.2228 51.877 39.2448C51.812 39.2702 51.7436 39.2934 51.6798 39.3211C51.6159 39.3489 51.551 39.3767 51.4871 39.4044C51.3583 39.4599 51.2272 39.5166 51.0961 39.5733C50.9673 39.6357 50.8385 39.7017 50.7085 39.7676C50.6435 39.8 50.5786 39.8335 50.5136 39.8671C50.4474 39.8995 50.3859 39.9399 50.3221 39.9758C50.1945 40.051 50.0668 40.125 49.938 40.2013C49.2488 40.6316 48.6314 41.1243 48.0977 41.6425C47.5639 42.1595 47.1079 42.6974 46.74 43.2271C46.6936 43.293 46.6449 43.3567 46.6008 43.4214C46.5578 43.4874 46.5161 43.5533 46.4743 43.6181C46.3919 43.7488 46.3072 43.8725 46.2341 43.9986C46.1622 44.1258 46.0914 44.2496 46.0229 44.3687C45.9893 44.4289 45.9533 44.4867 45.9243 44.5468C45.8941 44.607 45.8651 44.666 45.8361 44.7238C45.7781 44.8395 45.7224 44.9517 45.6678 45.0592C45.6156 45.168 45.5715 45.2755 45.5263 45.3761C45.4822 45.4779 45.4392 45.5751 45.3986 45.6676C45.3603 45.7613 45.3278 45.8515 45.2954 45.9371C45.2165 46.1014 45.1225 46.2818 45.0389 46.4877C44.9948 46.5895 44.9496 46.6959 44.902 46.8069C44.8904 46.8347 44.8788 46.8624 44.866 46.8913C44.8556 46.9203 44.844 46.9492 44.8335 46.9781C44.8115 47.0359 44.7894 47.0949 44.7662 47.1551C44.6757 47.3956 44.5782 47.6536 44.4761 47.9242C44.381 48.1983 44.2812 48.4864 44.1768 48.7871C44.0491 49.1641 43.9191 49.562 43.7869 49.9773C43.7172 50.0131 43.6465 50.049 43.578 50.086C42.9816 50.4064 42.406 50.7823 41.8606 51.2218C41.7249 51.3305 41.5879 51.4497 41.4626 51.5572C41.3338 51.6694 41.205 51.7816 41.0751 51.895C40.8163 52.1228 40.5575 52.3553 40.3011 52.5947C39.6049 53.2459 38.9469 53.9202 38.3575 54.6408C38.0639 55.0017 37.7877 55.373 37.5429 55.7662C37.2992 56.1595 37.0834 56.5736 36.9406 57.0281C36.871 57.2548 36.8188 57.4931 36.8083 57.7429C36.7967 57.9905 36.8246 58.2495 36.9116 58.4948C36.9987 58.7388 37.1425 58.9597 37.3131 59.1367C37.3607 59.1864 37.4117 59.2327 37.4628 59.2755C37.6392 59.3738 37.7958 59.4941 37.9316 59.6317C37.9502 59.6259 37.9676 59.6225 37.9861 59.6155C38.1509 59.6988 38.3168 59.7659 38.4955 59.8226C38.7125 59.8862 38.9376 59.9232 39.1616 59.9278C39.3855 59.9348 39.6083 59.9047 39.8172 59.8492C40.0261 59.7937 40.2257 59.7173 40.4078 59.6213C40.7734 59.4293 41.0843 59.1841 41.3547 58.9227C41.6274 58.6613 41.863 58.3849 42.0741 58.105C42.4977 57.544 42.8319 56.9772 43.122 56.4359C43.6952 55.351 44.092 54.369 44.3972 53.5663C44.7546 52.7844 45.1596 51.8082 45.5889 50.6701C45.6794 50.433 45.7699 50.1878 45.8628 49.9368C46.0647 49.8894 46.2678 49.8535 46.4673 49.8373C46.7493 49.813 47.0266 49.82 47.29 49.8662C47.355 49.8813 47.4212 49.8905 47.485 49.9079C47.5477 49.9275 47.6103 49.946 47.673 49.9645C47.7333 49.99 47.7925 50.0143 47.8517 50.0397C47.8818 50.0513 47.9097 50.0663 47.9375 50.0825L48.0211 50.1288C48.0489 50.145 48.0779 50.1577 48.1046 50.1762L48.1824 50.2317C48.2346 50.2687 48.288 50.3023 48.3344 50.3474C48.382 50.3902 48.4307 50.4307 48.476 50.4746C48.5189 50.522 48.5618 50.5695 48.6048 50.6169C48.65 50.662 48.6837 50.7175 48.7231 50.7672C48.7591 50.8205 48.8032 50.8667 48.8333 50.9245C48.8983 51.0356 48.9691 51.142 49.0202 51.2611C49.048 51.319 49.0759 51.3768 49.1037 51.4346C49.1269 51.4948 49.1501 51.5549 49.1733 51.6139C49.1954 51.6729 49.2232 51.7342 49.2395 51.792C49.2557 51.8499 49.2755 51.9065 49.2894 51.9644C49.4043 52.4247 49.3312 52.8989 49.1072 53.2772C48.8879 53.6577 48.5212 53.9353 48.1371 54.0371C47.9445 54.088 47.7496 54.0868 47.5732 54.0394C47.3968 53.9908 47.239 53.8925 47.1171 53.7595C46.87 53.4923 46.7667 53.1222 46.6878 52.7833C46.6774 52.7405 46.6692 52.6988 46.6646 52.6572C46.6588 52.6156 46.6518 52.5739 46.646 52.5323C46.6437 52.4918 46.6402 52.4513 46.6379 52.4108L46.6344 52.3507L46.6368 52.2917C46.6391 52.1356 46.6692 51.9875 46.7377 51.8718C46.8038 51.7539 46.9118 51.6764 47.0324 51.6393C47.1531 51.6023 47.2808 51.6047 47.3991 51.6266C47.5175 51.6486 47.6254 51.6914 47.7194 51.7458C47.8122 51.8001 47.8946 51.8614 47.9549 51.932C47.9584 51.9354 47.9619 51.9401 47.9654 51.9447C47.7797 51.7839 47.5001 51.7677 47.2958 51.9216C47.0615 52.0985 47.015 52.4305 47.1914 52.6641C47.369 52.8978 47.702 52.944 47.9364 52.7682C48.1 52.6445 48.1719 52.4455 48.1406 52.257C48.1441 52.1425 48.1011 52.0072 48.0095 51.8892C47.9491 51.8059 47.8644 51.7342 47.7681 51.6683C47.6707 51.6023 47.5569 51.5468 47.4258 51.5133C47.2958 51.4797 47.1485 51.4647 46.9953 51.5006C46.8433 51.5341 46.6866 51.6313 46.5915 51.7793C46.4929 51.925 46.4476 52.102 46.4337 52.279L46.4267 52.3461V52.4131C46.4267 52.4583 46.4267 52.5034 46.4267 52.5496C46.4372 52.6387 46.4383 52.7335 46.4557 52.8249C46.4708 52.9174 46.4847 53.0111 46.5091 53.1037C46.5196 53.1499 46.5312 53.1973 46.5416 53.2448C46.5544 53.2922 46.5706 53.3408 46.5857 53.3893C46.6507 53.5837 46.7423 53.7814 46.8886 53.9596C47.0336 54.1365 47.2367 54.2857 47.4734 54.3632C47.7101 54.4419 47.9735 54.4558 48.223 54.4026C48.7243 54.2962 49.1884 53.9758 49.489 53.5119C49.6398 53.2806 49.7489 53.0146 49.8023 52.7301C49.8568 52.4467 49.8522 52.1471 49.7953 51.8568C49.7814 51.7839 49.7605 51.7134 49.7431 51.6405C49.7245 51.5676 49.699 51.504 49.6769 51.4358C49.6537 51.3675 49.6305 51.3005 49.6073 51.2322C49.5783 51.1651 49.5493 51.098 49.5203 51.031C49.4669 50.8945 49.3892 50.7649 49.3172 50.6319C49.2836 50.5637 49.2348 50.5035 49.1931 50.4388C49.1478 50.3763 49.1095 50.3092 49.0561 50.2502C49.0051 50.1901 48.954 50.1299 48.903 50.0698C48.8473 50.0131 48.7881 49.9588 48.7301 49.9032C48.6744 49.8454 48.6071 49.798 48.5421 49.7494L48.4446 49.6754C48.4121 49.6511 48.375 49.6314 48.3402 49.6094L48.2334 49.5458C48.1986 49.5239 48.1627 49.503 48.1244 49.4868C48.0489 49.4521 47.9735 49.4163 47.8969 49.3839C47.818 49.3573 47.7391 49.3307 47.6602 49.3029C47.5801 49.2787 47.4989 49.2625 47.4177 49.2428C47.0905 49.1757 46.7551 49.1595 46.4232 49.178C46.3281 49.1838 46.2341 49.1931 46.1401 49.2046C46.1842 49.089 46.2283 48.9721 46.2736 48.8553C46.523 48.2226 46.7969 47.5634 47.1137 46.8902C47.7542 45.552 48.5688 44.1536 49.7152 42.9206C50.2885 42.3064 50.9394 41.7362 51.6612 41.2284L51.7946 41.1313L51.9339 41.0411C52.0267 40.9809 52.1207 40.9196 52.2135 40.8595C52.398 40.7334 52.5965 40.627 52.7902 40.5125C53.1778 40.28 53.5828 40.0776 53.9994 39.8995C54.6109 39.6392 55.2398 39.4484 55.8606 39.3871C56.4802 39.3246 57.0883 39.4067 57.6093 39.6612C57.8704 39.7861 58.1083 39.955 58.3218 40.1504C58.5271 40.3494 58.714 40.5576 58.8416 40.8051C58.9727 41.048 59.076 41.3059 59.1247 41.5789C59.177 41.8496 59.2013 42.1271 59.1828 42.4036C59.1828 42.5424 59.1572 42.6789 59.1433 42.8153C59.1317 42.8836 59.1178 42.9507 59.105 43.0189C59.0934 43.0872 59.0795 43.1542 59.0609 43.2202C59.0435 43.2873 59.0261 43.3532 59.0087 43.4191C58.989 43.485 58.9658 43.5487 58.946 43.6146C58.9066 43.7453 58.8521 43.8702 58.8033 43.9951C58.5956 44.4936 58.3148 44.9482 58.0015 45.3507C57.3737 46.1557 56.5696 46.7456 55.7422 46.9862C55.3303 47.1076 54.9149 47.1389 54.5308 47.0845C54.1467 47.0394 53.7998 46.8994 53.5561 46.6739C53.3101 46.4495 53.1743 46.1488 53.1221 45.8596C53.0676 45.5693 53.0827 45.2906 53.1221 45.0453C53.2057 44.5688 53.3739 44.2184 53.5039 43.9882C53.4006 44.2207 53.4238 44.5006 53.5886 44.718C53.8299 45.0373 54.286 45.1009 54.6062 44.8591C54.9265 44.6185 54.9903 44.164 54.7478 43.8448C54.5064 43.5255 54.0504 43.4619 53.7301 43.7036C53.6779 43.743 53.6327 43.7892 53.5944 43.8378C53.628 43.7858 53.657 43.743 53.6802 43.7106C53.7209 43.6551 53.7406 43.6262 53.7406 43.6262C53.7406 43.6262 53.7174 43.6528 53.6733 43.7048C53.6292 43.7568 53.5654 43.8378 53.4888 43.9477C53.3391 44.1686 53.1325 44.5168 53.0061 45.0211C52.9469 45.272 52.9098 45.5635 52.948 45.8851C52.9852 46.2031 53.114 46.5582 53.3878 46.8416C53.6582 47.1261 54.0562 47.3101 54.4786 47.3841C54.9021 47.4685 55.3709 47.4593 55.8362 47.3471C56.3027 47.236 56.7657 47.0278 57.1997 46.7433C57.6348 46.4599 58.0363 46.0944 58.3983 45.6734C58.7581 45.2501 59.0818 44.7678 59.3313 44.2264C59.3905 44.09 59.4555 43.9535 59.5042 43.8101C59.5297 43.7383 59.5576 43.6678 59.5819 43.5949C59.604 43.5209 59.626 43.448 59.6481 43.3728C59.6713 43.2988 59.6898 43.2236 59.7061 43.1473C59.7223 43.071 59.7409 42.9946 59.756 42.9171C59.7769 42.7598 59.8094 42.6037 59.8163 42.4418C59.8465 42.1202 59.8303 41.7883 59.7734 41.4551V41.4598ZM43.4701 50.9858C43.2751 51.6104 43.0732 52.2628 42.8609 52.9313C42.5058 54.0417 42.1519 55.0896 41.7759 56.023C41.5879 56.488 41.393 56.9217 41.1818 57.3104C41.0762 57.5047 40.9671 57.6886 40.8534 57.8586C40.7397 58.0298 40.6214 58.1859 40.5018 58.3282C40.3823 58.4716 40.2547 58.5954 40.1293 58.7076C40.0029 58.8186 39.8729 58.9077 39.7464 58.9852C39.49 59.1344 39.2405 59.2096 39.0328 59.2419C38.9342 59.2605 38.8437 59.2616 38.7647 59.2662C38.7589 59.2651 38.7543 59.2628 38.7485 59.2616C38.7555 59.2581 38.7613 59.2547 38.7682 59.25C38.8332 59.2096 38.9005 59.1737 38.9643 59.1274C39.0293 59.0823 39.0943 59.0372 39.1593 58.9921C39.2208 58.9424 39.2834 58.8915 39.3461 58.8417C39.4076 58.7897 39.4656 58.733 39.5248 58.6775C39.758 58.4508 39.9669 58.1906 40.1468 57.9095C40.4136 57.4954 40.6039 57.0605 40.7606 56.6372C40.9172 56.2139 41.0368 55.7986 41.147 55.4065C41.2561 55.0133 41.3547 54.6408 41.4533 54.295C41.552 53.9492 41.6518 53.6311 41.7562 53.3454C41.9604 52.7729 42.1925 52.3345 42.3758 52.0453C42.4234 51.9748 42.4664 51.9112 42.5035 51.8568C42.5395 51.8013 42.5766 51.7596 42.6033 51.7226C42.6578 51.6498 42.6868 51.6116 42.6868 51.6116C42.6868 51.6116 42.6532 51.6451 42.5882 51.7099C42.5569 51.7423 42.5139 51.7805 42.471 51.8314C42.4269 51.8811 42.3758 51.9401 42.319 52.0048C42.0985 52.272 41.8107 52.6931 41.5473 53.2598C41.4139 53.542 41.2851 53.8578 41.1598 54.2002C41.0344 54.5425 40.9114 54.9103 40.7826 55.2955C40.6527 55.6795 40.5192 56.082 40.3568 56.4834C40.1943 56.8847 40.0087 57.2907 39.7662 57.6678C39.4389 58.1825 39.027 58.6023 38.5501 58.8973C38.4596 58.9563 38.3667 59.0095 38.2739 59.0604C38.2484 59.0465 38.2217 59.0326 38.1962 59.0176C37.884 58.8371 37.6438 58.5873 37.5452 58.2819C37.4466 57.9766 37.4825 57.6076 37.6067 57.241C37.7297 56.8731 37.9258 56.5065 38.1544 56.1514C38.3841 55.7952 38.6487 55.4493 38.9307 55.1104C39.4981 54.4315 40.1398 53.7814 40.8186 53.1453C41.0693 52.9117 41.3211 52.6826 41.5752 52.4583C41.7028 52.3461 41.8305 52.2339 41.9569 52.1217C42.0892 52.006 42.2064 51.9019 42.3329 51.799C42.6961 51.5006 43.079 51.2299 43.4712 50.9858H43.4701ZM44.7627 50.3057C44.9031 50.2433 45.0459 50.1912 45.1886 50.1369C45.2605 50.1126 45.3313 50.0883 45.4033 50.0652C45.3511 50.2306 45.3 50.3925 45.2489 50.551C44.8811 51.7053 44.5376 52.6977 44.2336 53.4969C43.8785 54.2742 43.426 55.2238 42.8087 56.2567C42.4977 56.7702 42.1438 57.3057 41.7179 57.8193C41.5056 58.0761 41.2723 58.3247 41.0147 58.5514C40.7583 58.7793 40.474 58.9817 40.1665 59.1286C39.8578 59.2732 39.5236 59.3576 39.1871 59.3368C39.1187 59.3322 39.0502 59.3241 38.9817 59.3125C39.0015 59.3125 39.0212 59.3125 39.0409 59.3102C39.2591 59.2986 39.5294 59.2443 39.8149 59.1101C39.9553 59.0395 40.1027 58.9563 40.2454 58.8498C40.3881 58.7434 40.5332 58.622 40.6701 58.4797C41.2271 57.9176 41.7075 57.1033 42.1287 56.1711C42.2343 55.9374 42.3376 55.698 42.4385 55.4505C42.536 55.2018 42.6346 54.9473 42.7367 54.6883C42.7622 54.6235 42.7866 54.5587 42.8121 54.4928C42.8354 54.4269 42.8586 54.3609 42.8818 54.2938C42.9282 54.1608 42.9746 54.0267 43.021 53.8913C43.0674 53.756 43.115 53.6195 43.1614 53.4819C43.2067 53.3442 43.2496 53.2054 43.2949 53.0655C43.5571 52.2373 43.7892 51.4335 44.0004 50.6759C44.2522 50.5382 44.5075 50.4145 44.7651 50.3034L44.7627 50.3057ZM53.7708 39.1823C53.7487 39.1916 53.7255 39.2008 53.7035 39.2101C53.2532 39.4033 52.8204 39.6219 52.4154 39.8671C52.2112 39.9885 52.0047 40.1019 51.8109 40.2372C51.7122 40.302 51.6148 40.3667 51.5173 40.4315L51.3711 40.5287L51.2307 40.6328C50.4741 41.1775 49.7907 41.794 49.2 42.4568C48.6094 43.1207 48.1093 43.8274 47.6869 44.5387C47.2634 45.2512 46.9129 45.9683 46.6112 46.667C46.3142 47.3679 46.0635 48.0491 45.8407 48.7003C45.7734 48.9016 45.7096 49.0994 45.6481 49.2937C45.5796 49.3087 45.5112 49.3249 45.4427 49.3423C45.2803 49.3816 45.1225 49.4325 44.9635 49.4822C44.8068 49.5377 44.649 49.5921 44.4947 49.6569C44.4146 49.6893 44.3346 49.7228 44.2557 49.7575C44.3392 49.4556 44.4193 49.163 44.4982 48.8831C44.584 48.5777 44.6664 48.2851 44.7442 48.0075C44.8266 47.7311 44.9055 47.4697 44.9786 47.2245C44.9971 47.1632 45.0145 47.103 45.0319 47.0429C45.0412 47.0128 45.0494 46.9839 45.0575 46.955C45.0668 46.926 45.076 46.8983 45.0865 46.8694C45.1236 46.756 45.1608 46.6485 45.1956 46.5444C45.2605 46.335 45.3371 46.1488 45.3998 45.9788C45.4404 45.8978 45.4799 45.811 45.5263 45.722C45.5738 45.6341 45.6249 45.5415 45.6771 45.4444C45.7305 45.3484 45.7827 45.2466 45.8419 45.1437C45.9034 45.0419 45.9661 44.9366 46.0322 44.8267C46.0647 44.7724 46.0983 44.7169 46.132 44.6602C46.1656 44.6035 46.2051 44.5492 46.2411 44.4925C46.3153 44.3791 46.3931 44.2635 46.472 44.1443C46.552 44.0252 46.6426 43.9095 46.7296 43.7881C46.7737 43.7279 46.8189 43.6666 46.8642 43.6042C46.9106 43.5429 46.9605 43.4839 47.0104 43.4226C47.3956 42.9275 47.8598 42.4267 48.3889 41.9432C48.9181 41.4598 49.5191 40.996 50.1817 40.583C50.3059 40.5102 50.4289 40.4373 50.5507 40.3656C50.6122 40.3309 50.6714 40.2904 50.734 40.2592C50.7967 40.2268 50.8594 40.1944 50.9209 40.162C51.045 40.0972 51.168 40.0325 51.291 39.97C51.4164 39.9133 51.5417 39.8567 51.6647 39.8C51.7262 39.7722 51.7877 39.7433 51.8492 39.7156C51.9107 39.6866 51.971 39.6647 52.0314 39.6392C52.0929 39.6161 52.1544 39.5929 52.2147 39.571C52.2762 39.5502 52.3377 39.5282 52.3992 39.5085C52.6452 39.4287 52.8912 39.3616 53.1337 39.3049C53.3507 39.2552 53.5654 39.2147 53.7754 39.1812L53.7708 39.1823Z" fill="#B78B49"/>
<path d="M3.31753 34.9989C3.17016 35.2129 2.86614 35.2349 2.69556 35.0394C2.62826 34.9631 2.5598 34.8902 2.49366 34.8289C1.76958 34.2124 0.00348625 33.6491 5.11529e-06 33.6202C-0.00347602 33.5936 1.77074 33.035 2.49366 32.4196C2.55632 32.3618 2.6213 32.2936 2.68396 32.2218C2.85686 32.0264 3.169 32.0449 3.30824 32.267C3.82925 33.1009 5.42477 33.6121 5.42477 33.6318C5.42477 33.6515 3.85478 34.2194 3.31753 34.9989Z" fill="#B78B49"/>
<path d="M7.56916 33.3022C7.00406 33.3022 7.0029 34.1778 7.56916 34.1778C8.13543 34.1778 8.13543 33.3022 7.56916 33.3022Z" fill="#B78B49"/>
<path d="M10.0071 33.3022C9.44198 33.3022 9.44082 34.1778 10.0071 34.1778C10.5734 34.1778 10.5734 33.3022 10.0071 33.3022Z" fill="#B78B49"/>
<path d="M12.5437 33.3022C11.9786 33.3022 11.9774 34.1778 12.5437 34.1778C13.11 34.1778 13.11 33.3022 12.5437 33.3022Z" fill="#B78B49"/>
<path d="M62.6825 34.9989C62.8299 35.2129 63.1339 35.2349 63.3045 35.0394C63.3718 34.9631 63.4402 34.8902 63.5064 34.8289C64.2304 34.2124 65.9965 33.6491 66 33.6202C66.0035 33.5936 64.2304 33.035 63.5064 32.4196C63.4437 32.3618 63.3787 32.2936 63.3161 32.2218C63.1432 32.0264 62.831 32.0449 62.6918 32.267C62.1708 33.1009 60.5753 33.6121 60.5753 33.6318C60.5753 33.6515 62.1452 34.2194 62.6825 34.9989Z" fill="#B78B49"/>
<path d="M58.4877 33.0107C57.9226 33.0107 57.9215 33.8863 58.4877 33.8863C59.054 33.8863 59.054 33.0107 58.4877 33.0107Z" fill="#B78B49"/>
<path d="M56.0486 33.0107C55.4835 33.0107 55.4823 33.8863 56.0486 33.8863C56.6149 33.8863 56.6149 33.0107 56.0486 33.0107Z" fill="#B78B49"/>
<path d="M53.5132 32.9136C52.9481 32.9136 52.9469 33.7892 53.5132 33.7892C54.0795 33.7892 54.0795 32.9136 53.5132 32.9136Z" fill="#B78B49"/>
<path d="M40.9521 41.6712C40.4078 41.9107 39.7545 42.0298 38.9922 42.0298C37.9815 42.0298 37.1797 41.8158 36.589 41.389C35.9984 40.9622 35.612 40.2278 35.4321 39.1856L34.9564 36.5716C34.8021 35.7261 34.6419 35.0448 34.4748 34.5278C34.3077 34.0108 34.0675 33.6014 33.7554 33.2983C33.4421 32.9953 33.029 32.8438 32.5149 32.8438H30.8057V38.878C30.8057 39.5361 30.8521 40.0138 30.9473 40.3133C31.0413 40.6129 31.2211 40.8176 31.4869 40.9275C31.7526 41.0386 32.1808 41.1068 32.7726 41.1322V41.6574C31.8384 41.6065 30.5145 41.581 28.8006 41.581C26.9242 41.581 25.5399 41.6065 24.6487 41.6574V41.1322C25.2313 41.1068 25.656 41.0386 25.9217 40.9275C26.1874 40.8165 26.3696 40.6118 26.4682 40.3133C26.5668 40.0149 26.6156 39.5361 26.6156 38.878V25.8611C26.6156 25.2042 26.5668 24.7253 26.4682 24.4257C26.3696 24.1273 26.1874 23.9214 25.9217 23.8104C25.656 23.6994 25.2324 23.6311 24.6487 23.6057V23.0806C25.5399 23.1315 26.872 23.1569 28.6462 23.1569C29.3483 23.1569 30.128 23.1488 30.9856 23.1315C31.8419 23.1141 32.4384 23.106 32.7726 23.106C35.1885 23.106 37.0091 23.5016 38.2345 24.2916C39.4598 25.0816 40.0725 26.207 40.0725 27.6666C40.0725 28.4439 39.888 29.183 39.5202 29.8828C39.1511 30.5837 38.5257 31.1921 37.6438 31.7079C36.7608 32.225 35.5958 32.5685 34.1476 32.7397H34.1731C35.236 32.8334 36.1075 33.0126 36.7886 33.2775C37.4698 33.5424 38.0035 33.9113 38.3888 34.3856C38.774 34.8598 39.0444 35.4635 39.1987 36.198L39.8033 38.9011C39.9483 39.6101 40.1143 40.1005 40.2976 40.3746C40.4821 40.6476 40.7409 40.7841 41.0751 40.7841C41.2804 40.776 41.4603 40.7239 41.6146 40.6303C41.769 40.5366 41.9407 40.3874 42.1287 40.1815L42.4884 40.5019C42.008 41.0397 41.4963 41.4283 40.9521 41.6678V41.6712ZM34.2428 31.7554C34.7951 31.3795 35.1769 30.8752 35.3869 30.2436C35.5969 29.6121 35.7013 28.851 35.7013 27.9639C35.7013 26.5285 35.4461 25.4447 34.9367 24.7091C34.4272 23.9746 33.5929 23.608 32.4372 23.608C31.9661 23.608 31.6168 23.6693 31.3894 23.7942C31.1619 23.918 31.0076 24.1354 30.9264 24.4477C30.8452 24.76 30.8046 25.2319 30.8046 25.8634V32.3198H31.9359C32.9211 32.3198 33.6904 32.1324 34.2428 31.7565V31.7554Z" fill="#B78B49"/>
</g>
<defs>
<clipPath id="clip0_7_2851">
<rect width="66" height="68" fill="white"/>
</clipPath>
</defs>
</svg>
