<svg width="169" height="156" viewBox="0 0 169 156" fill="none" xmlns="http://www.w3.org/2000/svg">
<g filter="url(#filter0_d_7_2875)">
<path d="M15 0H154V136C154 138.761 151.761 141 149 141H20C17.2386 141 15 138.761 15 136V0Z" fill="white"/>
</g>
<g clip-path="url(#clip0_7_2875)">
<path d="M85.3403 27.4759C85.3066 26.9445 85.2311 26.441 85.1317 25.9753C85.2251 26.0788 85.3245 26.1763 85.4278 26.2659C86.0178 26.7455 86.6734 26.9505 87.2138 27.0281C87.7681 27.1077 88.2608 27.0898 88.7138 27.0361C88.9343 27.0122 89.1409 26.9764 89.3515 26.9366C89.3654 26.9346 89.3813 26.9306 89.3952 26.9266C89.6058 26.8709 89.8164 26.8132 90.023 26.7594C90.8535 26.5047 91.5329 26.1445 92.0574 25.852C92.7567 25.4699 93.3726 25.1116 94.0342 24.9146C94.1991 24.8529 94.368 24.837 94.5388 24.7932L94.7991 24.7375L95.0852 24.7077C95.4686 24.6579 95.852 24.642 96.2454 24.6241C97.0162 24.6121 97.803 24.6639 98.5917 24.8012C99.3188 24.9425 100.145 25.239 100.807 25.5236C100.247 25.0718 99.446 24.64 98.7367 24.3295C97.9659 24.0051 97.1652 23.7544 96.3527 23.5653C95.9414 23.4817 95.5282 23.3942 95.113 23.3424L94.8269 23.3006C94.809 23.2987 94.7911 23.2967 94.7732 23.2947L94.4633 23.2788C94.2388 23.2748 94.0064 23.2469 93.7819 23.2628C92.864 23.2907 91.9978 23.5275 91.221 23.7166C90.617 23.8738 90.0171 24.0151 89.435 24.0728C89.2979 24.0808 89.1628 24.0927 89.0257 24.1066C89.0118 24.1066 88.9999 24.1086 88.986 24.1086C88.8409 24.1106 88.6899 24.1126 88.5469 24.1047C88.2469 24.0967 87.9668 24.0609 87.7621 24.0032C87.5456 23.9514 87.4562 23.8698 87.4482 23.8619C87.4542 23.8539 87.4463 23.8619 87.4522 23.8579C87.4522 23.8579 87.4522 23.8599 87.4502 23.8579C87.4502 23.8519 87.4482 23.8459 87.4443 23.842C87.4324 23.838 87.4363 23.8081 87.4244 23.7982C87.4204 23.7902 87.4125 23.7842 87.4045 23.7763C87.4065 23.7743 87.4105 23.7763 87.4085 23.7743C87.3966 23.7783 87.3688 23.7703 87.3529 23.7425C87.339 23.7106 87.3529 23.641 87.3648 23.5852C87.3648 23.5852 87.3688 23.5534 87.3728 23.5056C87.3787 23.4698 87.3787 23.3584 87.478 23.2967C87.49 23.2867 87.5059 23.2728 87.5218 23.2648L87.5734 23.2529C87.6112 23.2449 87.6549 23.229 87.7045 23.221C87.7959 23.231 87.9151 23.225 88.0363 23.239C88.2648 23.2788 88.539 23.3006 88.7774 23.1912C89.0098 23.0698 89.1191 22.823 89.1071 22.4668C89.0932 22.3056 89.0277 22.1265 88.9422 21.9354C88.9283 21.9056 88.9125 21.8757 88.8946 21.8479C88.8389 21.7623 88.7694 21.6787 88.6979 21.5931C88.6562 21.5434 88.6105 21.4956 88.5648 21.4459C88.5449 21.428 88.5211 21.4101 88.4992 21.3921C88.2827 21.229 88.0462 21.0936 87.788 21.01C87.7363 20.9921 87.6847 20.9782 87.633 20.9623C87.4979 20.9185 87.3648 20.9185 87.2377 20.9046C87.1085 20.8966 86.9834 20.8867 86.8781 20.9046C86.6635 20.9324 86.4708 20.9583 86.3575 21.0001C86.2383 21.0419 86.1708 21.0658 86.1708 21.0658C85.5867 21.2906 85.0642 21.7086 84.7026 22.3036C84.4861 22.6618 84.351 23.0797 84.3073 23.5136C84.202 23.2887 84.1304 23.1633 84.1304 23.1633C84.1304 23.1633 84.0589 23.2887 83.9536 23.5136C83.9099 23.0797 83.7748 22.6618 83.5583 22.3036C83.1987 21.7066 82.6762 21.2906 82.0901 21.0658C82.0901 21.0658 82.0225 21.0419 81.9033 21.0001C81.7881 20.9583 81.5974 20.9304 81.3828 20.9046C81.2775 20.8867 81.1504 20.8966 81.0232 20.9046C80.8941 20.9185 80.763 20.9185 80.6279 20.9623C80.5802 20.9762 80.5325 20.9901 80.4848 21.0061C80.2166 21.0916 79.9703 21.2309 79.7478 21.4041C79.7299 21.418 79.712 21.4319 79.6961 21.4479C79.6504 21.4956 79.6047 21.5454 79.563 21.5951C79.4915 21.6807 79.4219 21.7643 79.3663 21.8499C79.3484 21.8777 79.3325 21.9076 79.3186 21.9374C79.2332 22.1265 79.1676 22.3076 79.1537 22.4688C79.1438 22.825 79.2531 23.0718 79.4835 23.1932C79.7219 23.3007 79.9961 23.2807 80.2246 23.2409C80.3458 23.229 80.463 23.233 80.5564 23.223C80.606 23.231 80.6517 23.2469 80.6875 23.2549L80.7391 23.2668C80.755 23.2748 80.7709 23.2907 80.7828 23.2987C80.8822 23.3584 80.8822 23.4698 80.8881 23.5076C80.8941 23.5554 80.8981 23.5872 80.8981 23.5872C80.908 23.6449 80.9219 23.7146 80.908 23.7444C80.8921 23.7723 80.8643 23.7803 80.8524 23.7763C80.8524 23.7763 80.8544 23.7763 80.8563 23.7783C80.8484 23.7842 80.8424 23.7922 80.8365 23.8002C80.8226 23.8121 80.8265 23.84 80.8166 23.8439C80.8126 23.8479 80.8107 23.8539 80.8087 23.8599C80.8067 23.8619 80.8047 23.8599 80.8067 23.8599C80.8126 23.8638 80.8027 23.8559 80.8107 23.8638C80.8027 23.8718 80.7133 23.9554 80.4968 24.0051C80.2921 24.0609 80.012 24.0967 79.712 24.1066C79.569 24.1146 79.418 24.1126 79.2729 24.1106C79.259 24.1106 79.2471 24.1106 79.2332 24.1086C79.0961 24.0947 78.961 24.0847 78.8239 24.0748C78.2418 24.0171 77.6438 23.8758 77.0379 23.7186C76.2611 23.5295 75.3949 23.2927 74.477 23.2648C74.2525 23.2469 74.0221 23.2748 73.7976 23.2807L73.4876 23.2967C73.4698 23.2967 73.4519 23.2987 73.434 23.3026L73.1479 23.3444C72.7327 23.3962 72.3175 23.4837 71.9062 23.5673C71.0937 23.7564 70.295 24.0071 69.5242 24.3315C68.8129 24.642 68.0143 25.0738 67.452 25.5256C68.1156 25.241 68.9401 24.9425 69.6692 24.8032C70.4599 24.6639 71.2447 24.6121 72.0155 24.6261C72.4069 24.644 72.7923 24.6599 73.1757 24.7096L73.4618 24.7395L73.7221 24.7952C73.8929 24.839 74.0618 24.8569 74.2267 24.9166C74.8883 25.1136 75.5061 25.4718 76.2035 25.8539C76.728 26.1485 77.4074 26.5067 78.2379 26.7614C78.4445 26.8172 78.6551 26.8729 78.8657 26.9286C78.8796 26.9326 78.8955 26.9366 78.9094 26.9386C79.12 26.9784 79.3266 27.0142 79.5451 27.0401C79.9981 27.0938 80.4928 27.1117 81.0451 27.0321C81.5875 26.9545 82.2411 26.7495 82.8331 26.2699C82.9364 26.1803 83.0338 26.0828 83.1272 25.9793C83.0278 26.445 82.9503 26.9485 82.9185 27.4799C82.9066 27.661 82.9007 27.846 82.9007 28.0331C82.9007 28.2202 82.9086 28.3973 82.9185 28.5744C82.9921 29.8123 83.306 30.9108 83.596 31.6889C83.7808 32.1845 84.4821 32.1845 84.6669 31.6889C84.9569 30.9088 85.2688 29.8123 85.3443 28.5744C85.3562 28.3973 85.3622 28.2162 85.3622 28.0331C85.3622 27.85 85.3543 27.661 85.3443 27.4799L85.3403 27.4759Z" fill="#B78B49"/>
<path d="M86.1251 17.8777C86.441 17.6608 86.4728 17.215 86.1847 16.9623C86.0715 16.8648 85.9662 16.7633 85.8748 16.6658C84.9669 15.6011 84.1364 13.004 84.0947 13C84.055 12.996 83.2325 15.6031 82.3265 16.6658C82.2411 16.7573 82.1418 16.8528 82.0365 16.9464C81.7484 17.2011 81.7762 17.6608 82.102 17.8638C83.3298 18.63 84.0828 20.9763 84.1126 20.9763C84.1424 20.9763 84.9788 18.6678 86.1251 17.8777Z" fill="#B78B49"/>
<path d="M75.7545 28.2482C75.6154 28.1029 75.4664 27.9735 75.3134 27.8581C75.0194 27.7308 74.7552 27.5715 74.5168 27.3845C74.2625 27.2611 74.0062 27.1556 73.73 27.068C73.3585 26.9586 72.9731 26.8949 72.5897 26.8869C72.2062 26.875 71.8248 26.9268 71.4672 27.0223C71.1096 27.1178 70.7678 27.2491 70.4559 27.4143C69.8301 27.7447 69.2977 28.1666 68.8348 28.6163C68.3679 29.0661 67.9646 29.5417 67.603 30.0233C66.8779 30.9885 66.3057 31.9637 65.809 32.8951C64.8276 34.7618 64.1481 36.4514 63.6256 37.8325C63.0137 39.1778 62.3204 40.8575 61.5853 42.8157C61.4303 43.2237 61.2753 43.6456 61.1164 44.0774C60.7707 44.159 60.423 44.2207 60.0813 44.2486C59.5986 44.2904 59.1237 44.2784 58.6728 44.1988C58.5615 44.173 58.4483 44.157 58.339 44.1272C58.2317 44.0934 58.1244 44.0615 58.0171 44.0297C57.9138 43.9859 57.8125 43.9441 57.7112 43.9003C57.6595 43.8804 57.6119 43.8545 57.5642 43.8267L57.4211 43.7471C57.3735 43.7192 57.3238 43.6973 57.2781 43.6655L57.145 43.57C57.0556 43.5063 56.9642 43.4486 56.8867 43.371C56.8053 43.2973 56.7218 43.2277 56.6443 43.152C56.5708 43.0704 56.4973 42.9889 56.4238 42.9073C56.3463 42.8296 56.2887 42.7341 56.2212 42.6485C56.1596 42.557 56.0841 42.4774 56.0324 42.3779C55.9212 42.1868 55.8 42.0038 55.7126 41.7988C55.6649 41.6993 55.6172 41.5998 55.5695 41.5003C55.5298 41.3968 55.4901 41.2933 55.4503 41.1918C55.4126 41.0903 55.3649 40.9848 55.3371 40.8853C55.3093 40.7858 55.2755 40.6883 55.2516 40.5888C55.055 39.7967 55.1801 38.9808 55.5636 38.33C55.9391 37.6753 56.5669 37.1977 57.2245 37.0225C57.5542 36.935 57.888 36.937 58.19 37.0186C58.492 37.1021 58.7622 37.2713 58.9708 37.5002C59.3939 37.9599 59.5727 38.5967 59.7058 39.1798C59.7237 39.2534 59.7376 39.3251 59.7456 39.3967C59.7555 39.4684 59.7674 39.54 59.7774 39.6117C59.7813 39.6813 59.7873 39.751 59.7913 39.8206L59.7972 39.9241L59.7933 40.0256C59.7893 40.2943 59.7376 40.549 59.6204 40.748C59.5072 40.951 59.3224 41.0843 59.1158 41.148C58.9092 41.2117 58.6906 41.2077 58.488 41.1699C58.2854 41.1321 58.1006 41.0585 57.9397 40.9649C57.7807 40.8714 57.6377 40.7659 57.5364 40.6445C57.5304 40.6385 57.5244 40.6306 57.5185 40.6226C57.8364 40.8992 58.3152 40.9271 58.6648 40.6624C59.0661 40.3579 59.1456 39.7868 58.8436 39.3848C58.5397 38.9828 57.9695 38.9032 57.5682 39.2057C57.288 39.4186 57.1649 39.7609 57.2185 40.0853C57.2125 40.2843 57.286 40.5152 57.443 40.7181C57.5463 40.8614 57.6913 40.9848 57.8562 41.0983C58.0231 41.2117 58.2178 41.3072 58.4423 41.3649C58.6648 41.4226 58.9171 41.4485 59.1794 41.3868C59.4396 41.3291 59.7078 41.1619 59.8707 40.9072C60.0396 40.6565 60.1171 40.352 60.1409 40.0475L60.1529 39.9321V39.8166C60.1529 39.739 60.1529 39.6614 60.1529 39.5818C60.135 39.4286 60.133 39.2654 60.1032 39.1082C60.0774 38.949 60.0535 38.7878 60.0118 38.6285C59.9939 38.5489 59.9741 38.4673 59.9562 38.3858C59.9343 38.3042 59.9065 38.2206 59.8807 38.137C59.7694 37.8027 59.6125 37.4623 59.3621 37.1559C59.1138 36.8514 58.7661 36.5947 58.3608 36.4613C57.9556 36.326 57.5046 36.3021 57.0774 36.3937C56.2192 36.5768 55.4245 37.128 54.9099 37.926C54.6517 38.3241 54.4649 38.7818 54.3735 39.2713C54.2801 39.7589 54.2881 40.2744 54.3854 40.7739C54.4093 40.8992 54.445 41.0206 54.4748 41.146C54.5066 41.2714 54.5503 41.3809 54.5881 41.4983C54.6278 41.6157 54.6676 41.7311 54.7073 41.8485C54.757 41.964 54.8066 42.0794 54.8563 42.1948C54.9477 42.4296 55.0808 42.6525 55.204 42.8814C55.2616 42.9988 55.345 43.1023 55.4165 43.2137C55.494 43.3212 55.5596 43.4366 55.651 43.5381C55.7384 43.6416 55.8258 43.7451 55.9132 43.8486C56.0086 43.9461 56.1099 44.0396 56.2092 44.1352C56.3046 44.2347 56.4198 44.3163 56.5311 44.3998L56.698 44.5272C56.7536 44.569 56.8172 44.6028 56.8768 44.6406L57.0596 44.7501C57.1192 44.7879 57.1807 44.8237 57.2463 44.8516C57.3754 44.9113 57.5046 44.973 57.6357 45.0287C57.7708 45.0745 57.9059 45.1203 58.041 45.168C58.1781 45.2098 58.3171 45.2377 58.4562 45.2715C59.0165 45.3869 59.5906 45.4148 60.1588 45.3829C60.3217 45.373 60.4827 45.3571 60.6436 45.3372C60.5681 45.5362 60.4926 45.7372 60.4151 45.9382C59.988 47.0268 59.5191 48.1611 58.9767 49.3194C57.8801 51.6219 56.4854 54.0279 54.5225 56.1514C53.5411 57.2081 52.4266 58.1892 51.1908 59.0629L50.9623 59.2301L50.7239 59.3853C50.565 59.4888 50.4041 59.5942 50.2451 59.6977C49.9293 59.9147 49.5895 60.0977 49.2577 60.2948C48.5942 60.6948 47.9008 61.043 47.1876 61.3495C46.1406 61.7973 45.0638 62.1257 44.0009 62.2311C42.94 62.3386 41.899 62.1973 41.007 61.7595C40.5599 61.5445 40.1527 61.254 39.7871 60.9177C39.4355 60.5754 39.1156 60.2172 38.8971 59.7913C38.6726 59.3733 38.4958 58.9296 38.4123 58.4599C38.3229 57.9942 38.2812 57.5166 38.313 57.041C38.313 56.8021 38.3567 56.5673 38.3805 56.3325C38.4004 56.2151 38.4242 56.0996 38.4461 55.9822C38.466 55.8648 38.4898 55.7494 38.5216 55.6359C38.5514 55.5205 38.5812 55.4071 38.611 55.2936C38.6428 55.1802 38.6845 55.0708 38.7183 54.9573C38.7858 54.7324 38.8792 54.5175 38.9626 54.3026C39.3182 53.4448 39.799 52.6627 40.3354 51.9702C41.4103 50.5851 42.787 49.5701 44.2036 49.1562C44.9088 48.9472 45.6201 48.8935 46.2777 48.987C46.9353 49.0646 47.5293 49.3054 47.9465 49.6935C48.3677 50.0796 48.6001 50.597 48.6896 51.0945C48.7829 51.594 48.7571 52.0737 48.6896 52.4956C48.5465 53.3155 48.2564 53.9185 48.0359 54.3145C48.2127 53.9145 48.173 53.4329 47.8909 53.0588C47.4757 52.5095 46.6969 52.4 46.1486 52.816C45.6002 53.2299 45.491 54.012 45.9062 54.5613C46.3194 55.1106 47.1002 55.22 47.6485 54.8041C47.7379 54.7364 47.8154 54.6568 47.881 54.5732C47.8233 54.6628 47.7737 54.7364 47.7339 54.7921C47.6644 54.8877 47.6306 54.9374 47.6306 54.9374C47.6306 54.9374 47.6704 54.8916 47.7459 54.8021C47.8214 54.7125 47.9306 54.5732 48.0618 54.3842C48.318 54.0041 48.6717 53.405 48.8882 52.5374C48.9895 52.1055 49.0531 51.604 48.9876 51.0508C48.924 50.5035 48.7035 49.8925 48.2346 49.4049C47.7717 48.9154 47.0903 48.5989 46.3671 48.4716C45.6419 48.3263 44.8393 48.3422 44.0426 48.5353C43.244 48.7263 42.4513 49.0845 41.7083 49.5741C40.9632 50.0617 40.2758 50.6905 39.656 51.4149C39.0401 52.1433 38.4858 52.9732 38.0587 53.9046C37.9574 54.1394 37.8461 54.3742 37.7627 54.621C37.7189 54.7444 37.6713 54.8658 37.6295 54.9911C37.5918 55.1185 37.5541 55.2439 37.5163 55.3732C37.4766 55.5006 37.4448 55.63 37.417 55.7613C37.3892 55.8927 37.3574 56.024 37.3315 56.1573C37.2958 56.428 37.2402 56.6967 37.2282 56.9753C37.1766 57.5285 37.2044 58.0997 37.3017 58.6728C37.3892 59.248 37.5938 59.8152 37.868 60.3525C38.1342 60.8958 38.5355 61.3734 38.9646 61.8033C39.4017 62.2192 39.9004 62.5913 40.4606 62.8719C41.5771 63.4451 42.8844 63.6262 44.1201 63.5088C44.6009 63.465 45.0757 63.3834 45.5406 63.272C46.5419 63.3098 47.6465 63.2361 48.8127 63.0212C49.2498 62.9396 49.6948 62.8341 50.1438 62.7028C50.2571 62.6709 50.3683 62.6331 50.4816 62.5993C50.5948 62.5615 50.708 62.5237 50.8213 62.4839C50.9325 62.4401 51.0498 62.4003 51.159 62.3525C51.2683 62.3048 51.3796 62.257 51.4888 62.2092C51.7093 62.1137 51.9338 62.0162 52.1583 61.9187C52.3789 61.8112 52.5994 61.6978 52.8219 61.5844C52.9332 61.5286 53.0444 61.4709 53.1557 61.4132C53.2689 61.3575 53.3742 61.2878 53.4835 61.2261C53.702 61.0968 53.9206 60.9694 54.1411 60.8381C55.3212 60.0977 56.3781 59.25 57.292 58.3584C58.2059 57.4688 58.9867 56.5434 59.6164 55.632C59.6959 55.5185 59.7794 55.4091 59.8549 55.2976C59.9284 55.1842 59.9999 55.0708 60.0714 54.9593C60.2125 54.7344 60.3575 54.5215 60.4827 54.3046C60.6058 54.0857 60.727 53.8727 60.8442 53.6677C60.9018 53.5642 60.9634 53.4647 61.0131 53.3613C61.0648 53.2578 61.1144 53.1563 61.1641 53.0568C61.2634 52.8578 61.3588 52.6647 61.4522 52.4796C61.5416 52.2926 61.6171 52.1075 61.6945 51.9344C61.77 51.7592 61.8435 51.5921 61.9131 51.4328C61.9786 51.2717 62.0343 51.1164 62.0899 50.9692C62.225 50.6866 62.3859 50.3761 62.529 50.0219C62.6045 49.8467 62.6819 49.6637 62.7634 49.4726C62.7833 49.4248 62.8031 49.3771 62.825 49.3273C62.8429 49.2776 62.8627 49.2278 62.8806 49.1781C62.9184 49.0786 62.9581 48.9771 62.9958 48.8736C63.1508 48.4596 63.3177 48.0158 63.4925 47.5502C63.6554 47.0785 63.8263 46.583 64.0051 46.0655C64.2236 45.4168 64.4461 44.7322 64.6726 44.0177C64.7918 43.956 64.913 43.8944 65.0302 43.8307C66.0514 43.2794 67.0368 42.6326 67.9706 41.8764C68.203 41.6893 68.4374 41.4843 68.652 41.2993C68.8725 41.1062 69.093 40.9132 69.3156 40.7181C69.7586 40.3261 70.2016 39.9261 70.6407 39.5141C71.8327 38.3937 72.9592 37.2335 73.9684 35.9937C74.4711 35.3727 74.9439 34.7339 75.3631 34.0573C75.7803 33.3806 76.1498 32.6682 76.3942 31.8861C76.5134 31.496 76.6028 31.0861 76.6207 30.6562C76.6406 30.2303 76.5929 29.7845 76.4439 29.3626C76.2949 28.9427 76.0485 28.5626 75.7565 28.2581L75.7545 28.2482ZM63.4627 45.8884C63.3157 46.4138 63.1746 46.9173 63.0415 47.3949C62.9005 47.8706 62.7654 48.3203 62.6402 48.7422C62.6084 48.8477 62.5786 48.9512 62.5488 49.0547C62.5329 49.1064 62.519 49.1562 62.5051 49.2059C62.4892 49.2557 62.4733 49.3034 62.4555 49.3532C62.3919 49.5482 62.3283 49.7333 62.2687 49.9124C62.1574 50.2746 62.0263 50.593 61.919 50.8856C61.8495 51.0249 61.782 51.1741 61.7025 51.3274C61.621 51.4786 61.5336 51.6378 61.4442 51.805C61.3528 51.9702 61.2634 52.1453 61.1621 52.3224C61.0568 52.4976 60.9495 52.6787 60.8363 52.8677C60.7807 52.9612 60.723 53.0568 60.6654 53.1543C60.6078 53.2518 60.5403 53.3453 60.4787 53.4429C60.3515 53.6379 60.2184 53.8369 60.0833 54.0419C59.9462 54.2469 59.7913 54.4459 59.6423 54.6548C59.5668 54.7583 59.4893 54.8638 59.4118 54.9712C59.3323 55.0767 59.2469 55.1782 59.1615 55.2837C58.5019 56.1355 57.7072 56.9972 56.8013 57.829C55.8953 58.6609 54.8662 59.4589 53.7318 60.1694C53.5192 60.2948 53.3086 60.4201 53.1 60.5435C52.9947 60.6032 52.8934 60.6729 52.7861 60.7266C52.6789 60.7823 52.5716 60.8381 52.4663 60.8938C52.2537 61.0052 52.0431 61.1167 51.8325 61.2241C51.618 61.3217 51.4034 61.4192 51.1928 61.5167C51.0875 61.5644 50.9822 61.6142 50.8769 61.662C50.7716 61.7117 50.6683 61.7495 50.565 61.7933C50.4597 61.8331 50.3544 61.8729 50.2511 61.9107C50.1458 61.9466 50.0405 61.9844 49.9352 62.0182C49.514 62.1555 49.0929 62.2709 48.6796 62.3685C48.3081 62.454 47.9406 62.5237 47.581 62.5814C47.6187 62.5655 47.6585 62.5495 47.6962 62.5336C48.467 62.2013 49.2081 61.8252 49.9014 61.4033C50.2511 61.1943 50.6047 60.9993 50.9365 60.7664C51.1054 60.655 51.2723 60.5435 51.4392 60.4321L51.6895 60.2649L51.9299 60.0858C53.2252 59.1485 54.3954 58.0858 55.4066 56.9474C56.4178 55.8051 57.2741 54.5891 57.9973 53.3652C58.7224 52.1393 59.3224 50.9055 59.839 49.7035C60.3476 48.4975 60.7767 47.3253 61.1581 46.2049C61.2734 45.8586 61.3826 45.5183 61.4879 45.1839C61.6051 45.1581 61.7224 45.1302 61.8396 45.1004C62.1177 45.0327 62.3879 44.9451 62.6601 44.8595C62.9283 44.764 63.1985 44.6705 63.4627 44.559C63.5998 44.5033 63.7369 44.4456 63.872 44.3859C63.7289 44.9053 63.5919 45.4088 63.4568 45.8904L63.4627 45.8884ZM64.313 42.8038C63.8819 43.0406 63.4448 43.2535 63.0038 43.4446C62.7634 43.5521 62.519 43.6416 62.2747 43.7351C62.1515 43.7769 62.0303 43.8187 61.9071 43.8585C61.9965 43.5739 62.0839 43.2953 62.1714 43.0227C62.8011 41.0366 63.3892 39.3291 63.9097 37.9539C64.5177 36.6166 65.2925 34.9827 66.3494 33.2055C66.8818 32.3219 67.4878 31.4005 68.2169 30.5169C68.5805 30.0751 68.9798 29.6472 69.4209 29.2572C69.8599 28.8651 70.3467 28.5168 70.8731 28.2641C71.4016 28.0153 71.9738 27.8701 72.5499 27.9059C72.6671 27.9138 72.7844 27.9278 72.9016 27.9477C72.8678 27.9477 72.834 27.9477 72.8002 27.9517C72.4267 27.9716 71.9638 28.0651 71.4751 28.2959C71.2347 28.4173 70.9824 28.5606 70.738 28.7437C70.4937 28.9268 70.2453 29.1358 70.0109 29.3805C69.0573 30.3477 68.2348 31.7488 67.5136 33.3528C67.3328 33.7548 67.156 34.1667 66.9832 34.5926C66.8163 35.0205 66.6474 35.4583 66.4726 35.9041C66.4289 36.0155 66.3872 36.127 66.3434 36.2404C66.3037 36.3539 66.264 36.4673 66.2242 36.5827C66.1448 36.8116 66.0653 37.0424 65.9858 37.2753C65.9064 37.5081 65.8249 37.7429 65.7454 37.9798C65.668 38.2166 65.5945 38.4554 65.517 38.6962C65.068 40.1211 64.6706 41.5042 64.3091 42.8078L64.313 42.8038ZM75.2578 31.5139C75.0472 32.1468 74.7115 32.7776 74.3201 33.3886C73.9267 34.0016 73.4737 34.5966 72.991 35.1797C72.0195 36.3479 70.9208 37.4663 69.7586 38.5609C69.3295 38.9629 68.8983 39.3569 68.4633 39.743C68.2447 39.936 68.0262 40.1291 67.8096 40.3221C67.5832 40.5211 67.3825 40.7002 67.1659 40.8774C66.5441 41.3908 65.8885 41.8565 65.217 42.2764C65.5507 41.2017 65.8964 40.0793 66.26 38.929C66.8679 37.0186 67.4739 35.2155 68.1176 33.6095C68.4394 32.8095 68.7732 32.0632 69.1348 31.3945C69.3156 31.0602 69.5023 30.7438 69.697 30.4512C69.8917 30.1567 70.0943 29.888 70.299 29.6432C70.5036 29.3965 70.7221 29.1835 70.9367 28.9905C71.1533 28.7994 71.3758 28.6462 71.5923 28.5129C72.0314 28.2561 72.4585 28.1268 72.8142 28.0711C72.983 28.0392 73.138 28.0372 73.2731 28.0293C73.283 28.0313 73.291 28.0352 73.3009 28.0372C73.289 28.0432 73.279 28.0492 73.2671 28.0571C73.1559 28.1268 73.0406 28.1885 72.9314 28.2681C72.8201 28.3457 72.7089 28.4233 72.5976 28.5009C72.4923 28.5865 72.385 28.6741 72.2777 28.7596C72.1724 28.8492 72.0731 28.9467 71.9718 29.0422C71.5725 29.4323 71.2149 29.8801 70.9069 30.3637C70.45 31.0761 70.1241 31.8244 69.8559 32.5528C69.5877 33.2811 69.3831 33.9956 69.1944 34.6702C69.0076 35.3469 68.8388 35.9877 68.6699 36.5827C68.501 37.1778 68.3302 37.725 68.1513 38.2166C67.8017 39.2017 67.4043 39.9559 67.0904 40.4535C67.009 40.5749 66.9355 40.6843 66.8719 40.7779C66.8103 40.8734 66.7467 40.945 66.7011 41.0087C66.6077 41.1341 66.558 41.1998 66.558 41.1998C66.558 41.1998 66.6156 41.142 66.7269 41.0306C66.7805 40.9749 66.854 40.9092 66.9275 40.8216C67.003 40.7361 67.0904 40.6346 67.1878 40.5231C67.5653 40.0634 68.058 39.339 68.509 38.3639C68.7374 37.8783 68.958 37.335 69.1725 36.7459C69.3871 36.1568 69.5977 35.524 69.8182 34.8613C70.0407 34.2006 70.2692 33.508 70.5473 32.8175C70.8255 32.1269 71.1433 31.4284 71.5586 30.7796C72.1188 29.894 72.8241 29.1716 73.6406 28.6641C73.7956 28.5626 73.9545 28.4711 74.1135 28.3835C74.1572 28.4074 74.2029 28.4313 74.2466 28.4571C74.781 28.7676 75.1922 29.1975 75.3611 29.7228C75.53 30.2482 75.4684 30.8831 75.2558 31.5139H75.2578Z" fill="#B78B49"/>
<path d="M130.413 56.9675C130.401 56.6889 130.347 56.4202 130.309 56.1496C130.284 56.0162 130.252 55.8849 130.224 55.7536C130.196 55.6222 130.166 55.4909 130.125 55.3655C130.087 55.2381 130.049 55.1108 130.011 54.9834C129.97 54.858 129.922 54.7366 129.878 54.6132C129.795 54.3645 129.684 54.1316 129.582 53.8968C129.155 52.9634 128.601 52.1355 127.985 51.4072C127.365 50.6808 126.678 50.0539 125.933 49.5663C125.192 49.0768 124.399 48.7185 123.598 48.5275C122.8 48.3345 121.997 48.3205 121.274 48.4638C120.549 48.5912 119.869 48.9076 119.406 49.3972C118.938 49.8847 118.717 50.4957 118.653 51.043C118.588 51.5942 118.653 52.0977 118.753 52.5296C118.967 53.3973 119.323 53.9943 119.579 54.3764C119.71 54.5675 119.82 54.7048 119.895 54.7943C119.971 54.8839 120.01 54.9297 120.01 54.9297C120.01 54.9297 119.975 54.8799 119.907 54.7844C119.867 54.7287 119.818 54.655 119.76 54.5655C119.826 54.651 119.903 54.7287 119.993 54.7963C120.541 55.2103 121.322 55.1028 121.735 54.5535C122.148 54.0043 122.041 53.2221 121.492 52.8082C120.944 52.3943 120.163 52.5017 119.75 53.051C119.468 53.4251 119.428 53.9067 119.605 54.3067C119.385 53.9107 119.095 53.3077 118.951 52.4878C118.884 52.0679 118.856 51.5883 118.951 51.0868C119.041 50.5892 119.273 50.0738 119.694 49.6857C120.112 49.2957 120.704 49.0569 121.363 48.9792C122.021 48.8857 122.732 48.9394 123.437 49.1484C124.854 49.5643 126.229 50.5773 127.306 51.9624C127.844 52.655 128.323 53.4371 128.678 54.2948C128.762 54.5117 128.857 54.7247 128.923 54.9496C128.959 55.061 128.998 55.1724 129.03 55.2859C129.06 55.3993 129.09 55.5127 129.119 55.6282C129.153 55.7416 129.175 55.857 129.195 55.9745C129.217 56.0919 129.241 56.2073 129.26 56.3247C129.284 56.5595 129.326 56.7964 129.328 57.0332C129.36 57.5088 129.318 57.9864 129.229 58.4521C129.147 58.9218 128.968 59.3656 128.744 59.7835C128.525 60.2094 128.204 60.5676 127.854 60.9099C127.486 61.2442 127.081 61.5368 126.634 61.7517C125.742 62.1895 124.701 62.3308 123.64 62.2234C122.577 62.1179 121.5 61.7915 120.453 61.3418C119.74 61.0353 119.047 60.687 118.383 60.287C118.05 60.09 117.71 59.9069 117.396 59.69C117.235 59.5845 117.076 59.481 116.917 59.3775L116.679 59.2223L116.45 59.0551C115.214 58.1815 114.098 57.2004 113.118 56.1436C111.156 54.0222 109.761 51.6141 108.664 49.3116C108.122 48.1534 107.653 47.019 107.226 45.9304C107.148 45.7294 107.073 45.5284 106.997 45.3294C107.158 45.3493 107.319 45.3652 107.482 45.3752C108.05 45.409 108.625 45.3811 109.185 45.2637C109.324 45.2299 109.465 45.204 109.6 45.1602C109.735 45.1145 109.87 45.0687 110.005 45.0209C110.136 44.9652 110.266 44.9035 110.395 44.8438C110.46 44.816 110.522 44.7801 110.581 44.7423L110.764 44.6329C110.824 44.5951 110.887 44.5632 110.943 44.5194L111.11 44.3921C111.221 44.3065 111.334 44.2269 111.432 44.1274C111.531 44.0319 111.632 43.9383 111.728 43.8408C111.815 43.7373 111.903 43.6338 111.99 43.5304C112.081 43.4309 112.149 43.3154 112.224 43.206C112.296 43.0945 112.379 42.991 112.437 42.8736C112.56 42.6448 112.693 42.4219 112.785 42.187C112.834 42.0716 112.884 41.9562 112.934 41.8408C112.973 41.7233 113.013 41.6059 113.053 41.4905C113.091 41.3711 113.136 41.2636 113.166 41.1383C113.196 41.0129 113.232 40.8915 113.256 40.7661C113.355 40.2666 113.361 39.7512 113.267 39.2636C113.176 38.776 112.987 38.3163 112.731 37.9183C112.217 37.1202 111.422 36.569 110.564 36.3859C110.134 36.2943 109.683 36.3162 109.28 36.4536C108.875 36.5889 108.525 36.8456 108.279 37.1481C108.029 37.4526 107.872 37.7949 107.76 38.1292C107.735 38.2128 107.705 38.2964 107.685 38.378C107.665 38.4596 107.647 38.5412 107.629 38.6208C107.587 38.78 107.564 38.9432 107.538 39.1004C107.508 39.2576 107.504 39.4188 107.488 39.574C107.486 39.6536 107.488 39.7313 107.488 39.8089V39.9243L107.5 40.0397C107.526 40.3442 107.601 40.6487 107.77 40.8994C107.933 41.1542 108.201 41.3213 108.462 41.3791C108.724 41.4408 108.976 41.4149 109.199 41.3572C109.421 41.2995 109.618 41.2039 109.785 41.0905C109.95 40.9771 110.095 40.8517 110.198 40.7104C110.355 40.5074 110.428 40.2765 110.423 40.0775C110.478 39.7531 110.355 39.4089 110.073 39.1979C109.672 38.8934 109.099 38.973 108.797 39.377C108.493 39.779 108.573 40.3522 108.976 40.6547C109.326 40.9193 109.805 40.8935 110.123 40.6149C110.117 40.6208 110.113 40.6288 110.105 40.6367C110.001 40.7601 109.86 40.8656 109.701 40.9572C109.542 41.0507 109.356 41.1243 109.153 41.1621C108.952 41.1999 108.732 41.2039 108.525 41.1402C108.321 41.0785 108.134 40.9432 108.021 40.7402C107.903 40.5412 107.852 40.2865 107.848 40.0178L107.844 39.9163L107.85 39.8128C107.854 39.7432 107.86 39.6735 107.864 39.6039C107.874 39.5322 107.885 39.4626 107.895 39.389C107.905 39.3173 107.917 39.2437 107.935 39.172C108.07 38.5909 108.247 37.9541 108.67 37.4924C108.879 37.2635 109.149 37.0944 109.451 37.0108C109.753 36.9272 110.089 36.9252 110.417 37.0148C111.074 37.1899 111.702 37.6675 112.077 38.3223C112.461 38.973 112.586 39.787 112.389 40.581C112.368 40.6805 112.332 40.778 112.304 40.8776C112.276 40.9771 112.228 41.0805 112.191 41.184C112.151 41.2875 112.111 41.389 112.071 41.4925C112.024 41.592 111.976 41.6915 111.928 41.791C111.841 41.996 111.72 42.1791 111.609 42.3701C111.557 42.4696 111.481 42.5492 111.42 42.6408C111.352 42.7283 111.295 42.8239 111.217 42.8995C111.144 42.9811 111.07 43.0627 110.997 43.1443C110.917 43.2199 110.834 43.2896 110.754 43.3632C110.677 43.4408 110.583 43.4985 110.494 43.5622L110.361 43.6577C110.317 43.6896 110.266 43.7115 110.218 43.7393L110.075 43.8189C110.027 43.8468 109.979 43.8727 109.928 43.8926C109.827 43.9343 109.723 43.9781 109.622 44.0219C109.515 44.0538 109.407 44.0876 109.3 44.1194C109.191 44.1493 109.078 44.1652 108.966 44.1911C108.515 44.2707 108.04 44.2826 107.558 44.2408C107.216 44.213 106.87 44.1513 106.523 44.0697C106.364 43.6378 106.209 43.2159 106.054 42.8079C105.317 40.8497 104.623 39.17 104.013 37.8247C103.489 36.4436 102.811 34.754 101.83 32.8873C101.333 31.9559 100.761 30.9808 100.036 30.0156C99.6744 29.534 99.2692 29.0564 98.8043 28.6086C98.3414 28.1588 97.8089 27.7369 97.1831 27.4066C96.8712 27.2414 96.5315 27.108 96.1719 27.0145C95.8143 26.919 95.4328 26.8692 95.0494 26.8792C94.6659 26.8871 94.2805 26.9508 93.909 27.0603C93.6011 27.1578 93.319 27.2752 93.0368 27.4165C93.0051 27.4046 92.9753 27.3986 92.9435 27.3886C92.711 27.6255 92.4428 27.8324 92.1408 28.0016C92.0534 28.0772 91.966 28.1548 91.8846 28.2404C91.5905 28.5449 91.3462 28.925 91.1972 29.3449C91.0481 29.7648 91.0005 30.2106 91.0203 30.6385C91.0382 31.0664 91.1276 31.4763 91.2468 31.8684C91.4892 32.6505 91.8607 33.3629 92.2779 34.0396C92.6971 34.7162 93.17 35.355 93.6726 35.9759C94.6799 37.2158 95.8083 38.374 97.0003 39.4964C97.4394 39.9084 97.8824 40.3104 98.3255 40.7004C98.548 40.8955 98.7685 41.0885 98.989 41.2815C99.2016 41.4666 99.436 41.6716 99.6705 41.8587C100.604 42.6149 101.59 43.2617 102.611 43.8129C102.73 43.8766 102.849 43.9403 102.968 44C103.195 44.7145 103.417 45.3991 103.636 46.0478C103.815 46.5653 103.986 47.0608 104.149 47.5324C104.323 48.0001 104.49 48.4419 104.645 48.8559C104.685 48.9593 104.723 49.0608 104.76 49.1603C104.78 49.2101 104.798 49.2599 104.816 49.3096C104.836 49.3574 104.858 49.4071 104.878 49.4549C104.959 49.6459 105.037 49.829 105.112 50.0042C105.255 50.3584 105.416 50.6688 105.551 50.9514C105.607 51.0967 105.664 51.2539 105.728 51.4151C105.797 51.5743 105.871 51.7415 105.946 51.9166C106.024 52.0918 106.099 52.2749 106.189 52.4619C106.28 52.647 106.378 52.84 106.477 53.0391C106.527 53.1386 106.578 53.2401 106.628 53.3435C106.678 53.447 106.739 53.5465 106.797 53.65C106.914 53.857 107.035 54.0699 107.158 54.2868C107.286 54.5038 107.429 54.7167 107.57 54.9416C107.641 55.053 107.713 55.1665 107.786 55.2799C107.862 55.3914 107.943 55.5008 108.025 55.6142C108.654 56.5257 109.435 57.4511 110.349 58.3407C111.263 59.2303 112.32 60.08 113.5 60.8203C113.72 60.9497 113.939 61.0791 114.158 61.2084C114.267 61.2701 114.372 61.3398 114.485 61.3955C114.597 61.4532 114.708 61.5089 114.819 61.5666C115.042 61.6781 115.262 61.7935 115.483 61.901C115.707 61.9985 115.932 62.096 116.152 62.1915C116.263 62.2393 116.373 62.2871 116.482 62.3348C116.591 62.3826 116.708 62.4224 116.82 62.4662C116.933 62.506 117.046 62.5458 117.159 62.5816C117.273 62.6174 117.384 62.6532 117.497 62.6851C117.946 62.8164 118.391 62.9199 118.828 63.0035C119.994 63.2204 121.099 63.2921 122.1 63.2542C122.565 63.3657 123.04 63.4473 123.521 63.4911C124.759 63.6085 126.064 63.4274 127.18 62.8542C127.739 62.5756 128.239 62.2015 128.676 61.7855C129.106 61.3577 129.505 60.8781 129.773 60.3348C130.047 59.7994 130.252 59.2303 130.339 58.6551C130.435 58.084 130.464 57.5108 130.413 56.9576V56.9675ZM100.479 40.8756C100.263 40.6984 100.06 40.5193 99.8354 40.3203C99.6188 40.1273 99.4003 39.9362 99.1817 39.7412C98.7466 39.3551 98.3155 38.9611 97.8864 38.5591C96.7242 37.4665 95.6235 36.3461 94.654 35.1779C94.1713 34.5948 93.7183 33.9978 93.3249 33.3868C92.9335 32.7759 92.5978 32.145 92.3872 31.5121C92.1746 30.8813 92.111 30.2464 92.2819 29.721C92.4508 29.1957 92.864 28.7658 93.3964 28.4553C93.4401 28.4295 93.4839 28.4056 93.5295 28.3817C93.6885 28.4693 93.8454 28.5608 94.0024 28.6623C94.8189 29.1698 95.5242 29.8922 96.0845 30.7778C96.5017 31.4266 96.8195 32.1251 97.0957 32.8157C97.3738 33.5082 97.6023 34.1988 97.8248 34.8595C98.0453 35.5202 98.2559 36.155 98.4705 36.7441C98.6851 37.3332 98.9056 37.8765 99.134 38.3621C99.585 39.3372 100.078 40.0616 100.455 40.5213C100.553 40.6328 100.64 40.7343 100.715 40.8198C100.789 40.9074 100.862 40.9711 100.916 41.0288C101.027 41.1383 101.085 41.198 101.085 41.198C101.085 41.198 101.035 41.1323 100.942 41.0069C100.896 40.9432 100.833 40.8716 100.771 40.7761C100.708 40.6825 100.636 40.5731 100.553 40.4517C100.239 39.9541 99.8413 39.2019 99.4917 38.2148C99.3129 37.7232 99.142 37.176 98.9731 36.5809C98.8043 35.9859 98.6354 35.3451 98.4486 34.6684C98.2599 33.9918 98.0553 33.2793 97.7871 32.551C97.5189 31.8226 97.1911 31.0723 96.7361 30.3619C96.4282 29.8783 96.0725 29.4305 95.6712 29.0404C95.5679 28.9449 95.4706 28.8474 95.3653 28.7578C95.258 28.6703 95.1507 28.5847 95.0454 28.4991C94.9341 28.4215 94.8229 28.3439 94.7116 28.2663C94.6024 28.1867 94.4871 28.125 94.3759 28.0553C94.364 28.0494 94.354 28.0434 94.3421 28.0354C94.352 28.0334 94.36 28.0295 94.3699 28.0275C94.505 28.0354 94.658 28.0374 94.8289 28.0693C95.1865 28.123 95.6136 28.2543 96.0507 28.5111C96.2672 28.6444 96.4917 28.7976 96.7063 28.9887C96.9209 29.1797 97.1394 29.3927 97.344 29.6414C97.5506 29.8862 97.7533 30.1569 97.946 30.4494C98.1387 30.744 98.3274 31.0584 98.5082 31.3927C98.8718 32.0614 99.2036 32.8077 99.5254 33.6077C100.171 35.2137 100.777 37.0168 101.383 38.9273C101.747 40.0775 102.092 41.1999 102.426 42.2746C101.755 41.8567 101.099 41.389 100.477 40.8756H100.479ZM103.33 42.802C102.968 41.4985 102.571 40.1153 102.122 38.6904C102.047 38.4496 101.973 38.2108 101.894 37.974C101.812 37.7372 101.733 37.5023 101.653 37.2695C101.574 37.0367 101.492 36.8058 101.415 36.5769C101.375 36.4635 101.335 36.3481 101.296 36.2346C101.252 36.1212 101.21 36.0098 101.166 35.8983C100.994 35.4525 100.823 35.0167 100.656 34.5868C100.485 34.163 100.306 33.749 100.125 33.347C99.4042 31.743 98.5817 30.342 97.6281 29.3748C97.3937 29.13 97.1454 28.921 96.901 28.7379C96.6566 28.5548 96.4043 28.4096 96.1639 28.2902C95.6752 28.0593 95.2123 27.9658 94.8388 27.9459C94.803 27.9439 94.7712 27.9419 94.7375 27.9419C94.8547 27.922 94.9719 27.9061 95.0891 27.9001C95.6653 27.8623 96.2374 28.0096 96.7659 28.2583C97.2944 28.5111 97.7811 28.8593 98.2182 29.2514C98.6592 29.6414 99.0566 30.0713 99.4221 30.5111C100.151 31.3947 100.757 32.3161 101.29 33.1997C102.347 34.9769 103.121 36.6108 103.729 37.9481C104.25 39.3233 104.838 41.0308 105.468 43.0169C105.555 43.2915 105.643 43.5702 105.732 43.8528C105.611 43.8129 105.488 43.7712 105.364 43.7294C105.122 43.6358 104.878 43.5463 104.635 43.4388C104.194 43.2478 103.757 43.0348 103.326 42.798L103.33 42.802ZM118.963 62.3667C118.548 62.2691 118.127 62.1557 117.706 62.0164C117.601 61.9826 117.495 61.9448 117.39 61.9089C117.287 61.8691 117.181 61.8313 117.076 61.7915C116.973 61.7477 116.867 61.7099 116.764 61.6602C116.659 61.6124 116.554 61.5627 116.448 61.5149C116.238 61.4174 116.023 61.3219 115.808 61.2223C115.598 61.1149 115.387 61.0014 115.175 60.892C115.067 60.8363 114.962 60.7805 114.855 60.7248C114.746 60.6711 114.646 60.6034 114.541 60.5417C114.332 60.4183 114.122 60.293 113.909 60.1676C112.775 59.4571 111.748 58.6591 110.84 57.8272C109.934 56.9954 109.139 56.1337 108.48 55.2819C108.396 55.1764 108.311 55.0749 108.229 54.9695C108.152 54.862 108.074 54.7565 107.999 54.653C107.85 54.4441 107.695 54.2431 107.558 54.0401C107.423 53.8351 107.291 53.6341 107.162 53.4411C107.099 53.3435 107.031 53.25 106.976 53.1525C106.918 53.055 106.86 52.9595 106.805 52.8659C106.691 52.6788 106.584 52.4958 106.479 52.3206C106.378 52.1435 106.288 51.9684 106.197 51.8032C106.107 51.636 106.02 51.4788 105.939 51.3256C105.861 51.1723 105.792 51.0231 105.722 50.8838C105.615 50.5932 105.484 50.2728 105.372 49.9106C105.313 49.7315 105.251 49.5444 105.186 49.3514C105.17 49.3036 105.154 49.2539 105.136 49.2041C105.122 49.1544 105.106 49.1026 105.092 49.0529C105.062 48.9514 105.031 48.8459 105.001 48.7404C104.876 48.3185 104.741 47.8688 104.599 47.3931C104.466 46.9155 104.325 46.412 104.178 45.8866C104.043 45.405 103.906 44.9015 103.763 44.3821C103.9 44.4418 104.035 44.4995 104.172 44.5553C104.437 44.6667 104.707 44.7602 104.975 44.8558C105.247 44.9413 105.517 45.0289 105.795 45.0966C105.913 45.1264 106.03 45.1543 106.147 45.1801C106.252 45.5145 106.362 45.8548 106.477 46.2011C106.858 47.3215 107.288 48.4937 107.796 49.6997C108.315 50.9017 108.913 52.1355 109.638 53.3615C110.363 54.5874 111.217 55.8013 112.228 56.9436C113.242 58.084 114.41 59.1447 115.705 60.082L115.946 60.2611L116.196 60.4283C116.363 60.5397 116.53 60.6512 116.699 60.7626C117.03 60.9935 117.384 61.1905 117.734 61.3995C118.427 61.8214 119.168 62.1975 119.939 62.5298C119.977 62.5458 120.016 62.5617 120.054 62.5776C119.694 62.5199 119.329 62.4502 118.955 62.3647L118.963 62.3667Z" fill="#B78B49"/>
<path d="M85.3403 115.524C85.3066 116.055 85.2311 116.559 85.1317 117.025C85.2251 116.921 85.3245 116.824 85.4278 116.734C86.0178 116.254 86.6734 116.049 87.2138 115.972C87.7681 115.892 88.2608 115.91 88.7138 115.964C88.9343 115.988 89.1409 116.024 89.3515 116.063C89.3654 116.065 89.3813 116.069 89.3952 116.073C89.6058 116.129 89.8164 116.187 90.023 116.241C90.8535 116.495 91.5329 116.855 92.0574 117.15C92.7567 117.532 93.3726 117.89 94.0342 118.087C94.1991 118.149 94.368 118.165 94.5388 118.209L94.7991 118.264L95.0852 118.294C95.4686 118.344 95.852 118.36 96.2454 118.378C97.0162 118.39 97.803 118.338 98.5917 118.201C99.3188 118.059 100.145 117.763 100.807 117.478C100.247 117.93 99.446 118.362 98.7367 118.672C97.9659 118.997 97.1652 119.248 96.3527 119.437C95.9414 119.52 95.5282 119.608 95.113 119.66L94.8269 119.701C94.809 119.703 94.7911 119.705 94.7732 119.707L94.4633 119.723C94.2388 119.727 94.0064 119.757 93.7819 119.739C92.864 119.711 91.9978 119.474 91.221 119.285C90.617 119.128 90.0171 118.987 89.435 118.929C89.2979 118.921 89.1628 118.909 89.0257 118.897C89.0118 118.897 88.9999 118.895 88.986 118.895C88.8409 118.893 88.6899 118.891 88.5469 118.899C88.2469 118.907 87.9668 118.943 87.7621 119.001C87.5456 119.053 87.4562 119.134 87.4482 119.142C87.4542 119.15 87.4463 119.142 87.4522 119.146C87.4522 119.146 87.4522 119.144 87.4502 119.146C87.4502 119.152 87.4482 119.158 87.4443 119.162C87.4324 119.166 87.4363 119.194 87.4244 119.206C87.4204 119.214 87.4125 119.22 87.4045 119.228C87.4065 119.23 87.4105 119.228 87.4085 119.23C87.3966 119.226 87.3688 119.234 87.3529 119.262C87.339 119.293 87.3529 119.363 87.3648 119.419C87.3648 119.419 87.3688 119.451 87.3728 119.498C87.3787 119.534 87.3787 119.646 87.478 119.707C87.49 119.717 87.5059 119.731 87.5218 119.739L87.5734 119.751C87.6112 119.759 87.6549 119.775 87.7045 119.783C87.7959 119.773 87.9151 119.779 88.0363 119.765C88.2648 119.725 88.539 119.703 88.7774 119.813C89.0098 119.934 89.1191 120.181 89.1071 120.537C89.0932 120.698 89.0277 120.877 88.9422 121.069C88.9283 121.098 88.9125 121.128 88.8946 121.156C88.8389 121.242 88.7694 121.325 88.6979 121.411C88.6562 121.461 88.6105 121.508 88.5648 121.558C88.5449 121.576 88.5211 121.594 88.4992 121.612C88.2827 121.775 88.0462 121.91 87.788 121.994C87.7363 122.012 87.6847 122.026 87.633 122.042C87.4979 122.085 87.3648 122.085 87.2377 122.099C87.1085 122.107 86.9834 122.117 86.8781 122.099C86.6635 122.072 86.4708 122.046 86.3575 122.004C86.2383 121.962 86.1708 121.938 86.1708 121.938C85.5867 121.713 85.0642 121.295 84.7026 120.7C84.4861 120.342 84.351 119.924 84.3073 119.49C84.202 119.715 84.1304 119.841 84.1304 119.841C84.1304 119.841 84.0589 119.715 83.9536 119.49C83.9099 119.924 83.7748 120.342 83.5583 120.7C83.1987 121.297 82.6762 121.713 82.0901 121.938C82.0901 121.938 82.0225 121.962 81.9033 122.004C81.7881 122.046 81.5974 122.074 81.3828 122.099C81.2775 122.117 81.1504 122.107 81.0232 122.099C80.8941 122.085 80.763 122.085 80.6279 122.042C80.5802 122.028 80.5325 122.014 80.4848 121.998C80.2166 121.912 79.9703 121.773 79.7478 121.6C79.7299 121.586 79.712 121.572 79.6961 121.556C79.6504 121.508 79.6047 121.459 79.563 121.409C79.4915 121.323 79.4219 121.24 79.3663 121.154C79.3484 121.126 79.3325 121.096 79.3186 121.067C79.2332 120.877 79.1676 120.696 79.1537 120.537C79.1438 120.181 79.2531 119.932 79.4835 119.813C79.7219 119.705 79.9961 119.725 80.2246 119.765C80.3458 119.777 80.463 119.773 80.5564 119.783C80.606 119.775 80.6517 119.759 80.6875 119.751L80.7391 119.739C80.755 119.731 80.7709 119.715 80.7828 119.707C80.8822 119.648 80.8822 119.536 80.8881 119.498C80.8941 119.451 80.8981 119.419 80.8981 119.419C80.908 119.361 80.9219 119.291 80.908 119.262C80.8921 119.234 80.8643 119.226 80.8524 119.23C80.8524 119.23 80.8544 119.23 80.8563 119.228C80.8484 119.222 80.8424 119.214 80.8365 119.206C80.8226 119.194 80.8265 119.166 80.8166 119.162C80.8126 119.158 80.8107 119.152 80.8087 119.146C80.8067 119.144 80.8047 119.146 80.8067 119.146C80.8126 119.142 80.8027 119.15 80.8107 119.142C80.8027 119.134 80.7133 119.051 80.4968 119.001C80.2921 118.945 80.012 118.909 79.712 118.899C79.569 118.891 79.418 118.893 79.2729 118.895C79.259 118.895 79.2471 118.895 79.2332 118.897C79.0961 118.911 78.961 118.921 78.8239 118.929C78.2418 118.987 77.6438 119.128 77.0379 119.285C76.2611 119.474 75.3949 119.711 74.477 119.739C74.2525 119.757 74.0221 119.729 73.7976 119.723L73.4876 119.707C73.4698 119.707 73.4519 119.705 73.434 119.701L73.1479 119.66C72.7327 119.608 72.3175 119.52 71.9062 119.437C71.0937 119.248 70.295 118.997 69.5242 118.672C68.8129 118.362 68.0143 117.93 67.452 117.478C68.1156 117.763 68.9401 118.061 69.6692 118.201C70.4599 118.34 71.2447 118.392 72.0155 118.378C72.4069 118.36 72.7923 118.344 73.1757 118.294L73.4618 118.264L73.7221 118.209C73.8929 118.165 74.0618 118.147 74.2267 118.087C74.8883 117.89 75.5061 117.532 76.2035 117.15C76.728 116.855 77.4074 116.497 78.2379 116.241C78.4445 116.185 78.6551 116.129 78.8657 116.073C78.8796 116.069 78.8955 116.065 78.9094 116.063C79.12 116.024 79.3266 115.988 79.5451 115.962C79.9981 115.908 80.4928 115.89 81.0451 115.97C81.5875 116.048 82.2411 116.252 82.8331 116.732C82.9364 116.822 83.0338 116.919 83.1272 117.023C83.0278 116.557 82.9503 116.053 82.9185 115.522C82.9066 115.341 82.9007 115.156 82.9007 114.969C82.9007 114.782 82.9086 114.605 82.9185 114.428C82.9921 113.19 83.306 112.091 83.596 111.313C83.7808 110.818 84.4821 110.818 84.6669 111.313C84.9569 112.093 85.2688 113.19 85.3443 114.428C85.3562 114.605 85.3622 114.786 85.3622 114.969C85.3622 115.152 85.3543 115.341 85.3443 115.522L85.3403 115.524Z" fill="#B78B49"/>
<path d="M86.1251 125.123C86.441 125.339 86.4728 125.785 86.1847 126.038C86.0715 126.135 85.9662 126.237 85.8748 126.334C84.9669 127.399 84.1384 129.996 84.0947 130C84.055 130.004 83.2325 127.397 82.3265 126.334C82.2411 126.243 82.1418 126.147 82.0365 126.054C81.7484 125.799 81.7762 125.339 82.102 125.136C83.3298 124.37 84.0828 122.024 84.1126 122.024C84.1424 122.024 84.9788 124.332 86.1251 125.123Z" fill="#B78B49"/>
<path d="M76.4419 113.647C76.5909 113.227 76.6386 112.782 76.6187 112.354C76.6008 111.926 76.5114 111.516 76.3922 111.124C76.1499 110.342 75.7783 109.629 75.3611 108.953C74.9419 108.276 74.4691 107.637 73.9665 107.016C72.9592 105.777 71.8308 104.618 70.6387 103.496C70.1997 103.084 69.7566 102.682 69.3136 102.292C69.0911 102.097 68.8706 101.904 68.65 101.711C68.4375 101.526 68.203 101.321 67.9686 101.134C67.0348 100.377 66.0494 99.7306 65.0283 99.1794C64.9091 99.1157 64.7899 99.052 64.6707 98.9923C64.4442 98.2778 64.2217 97.5932 64.0031 96.9445C63.8243 96.427 63.6535 95.9315 63.4906 95.4599C63.3157 94.9922 63.1488 94.5504 62.9939 94.1364C62.9541 94.033 62.9164 93.9315 62.8786 93.832C62.8588 93.7822 62.8409 93.7325 62.823 93.6827C62.8032 93.6349 62.7813 93.5852 62.7614 93.5374C62.68 93.3464 62.6025 93.1633 62.527 92.9882C62.384 92.6339 62.223 92.3235 62.0879 92.0409C62.0323 91.8956 61.9747 91.7384 61.9111 91.5772C61.8416 91.418 61.7681 91.2508 61.6926 91.0757C61.6151 90.9005 61.5396 90.7174 61.4502 90.5304C61.3588 90.3453 61.2615 90.1523 61.1621 89.9532C61.1125 89.8537 61.0608 89.7522 61.0111 89.6488C60.9615 89.5453 60.8999 89.4458 60.8423 89.3423C60.7251 89.1353 60.6039 88.9224 60.4807 88.7055C60.3535 88.4885 60.2105 88.2756 60.0694 88.0507C59.9979 87.9393 59.9264 87.8258 59.8529 87.7124C59.7774 87.601 59.6959 87.4915 59.6145 87.3781C58.9847 86.4666 58.2039 85.5412 57.29 84.6516C56.3762 83.762 55.3192 82.9123 54.1391 82.172C53.9186 82.0426 53.7001 81.9132 53.4815 81.7839C53.3722 81.7222 53.267 81.6525 53.1537 81.5968C53.0425 81.5391 52.9312 81.4834 52.8199 81.4257C52.5974 81.3142 52.3769 81.1988 52.1564 81.0913C51.9319 80.9938 51.7074 80.8963 51.4869 80.8008C51.3756 80.753 51.2663 80.7053 51.1571 80.6575C51.0478 80.6097 50.9306 80.5699 50.8193 80.5261C50.7061 80.4863 50.5928 80.4465 50.4796 80.4107C50.3664 80.3749 50.2551 80.3391 50.1419 80.3072C49.6929 80.1759 49.2478 80.0724 48.8108 79.9888C47.6446 79.7719 46.54 79.7003 45.5387 79.7381C45.0738 79.6266 44.5989 79.545 44.1182 79.5012C42.8804 79.3838 41.5752 79.5649 40.4586 80.1381C39.9004 80.4167 39.3997 80.7908 38.9627 81.2068C38.5335 81.6346 38.1342 82.1142 37.866 82.6575C37.5918 83.1929 37.3872 83.762 37.2998 84.3372C37.2044 84.9083 37.1746 85.4815 37.2263 86.0347C37.2362 86.3134 37.2918 86.582 37.3296 86.8527C37.3554 86.986 37.3872 87.1174 37.415 87.2487C37.4428 87.38 37.4726 87.5114 37.5143 87.6368C37.5521 87.7641 37.5898 87.8915 37.6276 88.0189C37.6693 88.1442 37.717 88.2656 37.7607 88.389C37.8441 88.6378 37.9554 88.8706 38.0567 89.1055C38.4839 90.0388 39.0381 90.8667 39.654 91.5951C40.2739 92.3215 40.9613 92.9483 41.7063 93.4359C42.4473 93.9255 43.24 94.2837 44.0407 94.4748C44.8393 94.6678 45.642 94.6817 46.3651 94.5384C47.0903 94.4111 47.7697 94.0946 48.2326 93.6051C48.7015 93.1175 48.922 92.5065 48.9856 91.9593C49.0512 91.406 48.9856 90.9045 48.8863 90.4727C48.6717 89.605 48.3161 89.008 48.0598 88.6259C47.9287 88.4348 47.8194 88.2975 47.7439 88.2079C47.6684 88.1184 47.6287 88.0726 47.6287 88.0726C47.6287 88.0726 47.6644 88.1224 47.732 88.2179C47.7717 88.2736 47.8214 88.3472 47.879 88.4368C47.8134 88.3512 47.736 88.2736 47.6466 88.2059C47.0982 87.792 46.3174 87.8995 45.9042 88.4487C45.491 88.998 45.5983 89.7801 46.1466 90.1941C46.6949 90.608 47.4757 90.5005 47.8889 89.9513C48.171 89.5771 48.2108 89.0955 48.034 88.6955C48.2545 89.0915 48.5445 89.6945 48.6876 90.5145C48.7551 90.9344 48.783 91.414 48.6876 91.9155C48.5982 92.413 48.3638 92.9284 47.9446 93.3165C47.5274 93.7066 46.9353 93.9454 46.2757 94.023C45.6181 94.1165 44.9069 94.0628 44.2016 93.8538C42.7851 93.4379 41.4103 92.425 40.3335 91.0398C39.7951 90.3473 39.3163 89.5652 38.9607 88.7074C38.8772 88.4905 38.7819 88.2776 38.7163 88.0527C38.6805 87.9413 38.6408 87.8298 38.609 87.7164C38.5792 87.6029 38.5494 87.4895 38.5196 87.3741C38.4858 87.2606 38.464 87.1452 38.4441 87.0278C38.4223 86.9104 38.3984 86.795 38.3786 86.6775C38.3547 86.4427 38.313 86.2059 38.311 85.9691C38.2792 85.4934 38.3209 85.0158 38.4103 84.5501C38.4918 84.0805 38.6706 83.6367 38.8951 83.2187C39.1136 82.7929 39.4355 82.4346 39.7852 82.0924C40.1527 81.758 40.558 81.4655 41.005 81.2505C41.897 80.8127 42.9381 80.6714 43.999 80.7789C45.0618 80.8844 46.1386 81.2107 47.1856 81.6605C47.8989 81.967 48.5922 82.3152 49.2558 82.7153C49.5896 82.9123 49.9293 83.0954 50.2432 83.3123C50.4041 83.4178 50.563 83.5212 50.722 83.6247L50.9604 83.78L51.1889 83.9471C52.4246 84.8208 53.5411 85.8019 54.5206 86.8586C56.4834 88.9801 57.8781 91.3881 58.9748 93.6887C59.5171 94.8469 59.986 95.9813 60.4131 97.0698C60.4906 97.2708 60.5661 97.4718 60.6416 97.6709C60.4807 97.651 60.3198 97.635 60.1569 97.6251C59.5887 97.5913 59.0145 97.6191 58.4542 97.7365C58.3152 97.7704 58.1741 97.7982 58.039 97.84C57.9039 97.8858 57.7688 97.9316 57.6337 97.9793C57.5026 98.035 57.3735 98.0967 57.2443 98.1564C57.1788 98.1843 57.1172 98.2201 57.0576 98.2579L56.8748 98.3674C56.8152 98.4052 56.7516 98.437 56.696 98.4808L56.5291 98.6082C56.4179 98.6938 56.3046 98.7734 56.2073 98.8729C56.1079 98.9684 56.0066 99.0619 55.9113 99.1595C55.8238 99.2629 55.7364 99.3664 55.649 99.4699C55.5576 99.5694 55.4901 99.6848 55.4146 99.7943C55.3431 99.9057 55.2596 100.009 55.202 100.127C55.0788 100.356 54.9457 100.578 54.8543 100.813C54.8047 100.929 54.755 101.044 54.7053 101.16C54.6656 101.277 54.6259 101.394 54.5861 101.51C54.5484 101.629 54.5027 101.737 54.4729 101.862C54.4431 101.987 54.4073 102.109 54.3835 102.234C54.2841 102.734 54.2782 103.249 54.3716 103.737C54.463 104.224 54.6517 104.684 54.908 105.082C55.4225 105.88 56.2172 106.431 57.0755 106.614C57.5046 106.706 57.9556 106.684 58.3589 106.547C58.7642 106.411 59.1138 106.155 59.3602 105.852C59.6105 105.548 59.7675 105.205 59.8787 104.871C59.9045 104.787 59.9343 104.704 59.9542 104.622C59.9741 104.541 59.992 104.459 60.0098 104.379C60.0516 104.22 60.0754 104.057 60.1012 103.9C60.131 103.743 60.135 103.581 60.1509 103.426C60.1529 103.347 60.1509 103.269 60.1509 103.191V103.076L60.139 102.961C60.1132 102.656 60.0377 102.352 59.8688 102.101C59.7059 101.846 59.4377 101.679 59.1774 101.621C58.9152 101.56 58.6629 101.585 58.4403 101.643C58.2178 101.701 58.0211 101.796 57.8543 101.91C57.6894 102.023 57.5443 102.149 57.441 102.29C57.2841 102.493 57.2106 102.724 57.2165 102.923C57.1609 103.247 57.2841 103.591 57.5662 103.802C57.9675 104.107 58.5397 104.027 58.8417 103.623C59.1456 103.221 59.0662 102.648 58.6629 102.346C58.3132 102.081 57.8344 102.107 57.5165 102.385C57.5225 102.379 57.5265 102.371 57.5344 102.364C57.6377 102.24 57.7788 102.135 57.9377 102.043C58.0966 101.95 58.2834 101.876 58.486 101.838C58.6867 101.8 58.9072 101.796 59.1138 101.86C59.3185 101.922 59.5052 102.057 59.6185 102.26C59.7357 102.459 59.7873 102.714 59.7913 102.982L59.7953 103.084L59.7893 103.187C59.7853 103.257 59.7794 103.327 59.7754 103.396C59.7655 103.468 59.7536 103.538 59.7436 103.611C59.7337 103.683 59.7218 103.757 59.7039 103.828C59.5688 104.409 59.392 105.046 58.9688 105.508C58.7602 105.737 58.49 105.906 58.188 105.989C57.886 106.071 57.5503 106.075 57.2225 105.985C56.5649 105.81 55.9371 105.333 55.5616 104.678C55.1782 104.027 55.053 103.211 55.2497 102.419C55.2715 102.32 55.3073 102.222 55.3351 102.123C55.3629 102.023 55.4106 101.92 55.4484 101.816C55.4881 101.713 55.5278 101.611 55.5676 101.508C55.6152 101.408 55.6629 101.309 55.7106 101.209C55.798 101.004 55.9192 100.821 56.0305 100.63C56.0821 100.531 56.1576 100.451 56.2192 100.359C56.2867 100.272 56.3444 100.176 56.4218 100.101C56.4954 100.019 56.5689 99.9376 56.6424 99.856C56.7218 99.7804 56.8053 99.7107 56.8848 99.6371C56.9622 99.5595 57.0556 99.5018 57.143 99.4381L57.2761 99.3425C57.3198 99.3107 57.3715 99.2888 57.4192 99.261L57.5622 99.1813C57.6099 99.1535 57.6576 99.1276 57.7092 99.1077C57.8106 99.0659 57.9139 99.0221 58.0152 98.9784C58.1225 98.9465 58.2297 98.9127 58.337 98.8808C58.4463 98.851 58.5595 98.8351 58.6708 98.8092C59.1218 98.7296 59.5966 98.7176 60.0794 98.7594C60.4211 98.7873 60.7668 98.849 61.1145 98.9306C61.2734 99.3624 61.4284 99.7843 61.5833 100.192C62.3204 102.151 63.0137 103.83 63.6237 105.176C64.1482 106.557 64.8256 108.246 65.8071 110.113C66.3037 111.044 66.8759 112.019 67.6011 112.985C67.9626 113.466 68.3679 113.944 68.8328 114.392C69.2957 114.841 69.8282 115.263 70.454 115.594C70.7659 115.759 71.1056 115.892 71.4652 115.986C71.8228 116.081 72.2043 116.131 72.5877 116.121C72.9711 116.113 73.3565 116.049 73.7281 115.94C74.0042 115.852 74.2605 115.745 74.5148 115.624C74.7512 115.436 75.0174 115.277 75.3115 115.15C75.4664 115.034 75.6134 114.905 75.7525 114.76C76.0466 114.455 76.2909 114.075 76.4399 113.655L76.4419 113.647ZM63.878 98.6162C63.7409 98.5565 63.6058 98.4987 63.4687 98.443C63.2045 98.3316 62.9343 98.238 62.6661 98.1425C62.3939 98.0569 62.1237 97.9694 61.8456 97.9017C61.7283 97.8719 61.6111 97.844 61.4939 97.8181C61.3886 97.4838 61.2793 97.1455 61.1641 96.7972C60.7827 95.6768 60.3535 94.5046 59.8449 93.2986C59.3264 92.0966 58.7284 90.8627 58.0033 89.6368C57.2781 88.4109 56.4238 87.197 55.4126 86.0546C54.3994 84.9143 53.2312 83.8536 51.9359 82.9163L51.6955 82.7371L51.4451 82.57C51.2783 82.4585 51.1094 82.3471 50.9425 82.2356C50.6107 82.0048 50.2571 81.8078 49.9074 81.5988C49.2141 81.1769 48.473 80.8008 47.7022 80.4684C47.6644 80.4525 47.6247 80.4366 47.587 80.4207C47.9465 80.4784 48.3121 80.548 48.6856 80.6336C49.1008 80.7311 49.522 80.8446 49.9412 80.9839C50.0465 81.0177 50.1518 81.0555 50.2571 81.0913C50.3604 81.1311 50.4657 81.1689 50.571 81.2087C50.6743 81.2525 50.7796 81.2903 50.8829 81.3401C50.9882 81.3879 51.0935 81.4376 51.1988 81.4854C51.4094 81.5829 51.6239 81.6784 51.8385 81.7779C52.0491 81.8854 52.2597 81.9988 52.4723 82.1083C52.5796 82.164 52.6848 82.2197 52.7921 82.2754C52.9014 82.3292 53.0007 82.3968 53.106 82.4585C53.3146 82.5819 53.5252 82.7073 53.7378 82.8327C54.8722 83.5431 55.8993 84.3412 56.8073 85.173C57.7132 86.0049 58.5079 86.8666 59.1675 87.7184C59.2509 87.8238 59.3363 87.9253 59.4178 88.0308C59.4953 88.1383 59.5728 88.2438 59.6483 88.3472C59.7973 88.5562 59.9522 88.7572 60.0893 88.9602C60.2244 89.1652 60.3555 89.3662 60.4847 89.5592C60.5482 89.6567 60.6158 89.7503 60.6714 89.8478C60.729 89.9453 60.7866 90.0408 60.8423 90.1343C60.9555 90.3214 61.0628 90.5045 61.1681 90.6796C61.2694 90.8568 61.3588 91.0319 61.4502 91.1971C61.5396 91.3642 61.627 91.5214 61.7085 91.6747C61.786 91.8279 61.8555 91.9772 61.925 92.1165C62.0323 92.407 62.1634 92.7274 62.2747 93.0896C62.3343 93.2688 62.3959 93.4558 62.4614 93.6489C62.4773 93.6966 62.4932 93.7464 62.5111 93.7961C62.525 93.8459 62.5409 93.8976 62.5548 93.9474C62.5846 94.0489 62.6164 94.1544 62.6462 94.2598C62.7714 94.6817 62.9065 95.1315 63.0475 95.6071C63.1806 96.0847 63.3217 96.5882 63.4687 97.1136C63.6038 97.5952 63.7409 98.0987 63.8839 98.6181L63.878 98.6162ZM65.521 104.308C65.5965 104.549 65.67 104.787 65.7494 105.024C65.8309 105.261 65.9104 105.496 65.9898 105.729C66.0693 105.962 66.1508 106.192 66.2282 106.421C66.268 106.535 66.3077 106.65 66.3474 106.764C66.3912 106.877 66.4329 106.989 66.4766 107.1C66.6494 107.546 66.8203 107.982 66.9872 108.411C67.158 108.835 67.3368 109.249 67.5176 109.651C68.2388 111.255 69.0613 112.656 70.0149 113.624C70.2493 113.868 70.4977 114.077 70.742 114.26C70.9864 114.443 71.2387 114.589 71.4791 114.708C71.9678 114.939 72.4307 115.032 72.8042 115.052C72.84 115.054 72.8718 115.056 72.9056 115.056C72.7884 115.076 72.6711 115.092 72.5539 115.098C71.9778 115.136 71.4056 114.989 70.8771 114.74C70.3487 114.487 69.8619 114.139 69.4249 113.747C68.9838 113.357 68.5865 112.927 68.2209 112.487C67.4918 111.604 66.8858 110.682 66.3534 109.799C65.2965 108.021 64.5217 106.388 63.9137 105.05C63.3932 103.675 62.8051 101.967 62.1754 99.9814C62.0879 99.7067 62.0005 99.4281 61.9111 99.1455C62.0323 99.1853 62.1555 99.2271 62.2787 99.2689C62.521 99.3624 62.7654 99.452 63.0078 99.5595C63.4488 99.7505 63.8859 99.9635 64.317 100.2C64.6786 101.504 65.076 102.887 65.5249 104.312L65.521 104.308ZM75.3631 113.277C75.1943 113.803 74.781 114.232 74.2486 114.543C74.2049 114.569 74.1612 114.593 74.1155 114.617C73.9565 114.529 73.7996 114.437 73.6426 114.336C72.8261 113.828 72.1208 113.106 71.5606 112.22C71.1434 111.572 70.8255 110.873 70.5493 110.183C70.2712 109.49 70.0427 108.8 69.8202 108.139C69.5997 107.478 69.3891 106.843 69.1745 106.254C68.96 105.665 68.7394 105.122 68.511 104.636C68.06 103.661 67.5693 102.937 67.1898 102.477C67.0925 102.366 67.005 102.264 66.9295 102.178C66.856 102.091 66.7825 102.027 66.7289 101.969C66.6176 101.86 66.56 101.8 66.56 101.8C66.56 101.8 66.6097 101.866 66.7031 101.991C66.7488 102.055 66.8123 102.127 66.8739 102.222C66.9375 102.316 67.011 102.425 67.0925 102.547C67.4064 103.044 67.8037 103.796 68.1534 104.783C68.3322 105.275 68.503 105.822 68.6719 106.417C68.8408 107.012 69.0096 107.653 69.1964 108.33C69.3851 109.006 69.5898 109.719 69.858 110.447C70.1282 111.176 70.454 111.926 70.9089 112.636C71.2169 113.12 71.5745 113.568 71.9738 113.958C72.0771 114.053 72.1745 114.151 72.2798 114.24C72.387 114.328 72.4943 114.414 72.5996 114.499C72.7109 114.577 72.8221 114.654 72.9334 114.732C73.0426 114.812 73.1579 114.873 73.2691 114.943C73.2811 114.949 73.291 114.955 73.3029 114.963C73.293 114.965 73.285 114.969 73.2751 114.971C73.14 114.963 72.987 114.961 72.8162 114.929C72.4586 114.875 72.0314 114.744 71.5943 114.487C71.3778 114.354 71.1533 114.201 70.9387 114.01C70.7242 113.819 70.5056 113.606 70.301 113.357C70.0944 113.112 69.8917 112.841 69.699 112.549C69.5063 112.254 69.3176 111.94 69.1368 111.606C68.7732 110.937 68.4414 110.191 68.1196 109.391C67.4739 107.785 66.868 105.982 66.262 104.071C65.8984 102.921 65.5528 101.798 65.219 100.724C65.8905 101.142 66.5461 101.609 67.168 102.123C67.3845 102.3 67.5871 102.479 67.8116 102.678C68.0282 102.871 68.2467 103.062 68.4653 103.257C68.9004 103.643 69.3315 104.037 69.7606 104.439C70.9228 105.532 72.0235 106.652 72.993 107.82C73.4758 108.403 73.9287 109 74.3221 109.611C74.7135 110.222 75.0492 110.853 75.2598 111.486C75.4724 112.117 75.536 112.752 75.3651 113.277H75.3631Z" fill="#B78B49"/>
<path d="M130.339 84.3352C130.252 83.7601 130.047 83.1929 129.773 82.6556C129.507 82.1123 129.106 81.6347 128.676 81.2048C128.239 80.7889 127.741 80.4167 127.18 80.1361C126.064 79.563 124.757 79.3819 123.521 79.4993C123.04 79.5431 122.565 79.6247 122.1 79.7361C121.099 79.6983 119.995 79.7719 118.828 79.9869C118.391 80.0685 117.946 80.1739 117.497 80.3053C117.384 80.3371 117.273 80.3749 117.159 80.4088C117.046 80.4466 116.935 80.4864 116.82 80.5242C116.709 80.568 116.591 80.6078 116.482 80.6555C116.373 80.7033 116.261 80.7511 116.152 80.7988C115.932 80.8943 115.707 80.9919 115.483 81.0894C115.262 81.1968 115.042 81.3103 114.819 81.4237C114.708 81.4794 114.597 81.5372 114.485 81.5949C114.372 81.6506 114.267 81.7202 114.158 81.7819C113.939 81.9113 113.72 82.0387 113.5 82.17C112.32 82.9103 111.263 83.7581 110.349 84.6497C109.435 85.5392 108.654 86.4646 108.025 87.3761C107.945 87.4895 107.862 87.599 107.786 87.7104C107.713 87.8239 107.641 87.9373 107.57 88.0488C107.429 88.2736 107.284 88.4866 107.158 88.7035C107.035 88.9224 106.914 89.1354 106.797 89.3403C106.739 89.4438 106.678 89.5433 106.628 89.6468C106.576 89.7503 106.527 89.8518 106.477 89.9513C106.378 90.1503 106.282 90.3433 106.189 90.5284C106.099 90.7155 106.024 90.9006 105.947 91.0737C105.871 91.2488 105.797 91.416 105.728 91.5752C105.662 91.7364 105.607 91.8916 105.551 92.0389C105.416 92.3215 105.255 92.632 105.112 92.9862C105.037 93.1613 104.959 93.3444 104.878 93.5355C104.858 93.5832 104.838 93.631 104.816 93.6807C104.798 93.7305 104.778 93.7803 104.76 93.83C104.723 93.9295 104.685 94.031 104.645 94.1345C104.49 94.5484 104.323 94.9922 104.149 95.4579C103.986 95.9296 103.815 96.4251 103.636 96.9425C103.417 97.5913 103.195 98.2759 102.968 98.9903C102.849 99.052 102.728 99.1137 102.611 99.1774C101.59 99.7287 100.604 100.375 99.6705 101.132C99.438 101.319 99.2036 101.524 98.9891 101.709C98.7685 101.902 98.548 102.095 98.3255 102.29C97.8825 102.682 97.4394 103.082 97.0004 103.494C95.8083 104.614 94.6819 105.775 93.6726 107.014C93.17 107.635 92.6971 108.274 92.278 108.951C91.8607 109.627 91.4912 110.34 91.2469 111.122C91.1276 111.512 91.0382 111.922 91.0204 112.352C91.0005 112.778 91.0482 113.224 91.1972 113.645C91.3462 114.065 91.5925 114.445 91.8846 114.75C91.966 114.836 92.0535 114.915 92.1409 114.989C92.4428 115.158 92.7111 115.365 92.9435 115.602C92.9753 115.592 93.0051 115.586 93.0369 115.574C93.319 115.717 93.6031 115.833 93.909 115.93C94.2806 116.04 94.666 116.103 95.0494 116.111C95.4328 116.123 95.8143 116.071 96.1719 115.976C96.5295 115.88 96.8712 115.749 97.1831 115.584C97.8089 115.253 98.3414 114.832 98.8043 114.382C99.2712 113.932 99.6745 113.456 100.036 112.975C100.761 112.01 101.333 111.034 101.83 110.103C102.811 108.236 103.491 106.547 104.013 105.166C104.625 103.82 105.319 102.141 106.054 100.182C106.209 99.7744 106.364 99.3525 106.523 98.9207C106.868 98.8391 107.216 98.7774 107.558 98.7495C108.04 98.7077 108.515 98.7197 108.966 98.7993C109.078 98.8252 109.191 98.8411 109.3 98.8709C109.407 98.9048 109.515 98.9366 109.622 98.9684C109.725 99.0122 109.827 99.054 109.928 99.0978C109.98 99.1177 110.027 99.1436 110.075 99.1714L110.218 99.251C110.266 99.2789 110.315 99.3008 110.361 99.3326L110.494 99.4282C110.583 99.4918 110.675 99.5496 110.754 99.6272C110.836 99.7008 110.919 99.7705 110.997 99.8461C111.07 99.9277 111.144 100.009 111.217 100.091C111.295 100.168 111.352 100.264 111.42 100.35C111.481 100.441 111.557 100.521 111.609 100.62C111.72 100.811 111.841 100.994 111.928 101.199C111.976 101.299 112.024 101.398 112.072 101.498C112.111 101.601 112.151 101.705 112.191 101.806C112.228 101.908 112.276 102.013 112.304 102.113C112.332 102.212 112.366 102.31 112.389 102.409C112.586 103.201 112.461 104.017 112.077 104.668C111.702 105.323 111.074 105.8 110.417 105.976C110.087 106.063 109.753 106.061 109.451 105.98C109.149 105.896 108.879 105.727 108.67 105.498C108.247 105.038 108.07 104.401 107.935 103.818C107.917 103.745 107.903 103.673 107.895 103.601C107.886 103.53 107.874 103.458 107.864 103.386C107.86 103.317 107.854 103.247 107.85 103.178L107.844 103.074L107.848 102.973C107.852 102.704 107.903 102.449 108.021 102.25C108.134 102.047 108.319 101.914 108.525 101.85C108.732 101.786 108.95 101.79 109.153 101.828C109.356 101.866 109.54 101.94 109.701 102.033C109.86 102.127 110.001 102.232 110.105 102.354C110.111 102.36 110.117 102.368 110.123 102.375C109.805 102.099 109.326 102.071 108.976 102.336C108.575 102.64 108.495 103.211 108.797 103.613C109.101 104.015 109.672 104.095 110.073 103.792C110.353 103.58 110.476 103.237 110.423 102.913C110.429 102.716 110.355 102.483 110.198 102.28C110.095 102.137 109.95 102.013 109.785 101.9C109.618 101.786 109.423 101.691 109.199 101.633C108.976 101.575 108.724 101.55 108.462 101.611C108.201 101.669 107.933 101.836 107.77 102.091C107.601 102.342 107.524 102.646 107.5 102.951L107.488 103.066V103.181C107.488 103.259 107.488 103.337 107.488 103.416C107.506 103.57 107.508 103.733 107.538 103.89C107.564 104.049 107.588 104.21 107.629 104.37C107.647 104.449 107.667 104.531 107.685 104.612C107.707 104.694 107.735 104.778 107.76 104.861C107.872 105.195 108.029 105.536 108.279 105.842C108.527 106.147 108.875 106.403 109.28 106.537C109.685 106.672 110.136 106.696 110.564 106.604C111.422 106.421 112.217 105.87 112.731 105.072C112.989 104.674 113.176 104.216 113.268 103.727C113.361 103.239 113.353 102.724 113.256 102.224C113.232 102.099 113.196 101.977 113.166 101.852C113.134 101.727 113.091 101.617 113.053 101.5C113.013 101.382 112.973 101.267 112.934 101.15C112.884 101.034 112.834 100.919 112.785 100.803C112.693 100.568 112.56 100.346 112.437 100.117C112.379 99.9993 112.296 99.8958 112.225 99.7844C112.147 99.6769 112.081 99.5615 111.99 99.46C111.903 99.3565 111.815 99.253 111.728 99.1495C111.632 99.052 111.531 98.9585 111.432 98.863C111.336 98.7635 111.221 98.6819 111.11 98.5983L110.943 98.4709C110.887 98.4291 110.824 98.3953 110.764 98.3575L110.581 98.248C110.522 98.2102 110.46 98.1744 110.395 98.1465C110.266 98.0868 110.136 98.0251 110.005 97.9694C109.87 97.9236 109.735 97.8779 109.6 97.8301C109.463 97.7883 109.324 97.7605 109.185 97.7266C108.625 97.6112 108.05 97.5833 107.482 97.6152C107.319 97.6251 107.158 97.641 106.997 97.6609C107.073 97.4619 107.148 97.2609 107.226 97.0599C107.653 95.9714 108.122 94.837 108.664 93.6788C109.761 91.3762 111.156 88.9702 113.119 86.8487C114.1 85.792 115.214 84.8109 116.45 83.9372L116.679 83.77L116.917 83.6148C117.076 83.5113 117.237 83.4059 117.396 83.3024C117.712 83.0855 118.052 82.9024 118.383 82.7053C119.047 82.3053 119.74 81.9571 120.453 81.6506C121.5 81.2028 122.577 80.8744 123.64 80.769C124.701 80.6615 125.742 80.8028 126.634 81.2406C127.081 81.4556 127.488 81.7461 127.854 82.0824C128.206 82.4247 128.525 82.783 128.744 83.2088C128.968 83.6268 129.145 84.0706 129.229 84.5402C129.318 85.0059 129.36 85.4835 129.328 85.9592C129.328 86.198 129.284 86.4328 129.261 86.6676C129.241 86.7851 129.217 86.9005 129.195 87.0179C129.175 87.1353 129.151 87.2507 129.119 87.3642C129.09 87.4796 129.06 87.593 129.03 87.7065C128.996 87.8199 128.957 87.9294 128.923 88.0428C128.855 88.2677 128.762 88.4826 128.678 88.6975C128.323 89.5553 127.842 90.3374 127.306 91.0299C126.231 92.415 124.854 93.43 123.437 93.8439C122.732 94.0529 122.021 94.1066 121.363 94.0131C120.706 93.9355 120.112 93.6947 119.695 93.3066C119.273 92.9205 119.041 92.4031 118.951 91.9056C118.858 91.4061 118.884 90.9264 118.951 90.5045C119.095 89.6846 119.383 89.0816 119.605 88.6856C119.428 89.0856 119.468 89.5672 119.75 89.9413C120.163 90.4906 120.944 90.6001 121.492 90.1841C122.041 89.7702 122.15 88.9881 121.735 88.4388C121.322 87.8896 120.541 87.7801 119.993 88.196C119.903 88.2637 119.826 88.3433 119.76 88.4269C119.818 88.3373 119.867 88.2637 119.907 88.208C119.977 88.1124 120.01 88.0627 120.01 88.0627C120.01 88.0627 119.971 88.1085 119.895 88.198C119.82 88.2876 119.71 88.4269 119.579 88.6159C119.323 88.996 118.969 89.5951 118.753 90.4628C118.652 90.8946 118.588 91.3961 118.653 91.9494C118.717 92.4966 118.938 93.1076 119.406 93.5952C119.869 94.0847 120.551 94.4012 121.274 94.5285C121.999 94.6738 122.802 94.6579 123.598 94.4648C124.397 94.2738 125.19 93.9156 125.933 93.426C126.678 92.9384 127.365 92.3096 127.985 91.5852C128.601 90.8568 129.155 90.0269 129.582 89.0956C129.684 88.8607 129.795 88.6259 129.878 88.3791C129.922 88.2557 129.97 88.1343 130.011 88.009C130.049 87.8816 130.087 87.7562 130.125 87.6269C130.164 87.4995 130.196 87.3701 130.224 87.2388C130.252 87.1074 130.284 86.9761 130.31 86.8428C130.345 86.5721 130.401 86.3034 130.413 86.0248C130.464 85.4716 130.437 84.9004 130.339 84.3273V84.3352ZM102.426 100.726C102.092 101.8 101.747 102.923 101.383 104.073C100.775 105.984 100.169 107.787 99.5255 109.393C99.2036 110.193 98.8698 110.939 98.5083 111.608C98.3275 111.942 98.1407 112.258 97.946 112.551C97.7513 112.845 97.5487 113.114 97.3441 113.359C97.1394 113.606 96.9209 113.819 96.7063 114.012C96.4898 114.203 96.2673 114.356 96.0507 114.489C95.6116 114.746 95.1845 114.875 94.8289 114.931C94.66 114.963 94.5051 114.965 94.37 114.973C94.36 114.971 94.3521 114.967 94.3421 114.965C94.3541 114.959 94.364 114.953 94.3759 114.945C94.4872 114.875 94.6024 114.814 94.7117 114.734C94.8229 114.656 94.9342 114.579 95.0454 114.501C95.1507 114.416 95.258 114.328 95.3653 114.242C95.4706 114.153 95.5699 114.055 95.6712 113.96C96.0706 113.57 96.4282 113.122 96.7361 112.638C97.1931 111.926 97.5189 111.178 97.7871 110.449C98.0553 109.721 98.2599 109.007 98.4487 108.332C98.6354 107.655 98.8043 107.014 98.9732 106.419C99.142 105.824 99.3129 105.277 99.4917 104.786C99.8414 103.8 100.239 103.046 100.553 102.549C100.634 102.427 100.708 102.318 100.771 102.224C100.833 102.129 100.896 102.057 100.942 101.993C101.035 101.868 101.085 101.802 101.085 101.802C101.085 101.802 101.027 101.86 100.916 101.972C100.863 102.027 100.789 102.093 100.716 102.18C100.64 102.266 100.553 102.368 100.455 102.479C100.078 102.939 99.5851 103.663 99.1341 104.638C98.9056 105.124 98.6851 105.667 98.4705 106.256C98.256 106.845 98.0454 107.478 97.8248 108.141C97.6023 108.802 97.3739 109.494 97.0957 110.185C96.8176 110.875 96.4997 111.574 96.0845 112.223C95.5242 113.108 94.819 113.831 94.0024 114.338C93.8475 114.439 93.6885 114.531 93.5296 114.619C93.4859 114.595 93.4402 114.571 93.3965 114.545C92.862 114.235 92.4508 113.805 92.2819 113.279C92.1131 112.754 92.1746 112.119 92.3872 111.488C92.5978 110.855 92.9336 110.224 93.3249 109.613C93.7183 109.001 94.1713 108.406 94.6541 107.822C95.6256 106.654 96.7242 105.536 97.8864 104.441C98.3156 104.039 98.7467 103.645 99.1818 103.259C99.4003 103.066 99.6188 102.873 99.8354 102.68C100.062 102.481 100.263 102.302 100.479 102.125C101.101 101.611 101.757 101.146 102.428 100.726H102.426ZM104.639 99.5555C104.88 99.4481 105.124 99.3585 105.368 99.265C105.492 99.2232 105.613 99.1814 105.736 99.1416C105.647 99.4262 105.559 99.7048 105.472 99.9774C104.842 101.964 104.254 103.671 103.733 105.046C103.125 106.384 102.351 108.017 101.294 109.795C100.761 110.678 100.155 111.6 99.4261 112.483C99.0626 112.925 98.6632 113.353 98.2222 113.743C97.7831 114.135 97.2964 114.483 96.7699 114.736C96.2414 114.985 95.6693 115.13 95.0931 115.094C94.9759 115.086 94.8587 115.072 94.7415 115.052C94.7752 115.052 94.809 115.052 94.8428 115.048C95.2163 115.029 95.6792 114.935 96.1679 114.704C96.4083 114.583 96.6606 114.439 96.905 114.256C97.1494 114.073 97.3977 113.864 97.6321 113.62C98.5857 112.652 99.4082 111.251 100.129 109.647C100.31 109.245 100.487 108.833 100.66 108.407C100.827 107.98 100.996 107.542 101.17 107.096C101.214 106.985 101.256 106.873 101.3 106.76C101.339 106.646 101.379 106.533 101.419 106.417C101.498 106.189 101.578 105.958 101.657 105.725C101.737 105.492 101.818 105.257 101.898 105.02C101.975 104.784 102.049 104.545 102.126 104.304C102.575 102.879 102.972 101.496 103.334 100.192C103.765 99.9555 104.202 99.7426 104.643 99.5515L104.639 99.5555ZM120.062 80.4167C120.024 80.4326 119.985 80.4486 119.947 80.4645C119.176 80.7968 118.435 81.173 117.742 81.5949C117.392 81.8038 117.038 81.9989 116.707 82.2317C116.538 82.3431 116.371 82.4546 116.204 82.566L115.954 82.7332L115.713 82.9123C114.418 83.8496 113.248 84.9104 112.236 86.0507C111.225 87.193 110.369 88.409 109.646 89.6329C108.921 90.8588 108.321 92.0926 107.804 93.2947C107.295 94.5007 106.866 95.6728 106.485 96.7933C106.37 97.1395 106.26 97.4798 106.155 97.8142C106.038 97.8401 105.921 97.8679 105.803 97.8978C105.525 97.9654 105.255 98.053 104.983 98.1386C104.715 98.2341 104.445 98.3276 104.18 98.4391C104.043 98.4948 103.906 98.5525 103.771 98.6122C103.914 98.0928 104.051 97.5893 104.186 97.1077C104.333 96.5823 104.474 96.0788 104.607 95.6012C104.749 95.1256 104.884 94.6758 105.009 94.2539C105.041 94.1484 105.07 94.0449 105.1 93.9415C105.116 93.8897 105.13 93.84 105.144 93.7902C105.16 93.7404 105.176 93.6927 105.194 93.6429C105.257 93.4479 105.321 93.2628 105.38 93.0837C105.492 92.7235 105.623 92.4031 105.73 92.1106C105.799 91.9712 105.867 91.822 105.947 91.6688C106.028 91.5175 106.115 91.3583 106.205 91.1911C106.296 91.026 106.386 90.8508 106.487 90.6737C106.592 90.4986 106.699 90.3175 106.813 90.1284C106.868 90.0349 106.926 89.9394 106.984 89.8418C107.041 89.7443 107.109 89.6508 107.17 89.5533C107.297 89.3583 107.431 89.1592 107.566 88.9543C107.703 88.7493 107.858 88.5503 108.007 88.3413C108.082 88.2378 108.16 88.1323 108.237 88.0249C108.317 87.9194 108.402 87.8179 108.488 87.7124C109.147 86.8607 109.942 85.999 110.848 85.1671C111.754 84.3352 112.783 83.5372 113.917 82.8267C114.13 82.7014 114.34 82.576 114.549 82.4526C114.654 82.3929 114.756 82.3232 114.863 82.2695C114.97 82.2138 115.077 82.1581 115.183 82.1023C115.395 81.9909 115.606 81.8795 115.816 81.772C116.031 81.6745 116.246 81.577 116.456 81.4794C116.561 81.4317 116.667 81.3819 116.772 81.3342C116.877 81.2844 116.981 81.2466 117.084 81.2028C117.189 81.163 117.295 81.1232 117.398 81.0854C117.503 81.0496 117.608 81.0118 117.714 80.9779C118.135 80.8406 118.556 80.7252 118.971 80.6277C119.343 80.5421 119.71 80.4724 120.07 80.4147L120.062 80.4167Z" fill="#B78B49"/>
<path d="M33.68 73.2184C33.4277 73.5866 32.9072 73.6244 32.6151 73.2881C32.4999 73.1567 32.3827 73.0313 32.2694 72.9259C31.0297 71.8651 28.006 70.896 28 70.8462C27.994 70.8004 31.0317 69.8392 32.2694 68.7805C32.3767 68.681 32.488 68.5636 32.5953 68.4402C32.8913 68.1038 33.4257 68.1357 33.6641 68.5178C34.5561 69.9527 37.2879 70.8323 37.2879 70.8661C37.2879 70.8999 34.5999 71.8771 33.68 73.2184Z" fill="#B78B49"/>
<path d="M40.9593 70.2988C39.9918 70.2988 39.9898 71.8053 40.9593 71.8053C41.9288 71.8053 41.9288 70.2988 40.9593 70.2988Z" fill="#B78B49"/>
<path d="M45.1334 70.2988C44.1658 70.2988 44.1639 71.8053 45.1334 71.8053C46.1029 71.8053 46.1029 70.2988 45.1334 70.2988Z" fill="#B78B49"/>
<path d="M49.4763 70.2988C48.5088 70.2988 48.5068 71.8053 49.4763 71.8053C50.4458 71.8053 50.4458 70.2988 49.4763 70.2988Z" fill="#B78B49"/>
<path d="M135.32 73.2184C135.572 73.5866 136.093 73.6244 136.385 73.2881C136.5 73.1567 136.617 73.0313 136.731 72.9259C137.97 71.8651 140.994 70.896 141 70.8462C141.006 70.8004 137.97 69.8392 136.731 68.7805C136.623 68.681 136.512 68.5636 136.405 68.4402C136.109 68.1038 135.574 68.1357 135.336 68.5178C134.444 69.9527 131.712 70.8323 131.712 70.8661C131.712 70.8999 134.4 71.8771 135.32 73.2184Z" fill="#B78B49"/>
<path d="M128.138 69.7974C127.171 69.7974 127.169 71.3039 128.138 71.3039C129.108 71.3039 129.108 69.7974 128.138 69.7974Z" fill="#B78B49"/>
<path d="M123.962 69.7974C122.994 69.7974 122.992 71.3039 123.962 71.3039C124.931 71.3039 124.931 69.7974 123.962 69.7974Z" fill="#B78B49"/>
<path d="M119.621 69.6304C118.654 69.6304 118.652 71.1369 119.621 71.1369C120.591 71.1369 120.591 69.6304 119.621 69.6304Z" fill="#B78B49"/>
<path d="M98.1149 84.6993C97.1831 85.1112 96.0646 85.3162 94.7594 85.3162C93.0289 85.3162 91.6561 84.9481 90.6449 84.2137C89.6337 83.4794 88.9721 82.2156 88.6641 80.4226L87.8496 75.9249C87.5854 74.4702 87.3112 73.298 87.0251 72.4084C86.739 71.5189 86.3278 70.8144 85.7933 70.293C85.2569 69.7715 84.5497 69.5108 83.6696 69.5108H80.7431V79.8932C80.7431 81.0256 80.8226 81.8475 80.9855 82.3629C81.1464 82.8784 81.4544 83.2306 81.9093 83.4197C82.3643 83.6107 83.0974 83.7281 84.1106 83.7719V84.6754C82.5113 84.5878 80.2445 84.5441 77.3101 84.5441C74.0976 84.5441 71.7275 84.5878 70.2017 84.6754V83.7719C71.199 83.7281 71.9261 83.6107 72.3811 83.4197C72.836 83.2286 73.148 82.8764 73.3168 82.3629C73.4857 81.8495 73.5691 81.0256 73.5691 79.8932V57.4966C73.5691 56.3662 73.4857 55.5423 73.3168 55.0269C73.148 54.5134 72.836 54.1592 72.3811 53.9682C71.9261 53.7771 71.201 53.6597 70.2017 53.6159V52.7124C71.7275 52.8 74.0082 52.8437 77.0459 52.8437C78.2478 52.8437 79.5829 52.8298 81.0511 52.8C82.5173 52.7701 83.5384 52.7562 84.1106 52.7562C88.2469 52.7562 91.3641 53.4368 93.462 54.796C95.56 56.1553 96.609 58.0916 96.609 60.6032C96.609 61.9405 96.2931 63.2122 95.6633 64.4162C95.0315 65.6222 93.9607 66.669 92.4508 67.5566C90.9389 68.4461 88.9443 69.0372 86.4649 69.3317H86.5086C88.3284 69.4929 89.8204 69.8014 90.9866 70.2571C92.1528 70.7129 93.0667 71.3477 93.7263 72.1636C94.3859 72.9796 94.8488 74.0184 95.113 75.2821L96.1481 79.933C96.3964 81.1529 96.6805 81.9967 96.9944 82.4684C97.3103 82.9381 97.7533 83.1729 98.3255 83.1729C98.6772 83.159 98.9851 83.0694 99.2493 82.9082C99.5136 82.747 99.8076 82.4903 100.129 82.136L100.745 82.6873C99.9228 83.6127 99.0467 84.2814 98.1149 84.6933V84.6993ZM86.6278 67.6382C87.5734 66.9914 88.2271 66.1237 88.5867 65.0371C88.9463 63.9505 89.1251 62.641 89.1251 61.1146C89.1251 58.6449 88.688 56.7802 87.8158 55.5145C86.9436 54.2508 85.5152 53.6199 83.5364 53.6199C82.7298 53.6199 82.1318 53.7254 81.7425 53.9403C81.3531 54.1532 81.0888 54.5274 80.9498 55.0647C80.8107 55.602 80.7411 56.414 80.7411 57.5006V68.6093H82.6782C84.3649 68.6093 85.6821 68.2869 86.6278 67.6401V67.6382Z" fill="#B78B49"/>
</g>
<defs>
<filter id="filter0_d_7_2875" x="0" y="-15" width="169" height="171" filterUnits="userSpaceOnUse" color-interpolation-filters="sRGB">
<feFlood flood-opacity="0" result="BackgroundImageFix"/>
<feColorMatrix in="SourceAlpha" type="matrix" values="0 0 0 0 0 0 0 0 0 0 0 0 0 0 0 0 0 0 127 0" result="hardAlpha"/>
<feOffset/>
<feGaussianBlur stdDeviation="7.5"/>
<feComposite in2="hardAlpha" operator="out"/>
<feColorMatrix type="matrix" values="0 0 0 0 0 0 0 0 0 0 0 0 0 0 0 0 0 0 0.06 0"/>
<feBlend mode="normal" in2="BackgroundImageFix" result="effect1_dropShadow_7_2875"/>
<feBlend mode="normal" in="SourceGraphic" in2="effect1_dropShadow_7_2875" result="shape"/>
</filter>
<clipPath id="clip0_7_2875">
<rect width="113" height="117" fill="white" transform="translate(28 13)"/>
</clipPath>
</defs>
</svg>
