<svg width="14" height="14" viewBox="0 0 14 14" fill="none" xmlns="http://www.w3.org/2000/svg">
<path d="M13.1572 2.02807C12.6129 1.48372 11.8891 1.18393 11.1193 1.18393C10.3497 1.18393 9.62622 1.48353 9.08195 2.02755C9.08179 2.02771 9.08157 2.02788 9.0814 2.02804L4.99108 6.11839L2.95198 8.15751C2.31016 8.79934 2.31016 9.84368 2.95198 10.4855C3.2629 10.7964 3.67627 10.9677 4.11598 10.9677C4.55569 10.9677 4.96906 10.7964 5.27998 10.4855L11.0089 4.75657C11.1691 4.59636 11.1691 4.33661 11.0089 4.1764C10.8487 4.01618 10.5889 4.01618 10.4287 4.1764L4.6998 9.9053C4.54385 10.0612 4.3365 10.1471 4.11598 10.1471C3.89546 10.1471 3.68811 10.0612 3.53216 9.9053C3.37621 9.74935 3.29033 9.542 3.29033 9.32148C3.29033 9.10096 3.37621 8.89359 3.53216 8.73766L5.57126 6.69854L9.6612 2.6086C9.66133 2.60846 9.66147 2.60836 9.66161 2.60822C10.051 2.21886 10.5686 2.00441 11.1193 2.00441C11.67 2.00441 12.1877 2.21883 12.5771 2.60822C13.3807 3.4119 13.3808 4.71957 12.5773 5.52339C12.5772 5.52347 12.5771 5.52355 12.577 5.52364L6.44758 11.6531C5.16193 12.9387 3.07 12.9387 1.78435 11.6531C0.498703 10.3674 0.498703 8.2755 1.78435 6.98985L7.51328 1.26095C7.6735 1.10073 7.6735 0.840988 7.51328 0.680771C7.35309 0.520554 7.09332 0.520554 6.9331 0.680771L1.20417 6.4097C-0.401391 8.01526 -0.401391 10.6277 1.20417 12.2333C1.98196 13.0111 3.01604 13.4394 4.11595 13.4394C5.21589 13.4394 6.24998 13.0111 7.02776 12.2333L13.1568 6.10423C13.1569 6.10409 13.1571 6.10398 13.1572 6.10384C14.2809 4.98013 14.2809 3.15175 13.1572 2.02807Z" fill="black"/>
</svg>
