<svg width="14" height="14" viewBox="0 0 14 14" fill="none" xmlns="http://www.w3.org/2000/svg">
<g clip-path="url(#clip0_1_64)">
<path d="M7 0C3.14018 0 0 3.14018 0 7C0 10.8598 3.14018 14 7 14C10.8598 14 14 10.8598 14 7C14 3.14018 10.8598 0 7 0ZM10.1746 7.96619H6.86197C6.8553 7.96619 6.84884 7.9654 6.84225 7.96521C6.83566 7.96545 6.82921 7.96619 6.82254 7.96619C6.49584 7.96619 6.23098 7.70134 6.23098 7.37464V2.56339C6.23098 2.23669 6.49584 1.97184 6.82254 1.97184C7.14924 1.97184 7.41409 2.23669 7.41409 2.56339V6.78311H10.1747C10.5014 6.78311 10.7662 7.04796 10.7662 7.37466C10.7662 7.70137 10.5013 7.96619 10.1746 7.96619Z" fill="#8C755E"/>
</g>
<defs>
<clipPath id="clip0_1_64">
<rect width="14" height="14" fill="white"/>
</clipPath>
</defs>
</svg>
