<svg viewBox="0 0 300 14" fill="none" xmlns="http://www.w3.org/2000/svg">
<g clip-path="url(#clip0_7_2591)">
<path d="M293.342 6.47021H1.63908V7.52944H293.342V6.47021Z" fill="#8C755E"/>
<path d="M149.52 3.07224L147.488 0L145.456 3.07224C145.029 3.71927 145.112 4.58679 145.655 5.13797L147.488 7.0024L149.321 5.13797C149.864 4.58679 149.947 3.71927 149.52 3.07224Z" fill="#8C755E"/>
<path d="M145.456 10.9277L147.488 14L149.52 10.9277C149.947 10.2807 149.864 9.41317 149.321 8.86199L147.488 6.99756L145.655 8.86199C145.112 9.41317 145.029 10.2807 145.456 10.9277Z" fill="#8C755E"/>
<path d="M140.166 3.68071L137.266 6.62833L135.762 5.09461C135.418 4.74473 134.933 4.78787 134.628 5.20006C134.075 5.94775 134.603 7.00697 135.53 7.00697C134.603 7.00697 134.07 8.0662 134.628 8.81389C134.933 9.22607 135.418 9.26921 135.762 8.91933L137.266 7.38561L140.166 10.3332C140.907 11.0905 142.086 11.172 142.925 10.5249L147.488 7.01176L142.925 3.49858C142.086 2.85155 140.907 2.93782 140.166 3.6903V3.68071Z" fill="#8C755E"/>
<path d="M159.451 7.00263C160.445 7.00263 160.945 5.79962 160.252 5.09027C159.907 4.74039 159.422 4.78353 159.117 5.19571L157.904 6.82529L154.811 3.68116C154.069 2.92389 152.89 2.84241 152.051 3.48945L147.488 7.00263L152.051 10.5158C152.89 11.1628 154.069 11.0766 154.811 10.3241L157.904 7.17996L159.117 8.80954C159.422 9.22173 159.907 9.26487 160.252 8.91499C160.95 8.20564 160.445 7.00263 159.451 7.00263Z" fill="#8C755E"/>
<path d="M185.861 5.07088L184.867 3.56592L183.873 5.07088C183.664 5.38721 183.703 5.81378 183.97 6.08218L184.872 6.99762L185.774 6.08218C186.04 5.81378 186.079 5.38721 185.871 5.07088H185.861Z" fill="#8C755E"/>
<path d="M183.868 8.92918L184.862 10.4341L185.856 8.92918C186.065 8.61285 186.026 8.18628 185.759 7.91788L184.857 7.00244L183.955 7.91788C183.688 8.18628 183.65 8.61285 183.858 8.92918H183.868Z" fill="#8C755E"/>
<path d="M188.455 5.37301C188.092 5.00396 187.515 4.96083 187.102 5.27716L184.862 7.00259L187.102 8.72803C187.515 9.04436 188.092 9.00602 188.455 8.63217L190.06 7.00259L188.455 5.37301Z" fill="#8C755E"/>
<path d="M181.269 5.37266L179.663 7.00224L181.269 8.63182C181.632 9.00087 182.209 9.04401 182.622 8.72768L184.862 7.00224L182.622 5.27681C182.209 4.96048 181.632 4.99882 181.269 5.37266Z" fill="#8C755E"/>
<path d="M111.113 5.07088L110.119 3.56592L109.125 5.07088C108.916 5.38721 108.955 5.81378 109.222 6.08218L110.124 6.99762L111.026 6.08218C111.293 5.81378 111.331 5.38721 111.123 5.07088H111.113Z" fill="#8C755E"/>
<path d="M109.12 8.92918L110.114 10.4341L111.108 8.92918C111.317 8.61285 111.278 8.18628 111.011 7.91788L110.109 7.00244L109.207 7.91788C108.941 8.18628 108.902 8.61285 109.11 8.92918H109.12Z" fill="#8C755E"/>
<path d="M112.355 5.27716L110.114 7.00259L112.355 8.72803C112.767 9.04436 113.344 9.00602 113.707 8.63217L115.313 7.00259L113.707 5.37301C113.344 5.00396 112.767 4.96083 112.355 5.27716Z" fill="#8C755E"/>
<path d="M106.521 5.37266L104.916 7.00224L106.521 8.63182C106.884 9.00087 107.462 9.04401 107.874 8.72768L110.114 7.00224L107.874 5.27681C107.462 4.96048 106.884 4.99882 106.521 5.37266Z" fill="#8C755E"/>
<path d="M294.016 7.18473L296.887 3.31688C297.541 2.43499 298.574 2.33913 299.311 3.09161C300.8 4.61096 299.728 7.18473 297.604 7.18473H294.021H294.016Z" fill="#8C755E"/>
<path d="M294.016 7.18457L296.887 11.0524C297.541 11.9343 298.574 12.0302 299.311 11.2777C300.8 9.75835 299.728 7.18457 297.604 7.18457H294.021H294.016Z" fill="#8C755E"/>
<path d="M5.98904 7.18473L3.11822 3.31688C2.46356 2.43499 1.43065 2.33913 0.693549 3.09161C-0.7952 4.61096 0.276505 7.18473 2.40052 7.18473H5.98419H5.98904Z" fill="#8C755E"/>
<path d="M5.98904 7.18457L3.11822 11.0524C2.46356 11.9343 1.43065 12.0302 0.693549 11.2777C-0.7952 9.75835 0.276505 7.18457 2.40052 7.18457H5.98419H5.98904Z" fill="#8C755E"/>
</g>
<defs>
<clipPath id="clip0_7_2591">
<rect width="300" height="14" fill="white"/>
</clipPath>
</defs>
</svg>
