<svg  viewBox="0 0 619 30" fill="none" xmlns="http://www.w3.org/2000/svg">
<g clip-path="url(#clip0_3_2025)">
<path d="M604.91 13.5H3.38V15.71H604.91V13.5Z" fill="#8C755E"/>
<path d="M308.33 6.41L304.14 0L299.95 6.41C299.07 7.76 299.24 9.57 300.36 10.72L304.14 14.61L307.92 10.72C309.04 9.57 309.21 7.76 308.33 6.41Z" fill="#8C755E"/>
<path d="M299.95 22.8001L304.14 29.2101L308.33 22.8001C309.21 21.4501 309.04 19.6401 307.92 18.4901L304.14 14.6001L300.36 18.4901C299.24 19.6401 299.07 21.4501 299.95 22.8001Z" fill="#8C755E"/>
<path d="M289.04 7.67983L283.06 13.8298L279.96 10.6298C279.25 9.89983 278.25 9.98983 277.62 10.8498C276.48 12.4098 277.57 14.6198 279.48 14.6198C277.57 14.6198 276.47 16.8298 277.62 18.3898C278.25 19.2498 279.25 19.3398 279.96 18.6098L283.06 15.4098L289.04 21.5598C290.57 23.1398 293 23.3098 294.73 21.9598L304.14 14.6298L294.73 7.29983C293 5.94983 290.57 6.12983 289.04 7.69983V7.67983Z" fill="#8C755E"/>
<path d="M328.81 14.6102C330.86 14.6102 331.89 12.1002 330.46 10.6202C329.75 9.89023 328.75 9.98023 328.12 10.8402L325.62 14.2402L319.24 7.68023C317.71 6.10023 315.28 5.93023 313.55 7.28023L304.14 14.6102L313.55 21.9402C315.28 23.2902 317.71 23.1102 319.24 21.5402L325.62 14.9802L328.12 18.3802C328.75 19.2402 329.75 19.3302 330.46 18.6002C331.9 17.1202 330.86 14.6102 328.81 14.6102Z" fill="#8C755E"/>
<path d="M383.27 10.5799L381.22 7.43994L379.17 10.5799C378.74 11.2399 378.82 12.1299 379.37 12.6899L381.23 14.5999L383.09 12.6899C383.64 12.1299 383.72 11.2399 383.29 10.5799H383.27Z" fill="#8C755E"/>
<path d="M379.16 18.6299L381.21 21.7699L383.26 18.6299C383.69 17.9699 383.61 17.0799 383.06 16.5199L381.2 14.6099L379.34 16.5199C378.79 17.0799 378.71 17.9699 379.14 18.6299H379.16Z" fill="#8C755E"/>
<path d="M388.62 11.2101C387.87 10.4401 386.68 10.3501 385.83 11.0101L381.21 14.6101L385.83 18.2101C386.68 18.8701 387.87 18.7901 388.62 18.0101L391.93 14.6101L388.62 11.2101Z" fill="#8C755E"/>
<path d="M373.8 11.21L370.49 14.61L373.8 18.01C374.55 18.78 375.74 18.87 376.59 18.21L381.21 14.61L376.59 11.01C375.74 10.35 374.55 10.43 373.8 11.21Z" fill="#8C755E"/>
<path d="M229.13 10.5799L227.08 7.43994L225.03 10.5799C224.6 11.2399 224.68 12.1299 225.23 12.6899L227.09 14.5999L228.95 12.6899C229.5 12.1299 229.58 11.2399 229.15 10.5799H229.13Z" fill="#8C755E"/>
<path d="M225.02 18.6299L227.07 21.7699L229.12 18.6299C229.55 17.9699 229.47 17.0799 228.92 16.5199L227.06 14.6099L225.2 16.5199C224.65 17.0799 224.57 17.9699 225 18.6299H225.02Z" fill="#8C755E"/>
<path d="M231.69 11.0101L227.07 14.6101L231.69 18.2101C232.54 18.8701 233.73 18.7901 234.48 18.0101L237.79 14.6101L234.48 11.2101C233.73 10.4401 232.54 10.3501 231.69 11.0101Z" fill="#8C755E"/>
<path d="M219.66 11.21L216.35 14.61L219.66 18.01C220.41 18.78 221.6 18.87 222.45 18.21L227.07 14.61L222.45 11.01C221.6 10.35 220.41 10.43 219.66 11.21Z" fill="#8C755E"/>
<path d="M606.3 14.9901L612.22 6.92012C613.57 5.08012 615.7 4.88012 617.22 6.45012C620.29 9.62012 618.08 14.9901 613.7 14.9901H606.31H606.3Z" fill="#8C755E"/>
<path d="M606.3 14.9902L612.22 23.0602C613.57 24.9002 615.7 25.1002 617.22 23.5302C620.29 20.3602 618.08 14.9902 613.7 14.9902H606.31H606.3Z" fill="#8C755E"/>
<path d="M12.35 14.9901L6.43001 6.92012C5.08001 5.08012 2.95001 4.88012 1.43001 6.45012C-1.63999 9.62012 0.570006 14.9901 4.95001 14.9901H12.34H12.35Z" fill="#8C755E"/>
<path d="M12.35 14.9902L6.43001 23.0602C5.08001 24.9002 2.95001 25.1002 1.43001 23.5302C-1.63999 20.3602 0.570006 14.9902 4.95001 14.9902H12.34H12.35Z" fill="#8C755E"/>
</g>
<defs>
<clipPath id="clip0_3_2025">
<rect width="618.64" height="29.21" fill="white"/>
</clipPath>
</defs>
</svg>
