<svg width="602" height="30" viewBox="0 0 602 30" fill="none" xmlns="http://www.w3.org/2000/svg">
<path d="M601.91 13.5H0.380005V15.71H601.91V13.5Z" fill="#8C755E"/>
<path d="M305.33 6.41L301.14 0L296.95 6.41C296.07 7.76 296.24 9.57 297.36 10.72L301.14 14.61L304.92 10.72C306.04 9.57 306.21 7.76 305.33 6.41Z" fill="#8C755E"/>
<path d="M296.95 22.8001L301.14 29.2101L305.33 22.8001C306.21 21.4501 306.04 19.6401 304.92 18.4901L301.14 14.6001L297.36 18.4901C296.24 19.6401 296.07 21.4501 296.95 22.8001Z" fill="#8C755E"/>
<path d="M286.04 7.67983L280.06 13.8298L276.96 10.6298C276.25 9.89983 275.25 9.98983 274.62 10.8498C273.48 12.4098 274.57 14.6198 276.48 14.6198C274.57 14.6198 273.47 16.8298 274.62 18.3898C275.25 19.2498 276.25 19.3398 276.96 18.6098L280.06 15.4098L286.04 21.5598C287.57 23.1398 290 23.3098 291.73 21.9598L301.14 14.6298L291.73 7.29983C290 5.94983 287.57 6.12983 286.04 7.69983V7.67983Z" fill="#8C755E"/>
<path d="M325.81 14.6102C327.86 14.6102 328.89 12.1002 327.46 10.6202C326.75 9.89023 325.75 9.98023 325.12 10.8402L322.62 14.2402L316.24 7.68023C314.71 6.10023 312.28 5.93023 310.55 7.28023L301.14 14.6102L310.55 21.9402C312.28 23.2902 314.71 23.1102 316.24 21.5402L322.62 14.9802L325.12 18.3802C325.75 19.2402 326.75 19.3302 327.46 18.6002C328.9 17.1202 327.86 14.6102 325.81 14.6102Z" fill="#8C755E"/>
<path d="M380.27 10.5799L378.22 7.43994L376.17 10.5799C375.74 11.2399 375.82 12.1299 376.37 12.6899L378.23 14.5999L380.09 12.6899C380.64 12.1299 380.72 11.2399 380.29 10.5799H380.27Z" fill="#8C755E"/>
<path d="M376.16 18.6299L378.21 21.7699L380.26 18.6299C380.69 17.9699 380.61 17.0799 380.06 16.5199L378.2 14.6099L376.34 16.5199C375.79 17.0799 375.71 17.9699 376.14 18.6299H376.16Z" fill="#8C755E"/>
<path d="M385.62 11.2101C384.87 10.4401 383.68 10.3501 382.83 11.0101L378.21 14.6101L382.83 18.2101C383.68 18.8701 384.87 18.7901 385.62 18.0101L388.93 14.6101L385.62 11.2101Z" fill="#8C755E"/>
<path d="M370.8 11.21L367.49 14.61L370.8 18.01C371.55 18.78 372.74 18.87 373.59 18.21L378.21 14.61L373.59 11.01C372.74 10.35 371.55 10.43 370.8 11.21Z" fill="#8C755E"/>
<path d="M226.13 10.5799L224.08 7.43994L222.03 10.5799C221.6 11.2399 221.68 12.1299 222.23 12.6899L224.09 14.5999L225.95 12.6899C226.5 12.1299 226.58 11.2399 226.15 10.5799H226.13Z" fill="#8C755E"/>
<path d="M222.02 18.6299L224.07 21.7699L226.12 18.6299C226.55 17.9699 226.47 17.0799 225.92 16.5199L224.06 14.6099L222.2 16.5199C221.65 17.0799 221.57 17.9699 222 18.6299H222.02Z" fill="#8C755E"/>
<path d="M228.69 11.0101L224.07 14.6101L228.69 18.2101C229.54 18.8701 230.73 18.7901 231.48 18.0101L234.79 14.6101L231.48 11.2101C230.73 10.4401 229.54 10.3501 228.69 11.0101Z" fill="#8C755E"/>
<path d="M216.66 11.21L213.35 14.61L216.66 18.01C217.41 18.78 218.6 18.87 219.45 18.21L224.07 14.61L219.45 11.01C218.6 10.35 217.41 10.43 216.66 11.21Z" fill="#8C755E"/>
</svg>
