<svg width="47" height="47" viewBox="0 0 47 47" fill="none" xmlns="http://www.w3.org/2000/svg">
<path fill-rule="evenodd" clip-rule="evenodd" d="M12.1172 8.07812C11.9093 8.07812 11.7111 8.16625 11.5719 8.32065L3.12654 17.6839C2.77834 18.0321 2.79577 18.5208 3.13013 18.8552L22.9583 40.5191C23.0974 40.6712 23.294 40.7578 23.5 40.7578C23.706 40.7578 23.9026 40.6712 24.0417 40.5191L43.8697 18.8552C44.1282 18.5967 44.2553 18.0658 43.8734 17.6839L35.4281 8.32065C35.2889 8.16625 35.0907 8.07812 34.8828 8.07812H12.1172ZM41.8285 18.9102H33.4252L25.9066 36.3063L41.8285 18.9102ZM33.2549 17.4414H41.6769L34.5562 9.54688H29.6946L33.2549 17.4414ZM28.0834 9.54688L31.6437 17.4414H15.3563L18.9166 9.54688H28.0834ZM17.3054 9.54688H12.4437L5.32321 17.4414H13.7451L17.3054 9.54688ZM13.5747 18.9102H5.17149L21.0934 36.3063L13.5747 18.9102ZM15.1748 18.9102H31.8252L23.5 38.1724L15.1748 18.9102Z" fill="white"/>
</svg>
