<svg width="51" height="51" viewBox="0 0 51 51" fill="none" xmlns="http://www.w3.org/2000/svg">
<path d="M29.5804 6.87305H14.7904C14.6832 6.87397 14.5776 6.89975 14.482 6.94835L14.4493 6.96548C14.3938 6.99579 14.3426 7.03345 14.2971 7.07745L6.97027 14.4043C6.92677 14.4492 6.88952 14.4997 6.8595 14.5545C6.85233 14.5677 6.84556 14.58 6.83878 14.5944C6.81239 14.6468 6.79271 14.7024 6.78021 14.7597C6.78021 14.7665 6.78021 14.7733 6.77742 14.78C6.77012 14.8195 6.76625 14.8595 6.76587 14.8996V39.0708C6.76587 39.8521 7.07596 40.6014 7.62804 41.1542C8.18011 41.7071 8.92904 42.0182 9.71032 42.0192H23.6903C23.8618 42.6266 24.2271 43.1612 24.7306 43.5418C25.2342 43.9223 25.8482 44.1278 26.4794 44.127H39.1704C39.9404 44.1259 40.6786 43.8195 41.2231 43.275C41.7676 42.7306 42.0739 41.9924 42.075 41.2223V24.2609C42.0739 23.4908 41.7676 22.7526 41.2231 22.2082C40.6786 21.6637 39.9404 21.3573 39.1704 21.3562H32.5284V9.82148C32.5277 9.03981 32.2169 8.29035 31.6642 7.73758C31.1115 7.18481 30.3621 6.87389 29.5804 6.87305ZM14.0939 9.25411V12.6492C14.0939 13.0613 13.9302 13.4566 13.6388 13.748C13.3474 14.0394 12.9521 14.2031 12.54 14.2031H9.14574L14.0939 9.25411ZM23.623 23.7525H18.3911C18.2062 23.7525 18.0288 23.8259 17.898 23.9567C17.7673 24.0874 17.6938 24.2648 17.6938 24.4497C17.6938 24.6346 17.7673 24.812 17.898 24.9428C18.0288 25.0735 18.2062 25.147 18.3911 25.147H23.5755V29.2557H18.3911C18.2062 29.2557 18.0288 29.3291 17.898 29.4599C17.7673 29.5907 17.6938 29.768 17.6938 29.9529C17.6938 30.1379 17.7673 30.3152 17.898 30.446C18.0288 30.5767 18.2062 30.6502 18.3911 30.6502H23.5755V34.7589H18.3911C18.2062 34.7589 18.0288 34.8324 17.898 34.9631C17.7673 35.0939 17.6938 35.2712 17.6938 35.4562C17.6938 35.6411 17.7673 35.8184 17.898 35.9492C18.0288 36.08 18.2062 36.1534 18.3911 36.1534H23.5755V40.6247H9.70992C9.29849 40.6236 8.90427 40.4595 8.61372 40.1682C8.32317 39.8769 8.16 39.4822 8.16 39.0708V15.5968H12.5412C13.323 15.5962 14.0726 15.2854 14.6254 14.7326C15.1782 14.1798 15.489 13.4302 15.4897 12.6484V8.26559H29.5804C29.7845 8.26559 29.9865 8.30578 30.1751 8.38387C30.3636 8.46196 30.5349 8.57642 30.6792 8.72071C30.8235 8.86501 30.9379 9.03631 31.016 9.22484C31.0941 9.41337 31.1343 9.61543 31.1343 9.81949V21.3562H26.4802C25.7986 21.3576 25.1392 21.5983 24.617 22.0362C24.0948 22.4742 23.743 23.0816 23.623 23.7525ZM39.1704 22.7508C39.5708 22.7512 39.9546 22.9104 40.2377 23.1935C40.5208 23.4766 40.68 23.8605 40.6805 24.2609V41.2223C40.68 41.6227 40.5208 42.0066 40.2377 42.2897C39.9546 42.5728 39.5708 42.732 39.1704 42.7324H26.4802C26.0915 42.7332 25.7177 42.5836 25.4368 42.315C25.1559 42.0464 24.9898 41.6796 24.9733 41.2913C24.9733 41.2733 24.9733 41.2403 24.9701 41.2223V24.2609C24.9711 23.8607 25.1306 23.4772 25.4135 23.1942C25.6965 22.9113 26.08 22.7518 26.4802 22.7508H39.1704Z" fill="white"/>
<path d="M37.9089 30.871C38.2577 30.871 38.5921 30.7324 38.8387 30.4858C39.0853 30.2393 39.2238 29.9048 39.2238 29.5561V25.7929C39.2238 25.4442 39.0853 25.1097 38.8387 24.8631C38.5921 24.6166 38.2577 24.478 37.9089 24.478H27.7408C27.3921 24.478 27.0577 24.6166 26.8111 24.8631C26.5645 25.1097 26.426 25.4442 26.426 25.7929V29.5573C26.426 29.906 26.5645 30.2405 26.8111 30.487C27.0577 30.7336 27.3921 30.8722 27.7408 30.8722L37.9089 30.871ZM27.8217 25.8734H37.8277V29.4764H27.8217V25.8734Z" fill="white"/>
<path d="M28.7863 36.1783C29.1219 36.178 29.4437 36.0445 29.681 35.8072C29.9183 35.5699 30.0518 35.2481 30.0521 34.9125V33.5773C30.0513 33.242 29.9176 32.9208 29.6803 32.6839C29.4431 32.447 29.1216 32.3138 28.7863 32.3135H27.4523C27.1168 32.3138 26.7951 32.4472 26.5579 32.6845C26.3206 32.9217 26.1872 33.2434 26.1869 33.5789V34.9113C26.1868 35.2471 26.32 35.5692 26.5573 35.8068C26.7946 36.0444 27.1165 36.178 27.4523 36.1783H28.7863ZM27.5814 33.708H28.6572V34.7838H27.5814V33.708Z" fill="white"/>
<path d="M33.4923 36.1783C33.8278 36.178 34.1496 36.0445 34.3869 35.8072C34.6241 35.5699 34.7575 35.2481 34.7577 34.9125V33.5773C34.757 33.2421 34.6234 32.9208 34.3861 32.6839C34.1489 32.447 33.8275 32.3138 33.4923 32.3135H32.1583C31.8227 32.3138 31.501 32.4472 31.2637 32.6844C31.0264 32.9217 30.8929 33.2434 30.8925 33.5789V34.9113C30.8925 35.2471 31.0258 35.5692 31.2631 35.8068C31.5005 36.0444 31.8225 36.178 32.1583 36.1783H33.4923ZM32.287 33.708H33.3628V34.7838H32.287V33.708Z" fill="white"/>
<path d="M38.1978 41.1843C38.5334 41.184 38.8552 41.0506 39.0925 40.8134C39.3299 40.5761 39.4635 40.2544 39.464 39.9189V33.5773C39.4631 33.242 39.3293 32.9207 39.092 32.6839C38.8546 32.447 38.5331 32.3138 38.1978 32.3135H36.8642C36.5287 32.3139 36.207 32.4473 35.9698 32.6846C35.7325 32.9218 35.5989 33.2434 35.5984 33.5789V39.9204C35.5989 40.256 35.7325 40.5776 35.9698 40.8148C36.207 41.052 36.5287 41.1855 36.8642 41.1859L38.1978 41.1843ZM36.9929 33.708H38.0687V39.7898H36.9929V33.708Z" fill="white"/>
<path d="M28.7863 41.1841C29.1219 41.1838 29.4436 41.0504 29.6809 40.8131C29.9182 40.5759 30.0517 40.2542 30.0521 39.9187V38.5847C30.0518 38.2491 29.9183 37.9273 29.681 37.69C29.4437 37.4526 29.1219 37.3192 28.7863 37.3188H27.4523C27.1167 37.3192 26.795 37.4526 26.5577 37.69C26.3205 37.9273 26.1871 38.2491 26.1869 38.5847V39.9187C26.1872 40.2542 26.3206 40.5759 26.5579 40.8131C26.7951 41.0503 27.1168 41.1838 27.4523 41.1841H28.7863ZM27.5814 38.7138H28.6572V39.7896H27.5814V38.7138Z" fill="white"/>
<path d="M33.4923 41.1841C33.8278 41.1838 34.1495 41.0503 34.3867 40.8131C34.624 40.5759 34.7574 40.2542 34.7577 39.9187V38.5847C34.7575 38.2491 34.6241 37.9273 34.3869 37.69C34.1496 37.4526 33.8278 37.3192 33.4923 37.3188H32.1583C31.8227 37.3192 31.5009 37.4526 31.2636 37.69C31.0262 37.9273 30.8928 38.2491 30.8925 38.5847V39.9187C30.8929 40.2542 31.0264 40.5759 31.2637 40.8131C31.501 41.0504 31.8227 41.1838 32.1583 41.1841H33.4923ZM32.287 38.7138H33.3628V39.7896H32.287V38.7138Z" fill="white"/>
<path d="M13.4592 25.9832C13.5508 25.9834 13.6415 25.9654 13.7261 25.9303C13.8107 25.8952 13.8875 25.8438 13.9521 25.7788L15.6255 24.1054C15.7563 23.9746 15.8298 23.7973 15.8298 23.6123C15.8298 23.4274 15.7563 23.25 15.6255 23.1193C15.4948 22.9885 15.3174 22.915 15.1325 22.915C14.9475 22.915 14.7702 22.9885 14.6394 23.1193L13.4592 24.2998L12.7695 23.6098C12.6388 23.479 12.4614 23.4055 12.2765 23.4055C12.0915 23.4055 11.9142 23.479 11.7834 23.6098C11.6526 23.7405 11.5792 23.9179 11.5792 24.1028C11.5792 24.2878 11.6526 24.4651 11.7834 24.5959L12.9664 25.7788C13.031 25.8437 13.1078 25.8952 13.1924 25.9303C13.277 25.9653 13.3677 25.9833 13.4592 25.9832Z" fill="white"/>
<path d="M13.4592 20.4798C13.5508 20.48 13.6415 20.462 13.7261 20.4269C13.8107 20.3918 13.8875 20.3403 13.9521 20.2754L15.6255 18.602C15.7563 18.4712 15.8298 18.2939 15.8298 18.1089C15.8298 17.924 15.7563 17.7466 15.6255 17.6159C15.4948 17.4851 15.3174 17.4116 15.1325 17.4116C14.9475 17.4116 14.7702 17.4851 14.6394 17.6159L13.4592 18.7972L12.7695 18.1071C12.6388 17.9764 12.4614 17.9029 12.2765 17.9029C12.0915 17.9029 11.9142 17.9764 11.7834 18.1071C11.6526 18.2379 11.5792 18.4153 11.5792 18.6002C11.5792 18.7851 11.6526 18.9625 11.7834 19.0933L12.9664 20.2762C13.031 20.341 13.1079 20.3923 13.1925 20.4272C13.2771 20.4622 13.3677 20.48 13.4592 20.4798Z" fill="white"/>
<path d="M27.687 19.6431C27.872 19.6431 28.0493 19.5696 28.1801 19.4388C28.3108 19.3081 28.3843 19.1307 28.3843 18.9458C28.3843 18.7609 28.3108 18.5835 28.1801 18.4528C28.0493 18.322 27.872 18.2485 27.687 18.2485H18.3907C18.2058 18.2485 18.0284 18.322 17.8976 18.4528C17.7669 18.5835 17.6934 18.7609 17.6934 18.9458C17.6934 19.1307 17.7669 19.3081 17.8976 19.4388C18.0284 19.5696 18.2058 19.6431 18.3907 19.6431H27.687Z" fill="white"/>
<path d="M27.687 14.5786C27.872 14.5786 28.0493 14.5052 28.1801 14.3744C28.3108 14.2436 28.3843 14.0663 28.3843 13.8813C28.3843 13.6964 28.3108 13.5191 28.1801 13.3883C28.0493 13.2575 27.872 13.1841 27.687 13.1841H18.3907C18.2058 13.1841 18.0284 13.2575 17.8976 13.3883C17.7669 13.5191 17.6934 13.6964 17.6934 13.8813C17.6934 14.0663 17.7669 14.2436 17.8976 14.3744C18.0284 14.5052 18.2058 14.5786 18.3907 14.5786H27.687Z" fill="white"/>
<path d="M13.4592 31.4871C13.5508 31.4873 13.6415 31.4693 13.7261 31.4342C13.8107 31.3992 13.8875 31.3477 13.9521 31.2828L15.6255 29.6093C15.6903 29.5446 15.7416 29.4677 15.7767 29.3831C15.8117 29.2985 15.8298 29.2078 15.8298 29.1162C15.8298 29.0247 15.8117 28.934 15.7767 28.8494C15.7416 28.7648 15.6903 28.6879 15.6255 28.6232C15.5608 28.5584 15.4839 28.5071 15.3993 28.472C15.3147 28.437 15.224 28.4189 15.1325 28.4189C15.0409 28.4189 14.9502 28.437 14.8656 28.472C14.781 28.5071 14.7041 28.5584 14.6394 28.6232L13.4592 29.8034L12.7695 29.1133C12.7048 29.0485 12.6279 28.9971 12.5433 28.9621C12.4587 28.9271 12.368 28.909 12.2765 28.909C12.1849 28.909 12.0942 28.9271 12.0096 28.9621C11.925 28.9971 11.8481 29.0485 11.7834 29.1133C11.7186 29.178 11.6673 29.2549 11.6322 29.3395C11.5972 29.4241 11.5792 29.5148 11.5792 29.6063C11.5792 29.6979 11.5972 29.7886 11.6322 29.8732C11.6673 29.9578 11.7186 30.0346 11.7834 30.0994L12.9664 31.2824C13.0309 31.3473 13.1077 31.3988 13.1923 31.434C13.2769 31.4691 13.3676 31.4872 13.4592 31.4871Z" fill="white"/>
<path d="M13.4592 36.9896C13.5508 36.9897 13.6415 36.9718 13.7261 36.9367C13.8107 36.9016 13.8875 36.8501 13.9521 36.7852L15.6255 35.1118C15.6903 35.047 15.7416 34.9701 15.7767 34.8855C15.8117 34.8009 15.8298 34.7103 15.8298 34.6187C15.8298 34.5271 15.8117 34.4364 15.7767 34.3518C15.7416 34.2672 15.6903 34.1904 15.6255 34.1256C15.5608 34.0609 15.4839 34.0095 15.3993 33.9745C15.3147 33.9394 15.224 33.9214 15.1325 33.9214C15.0409 33.9214 14.9502 33.9394 14.8656 33.9745C14.781 34.0095 14.7041 34.0609 14.6394 34.1256L13.4592 35.3062L12.7695 34.6161C12.6388 34.4853 12.4614 34.4119 12.2765 34.4119C12.0915 34.4119 11.9142 34.4853 11.7834 34.6161C11.6526 34.7469 11.5792 34.9242 11.5792 35.1092C11.5792 35.2941 11.6526 35.4715 11.7834 35.6022L12.9664 36.7852C13.031 36.8501 13.1078 36.9015 13.1924 36.9366C13.277 36.9717 13.3677 36.9897 13.4592 36.9896Z" fill="white"/>
</svg>
