<svg width="23" height="54" viewBox="0 0 23 54" fill="none" xmlns="http://www.w3.org/2000/svg">
<g clip-path="url(#clip0_14_3308)">
<path d="M15.8422 52.5095C22.3798 48.9405 24.1425 40.6437 22.3263 33.9258C21.0723 29.282 18.3992 25.1292 15.329 21.4054C13.4012 19.0658 11.2859 16.8368 9.84899 14.1744C8.41204 11.512 7.71588 8.26139 8.83599 5.45303C9.95609 2.64468 13.2896 0.627971 16.1546 1.65401C14.1375 1.11003 11.8125 1.99013 10.679 3.72822C10.0409 4.70561 9.76866 5.95279 10.1034 7.0717C10.438 8.19062 11.4287 9.12822 12.5979 9.26532C13.7671 9.40242 15.0166 8.62404 15.271 7.48743C15.5254 6.35082 14.6016 5.055 13.4235 5.03731C13.1022 5.03289 12.6961 5.38669 12.946 5.58571C14.0304 5.28055 15.0211 6.76212 14.4677 7.7351C13.9144 8.70807 12.3926 8.82306 11.5314 8.1066C10.6701 7.39013 10.4514 6.10315 10.7727 5.03288C11.2725 3.35672 12.9995 2.14934 14.7623 2.17146C16.525 2.19799 18.1895 3.40979 18.7964 5.05057C19.4033 6.69136 18.9571 8.64615 17.7432 9.91102C17.0694 10.6142 17.3282 11.4147 18.011 10.7955C19.8808 9.1061 20.5323 6.21814 19.5818 3.89185C18.6313 1.56556 16.1412 -0.0531089 13.6109 0.0132288C10.0587 0.106102 7.14914 3.31692 6.511 6.77982C5.87285 10.2427 7.06881 13.8073 8.80475 16.881C9.56784 18.2299 10.9646 20.1317 12.415 22.0643C13.187 23.0904 11.8928 24.3906 10.8486 23.6388C10.1703 23.1523 9.50537 22.6614 8.8583 22.1395C6.43513 20.1847 4.24848 17.624 3.88255 14.5503C3.81115 13.9621 3.81115 13.3606 3.61034 12.8034C3.35597 12.0958 2.6732 11.4501 1.8387 11.7552C1.52186 11.8702 1.2675 12.1046 1.09792 12.3877C0.718601 13.0245 0.772152 13.7808 0.910491 14.4796C1.45492 17.257 3.21763 19.6717 5.32396 21.5779C7.43028 23.4884 9.88469 24.9656 12.2409 26.5577C16.7704 29.6181 21.1303 33.6692 20.6394 39.5867C20.4877 41.4221 19.7782 44.2349 17.4175 44.1641C16.9846 44.1508 16.9891 44.6462 17.4175 44.6594C18.011 44.6771 18.5153 44.5665 18.9437 44.3631C17.8682 45.4909 16.2751 46.2604 14.5882 46.0083C14.1643 45.9464 13.9858 46.4196 14.4097 46.4815C15.5343 46.6496 16.6187 46.4992 17.5692 46.0968C15.5298 47.8216 12.5444 48.4319 9.98286 47.1272C9.59908 46.9326 9.25993 47.3395 9.64371 47.5341C11.6697 48.5646 13.901 48.6088 15.8243 47.8702C14.6239 48.6088 13.2271 49.0732 11.6608 49.1439C7.00634 49.3607 2.8517 45.8712 2.72229 41.1611C2.65981 39.0073 3.51662 36.8049 5.17669 35.3808C6.88139 33.9169 9.49198 33.395 11.5581 34.399C11.875 34.5538 12.1784 34.7439 12.4596 34.9607C13.7537 35.9602 14.5659 37.5169 14.4097 39.1577C14.2669 40.6525 13.3699 42.028 12.0267 42.74C11.2904 43.1292 10.3756 43.2575 9.58123 42.9656C8.894 42.7135 8.28709 41.8776 8.74674 41.1788C9.09482 40.6437 9.8713 40.6393 10.4202 40.4668C11.1833 40.228 11.7857 39.7503 12.0535 38.9587C12.1606 38.6491 12.1963 38.3174 12.1517 37.9946C11.9285 36.3184 10.0007 35.6638 8.54146 36.1017C7.1536 36.5174 5.94871 37.7469 5.70774 39.1842C5.36858 41.2231 6.82338 43.3548 8.81814 43.9562C10.8129 44.5621 13.12 43.6997 14.3606 42.0368C15.6057 40.3739 15.7976 38.0521 15.0166 36.1371C13.8742 33.3287 10.7236 31.5243 7.67572 31.7498C4.6278 31.9754 1.85655 34.1071 0.682902 36.9022C-0.495212 39.6973 -0.120357 43.0363 1.46385 45.628C3.67281 49.228 8.20677 51.2801 12.406 50.5724C15.5164 50.0462 18.2475 48.0471 19.8362 45.367C22.8663 40.2634 21.1259 33.9346 18.2341 29.1936C15.3379 24.4525 11.2859 20.4678 8.81814 15.4614C7.8453 13.4845 7.11344 11.3528 7.02419 9.15918C6.93494 6.96114 7.52846 4.68792 8.95647 3.00291C10.3845 1.3179 12.7006 0.322811 14.8783 0.742957C12.2855 0.477603 9.73296 2.15819 8.55931 4.46237C7.38566 6.76654 7.43921 9.54837 8.24693 12.0073C9.09035 14.5769 10.6879 16.8545 12.3837 18.9376C12.8478 19.5036 13.2896 20.0874 13.7403 20.6668C17.9798 26.1597 22.3352 32.0771 22.0898 39.3523C21.9559 43.284 20.2735 47.2643 17.1319 49.6702C13.9902 52.0761 9.33579 52.6201 5.97995 50.5194C5.29718 50.0904 4.98927 50.6786 5.14992 51.2933C5.27487 51.7621 5.55155 52.3105 5.90855 52.6511C6.59132 53.3056 7.54185 53.6904 8.47006 53.854C10.9959 54.3007 13.6154 53.7346 15.8467 52.514L15.8422 52.5095ZM8.05504 42.3154C6.59579 40.8118 7.34549 37.9946 9.67941 37.5611C10.1034 37.4815 9.92039 37.1764 9.50091 37.2516C7.30087 37.6584 6.27894 39.6 6.76536 41.3778C6.43067 40.7321 6.28341 39.998 6.39943 39.2771C6.60471 38.0167 7.69357 36.8624 8.96986 36.6368C10.0409 36.4466 11.4778 36.9862 11.4332 38.2732C11.4064 39.0206 10.8575 39.6442 10.1346 39.8521C9.37596 40.0688 8.53253 40.1616 8.12644 40.9267C7.89885 41.3513 7.89885 41.8599 8.05504 42.3154ZM15.2308 48.9317C13.5841 49.7852 11.7054 50.2009 9.85345 50.0594C6.41282 49.7985 3.18639 47.6226 1.66466 44.5533C0.428537 42.0589 0.339286 38.9852 1.62004 36.5174C2.90079 34.0496 5.6051 32.3071 8.40758 32.3557C10.0364 32.3867 11.634 33.0634 12.8255 34.1513C12.7675 34.1823 12.7184 34.2309 12.6916 34.3017C12.4417 34.1248 12.1784 33.9611 11.8928 33.8196C8.03273 31.9179 3.67281 34.5936 2.45007 38.3793C1.17378 42.3376 3.12838 46.884 6.84569 48.7813C9.49645 50.1346 12.5979 50.0948 15.2308 48.9272L15.2308 48.9317ZM15.8868 28.3975C14.5748 27.3007 13.1379 26.3189 11.7054 25.3857C7.67572 22.7675 2.98112 19.8619 1.72268 14.9041C1.56649 14.2894 1.3032 13.3828 1.64681 12.7857C2.00382 12.1621 2.78923 12.4894 3.00343 13.0466C3.14623 13.4093 3.14623 13.8029 3.17747 14.1833C3.25333 15.1783 3.47646 16.138 3.87363 17.0579C4.78845 19.2029 6.39943 20.9587 8.19338 22.427C10.6656 24.457 13.6198 26.1243 15.8913 28.3931L15.8868 28.3975ZM5.85054 51.2535C8.5013 52.7528 11.7857 52.8855 14.6373 51.824C17.6852 50.6874 19.1266 49.0422 19.1266 49.0422C17.4933 50.9616 15.2665 52.4211 12.8077 53.0535C10.9512 53.5223 6.25217 53.8319 5.85054 51.2535Z" fill="#8C755E"/>
</g>
<defs>
<clipPath id="clip0_14_3308">
<rect width="54" height="23" fill="white" transform="translate(0 54) rotate(-90)"/>
</clipPath>
</defs>
</svg>
