<svg width="100" height="42" viewBox="0 0 100 42" fill="none" xmlns="http://www.w3.org/2000/svg">
<g clip-path="url(#clip0_5_2290)">
<path d="M2.76003 28.9289C9.36936 40.8672 24.7338 44.0861 37.1744 40.7694C45.7739 38.4795 53.4644 33.5983 60.3604 27.9918C64.6929 24.4714 68.8206 20.6088 73.751 17.9848C78.6814 15.3608 84.7011 14.0896 89.9017 16.135C95.1024 18.1804 98.837 24.2677 96.9369 29.4993C97.9443 25.816 96.3145 21.5704 93.0958 19.5005C91.2858 18.3352 88.9762 17.8381 86.9042 18.4493C84.8321 19.0605 83.0958 20.8695 82.8419 23.0046C82.588 25.1396 84.0295 27.4213 86.1343 27.8858C88.2391 28.3503 90.6388 26.6635 90.6716 24.5121C90.6798 23.9254 90.0246 23.1839 89.656 23.6402C90.2211 25.6204 87.4775 27.4295 85.6757 26.419C83.8739 25.4085 83.6609 22.6297 84.9877 21.057C86.3145 19.4842 88.6978 19.0849 90.6798 19.6716C93.7838 20.5843 96.0197 23.738 95.9787 26.9569C95.9296 30.1757 93.6855 33.2153 90.647 34.3236C87.6085 35.4318 83.9885 34.6169 81.6462 32.4004C80.344 31.1699 78.8616 31.6425 80.0082 32.8893C83.1368 36.3038 88.4848 37.4935 92.7928 35.7578C97.1007 34.022 100.098 29.4749 99.9754 24.8544C99.8034 18.3678 93.8575 13.0546 87.4447 11.8893C81.0319 10.724 74.4308 12.908 68.7387 16.0779C66.2408 17.4714 62.7191 20.022 59.14 22.6705C57.24 24.0802 54.8321 21.717 56.2244 19.8102C57.1253 18.5715 58.0344 17.3573 59.0008 16.1757C62.6208 11.7508 67.3628 7.75778 73.0549 7.08956C74.1441 6.95918 75.258 6.95918 76.2899 6.59247C77.6003 6.12798 78.7961 4.88118 78.231 3.35732C78.018 2.77874 77.5839 2.31424 77.0598 2.00458C75.8804 1.31191 74.4799 1.4097 73.1859 1.66232C68.0426 2.6565 63.5708 5.87536 60.0409 9.72169C56.5029 13.568 53.7674 18.05 50.819 22.3527C45.1515 30.6239 37.6495 38.5855 26.6912 37.6891C23.2924 37.412 18.0835 36.1163 18.2146 31.8055C18.2391 31.0151 17.3219 31.0232 17.2973 31.8055C17.2645 32.8893 17.4693 33.8102 17.846 34.5925C15.7576 32.6286 14.3325 29.7194 14.7993 26.639C14.914 25.8649 14.0377 25.5389 13.923 26.3131C13.6118 28.3666 13.8902 30.3468 14.6355 32.0826C11.4414 28.3585 10.3112 22.9068 12.7273 18.2293C13.0876 17.5284 12.3341 16.9091 11.9738 17.6099C10.0655 21.3096 9.98361 25.3841 11.3513 28.8963C9.98361 26.7042 9.12366 24.1536 8.99262 21.2933C8.59131 12.7939 15.0532 5.20714 23.7756 4.97082C27.7641 4.85673 31.8427 6.42134 34.4799 9.45278C37.1908 12.5657 38.1572 17.3329 36.2981 21.1059C36.0115 21.6844 35.6593 22.2386 35.258 22.752C33.407 25.1152 30.5242 26.5983 27.4857 26.3131C24.7174 26.0523 22.1703 24.4144 20.8518 21.9615C20.131 20.6169 19.8935 18.9464 20.4341 17.4958C20.9009 16.2409 22.4488 15.1326 23.7428 15.972C24.7338 16.6076 24.742 18.0255 25.0614 19.0279C25.5037 20.4213 26.3882 21.5215 27.8542 22.0104C28.4275 22.206 29.0418 22.2712 29.6396 22.1897C32.7436 21.7822 33.9558 18.2619 33.145 15.5971C32.3751 13.0628 30.0983 10.8626 27.4365 10.4225C23.6609 9.80318 19.7133 12.4598 18.5995 16.1024C17.4775 19.745 19.0745 23.958 22.154 26.2234C25.2334 28.497 29.5332 28.8474 33.0794 27.4213C38.2801 25.3352 41.6216 19.582 41.2039 14.0162C40.7862 8.45045 36.8387 3.38991 31.6626 1.24672C26.4865 -0.904617 20.303 -0.2201 15.5037 2.6728C8.83701 6.70656 5.03685 14.986 6.34725 22.6542C7.32186 28.334 11.0237 33.3212 15.9869 36.2223C25.4382 41.7555 37.1581 38.5773 45.9378 33.2968C54.7174 28.0081 62.0966 20.6088 71.3677 16.1024C75.0287 14.3259 78.9762 12.9894 83.0385 12.8265C87.1089 12.6635 91.3186 13.7473 94.439 16.355C97.5594 18.9627 99.4021 23.192 98.6241 27.1687C99.1155 22.4341 96.0033 17.7729 91.7363 15.6297C87.4693 13.4865 82.3178 13.5843 77.7641 15.0593C73.0057 16.5995 68.7879 19.5168 64.9304 22.6134C63.8821 23.4609 62.801 24.2677 61.7281 25.0907C51.5561 32.8323 40.5979 40.7857 27.1253 40.3375C19.8444 40.0931 12.4734 37.0209 8.01801 31.284C3.56265 25.5471 2.55528 17.0477 6.44553 10.9196C7.23996 9.6728 6.15069 9.11052 5.01228 9.40388C4.14414 9.63205 3.12858 10.1373 2.49795 10.7892C1.28583 12.036 0.573295 13.7717 0.270264 15.4667C-0.556927 20.0791 0.491394 24.8626 2.75184 28.9371L2.76003 28.9289ZM21.638 14.7089C24.4226 12.0442 29.6396 13.4132 30.4423 17.6751C30.5897 18.4493 31.1548 18.1152 31.0156 17.3492C30.2621 13.3317 26.6667 11.4656 23.3743 12.3538C24.57 11.7426 25.9296 11.4737 27.2645 11.6856C29.5987 12.0605 31.7363 14.0488 32.154 16.3794C32.5061 18.3352 31.507 20.9592 29.1237 20.8777C27.7396 20.8288 26.5848 19.8265 26.1998 18.5063C25.7985 17.121 25.6265 15.5808 24.2097 14.8393C23.4234 14.4237 22.4816 14.4237 21.638 14.7089ZM9.38574 27.8125C7.80507 24.8055 7.03521 21.3748 7.29729 17.9929C7.7805 11.7101 11.81 5.81832 17.4939 3.0395C22.113 0.782228 27.8051 0.619248 32.3751 2.95801C36.9451 5.29678 40.172 10.2351 40.0819 15.3527C40.0246 18.327 38.7715 21.2444 36.7568 23.4202C36.6994 23.3142 36.6093 23.2246 36.4783 23.1757C36.8059 22.7194 37.1089 22.2386 37.371 21.717C40.8927 14.6681 35.9378 6.70656 28.9271 4.47373C21.597 2.14311 13.1777 5.71238 9.6642 12.5005C7.15806 17.341 7.23177 23.0046 9.39393 27.8125H9.38574ZM47.412 29.0104C49.4431 26.6146 51.2613 23.9906 52.9893 21.3748C57.8378 14.0162 63.2187 5.44346 72.3997 3.14544C73.5381 2.86023 75.217 2.37943 76.3227 3.00691C77.4775 3.65883 76.8714 5.09305 75.8395 5.48421C75.1679 5.74498 74.439 5.74498 73.7346 5.80202C71.8919 5.94055 70.1147 6.348 68.4111 7.07326C64.439 8.74381 61.1875 11.6856 58.4685 14.9615C54.7093 19.4761 51.6216 24.8707 47.4201 29.0185L47.412 29.0104ZM5.08599 10.6833C2.30958 15.5238 2.06388 21.5215 4.02948 26.7287C6.13431 32.2944 9.18099 34.9266 9.18099 34.9266C5.62653 31.944 2.92383 27.8777 1.75266 23.3876C0.884515 19.9976 0.311214 11.4167 5.08599 10.6833Z" fill="#8C755E"/>
</g>
<defs>
<clipPath id="clip0_5_2290">
<rect width="100" height="42" fill="white"/>
</clipPath>
</defs>
</svg>
