<svg width="29" height="30" viewBox="0 0 29 30" fill="none" xmlns="http://www.w3.org/2000/svg">
<g clip-path="url(#clip0_3_1511)">
<path d="M12.9175 10.9339C12.4361 10.7861 12.2835 11.0054 11.9451 10.9815C11.8259 10.972 11.7878 12.0302 12.7459 12.2399C13.3179 12.3639 13.7183 12.5498 13.9233 12.6403C13.9376 12.1637 13.6087 11.1436 12.9223 10.9339H12.9175Z" fill="#8C755E"/>
<path d="M10.2005 4.45171C10.9108 4.73771 11.7497 5.1953 12.1834 5.85309C12.0881 5.01894 11.6162 3.27913 10.7821 2.86443C10.191 2.57367 9.95744 2.78817 9.52844 2.67853C9.37591 2.6404 9.01365 3.97505 10.2005 4.45171Z" fill="#8C755E"/>
<path d="M17.0597 10.9816C16.7165 11.0055 16.5687 10.7814 16.0873 10.934C15.4009 11.1485 15.072 12.1637 15.0863 12.6404C15.2913 12.5498 15.6869 12.3639 16.2637 12.24C17.2265 12.0303 17.1836 10.9721 17.0645 10.9816H17.0597Z" fill="#8C755E"/>
<path d="M18.7995 4.45171C19.9911 3.97505 19.6241 2.6404 19.4716 2.67853C19.0378 2.78817 18.8043 2.57367 18.218 2.86443C17.379 3.27913 16.9119 5.01894 16.8166 5.85309C17.2551 5.1953 18.0893 4.73771 18.7995 4.45171Z" fill="#8C755E"/>
<path d="M20.2295 5.85289C19.3047 6.11029 18.9472 5.5383 17.6126 6.24852C16.4019 6.89201 15.6011 7.85963 15.1483 9.44214C15.358 8.34106 15.6297 7.22091 15.9872 6.23422C17.5554 1.91091 15.7822 0.5 14.4952 0.5C13.2083 0.5 11.4351 1.91091 13.0033 6.23422C13.3608 7.22091 13.6372 8.34106 13.8422 9.44214C13.3894 7.85963 12.5886 6.89201 11.3779 6.24852C10.048 5.5383 9.6905 6.11029 8.76101 5.85289C8.43688 5.76233 8.51315 8.77959 11.1586 9.55654C12.7554 10.0284 13.4942 10.3955 13.8517 11.1867C13.5038 10.1476 12.8841 9.19428 11.6543 8.82725C10.4675 8.47452 10.3006 7.893 10.4246 7.64037C10.62 7.24474 11.3254 7.23997 12.3026 8.09796C13.194 8.87968 13.8708 10.1953 14.1711 11.5299C14.4285 13.4842 14.4905 15.0048 14.4905 15.0048C14.4905 15.0048 14.5524 13.4842 14.8098 11.5299C15.1101 10.1953 15.787 8.88445 16.6783 8.09796C17.6555 7.23997 18.3609 7.24474 18.5564 7.64037C18.6803 7.893 18.5135 8.47452 17.3266 8.82725C16.0968 9.19428 15.4724 10.1476 15.1292 11.1867C15.4867 10.3955 16.2255 10.0284 17.8223 9.55654C20.4678 8.77959 20.5488 5.75756 20.2199 5.85289H20.2295Z" fill="#8C755E"/>
<path d="M16.0826 19.0658C16.564 19.2136 16.7165 18.9943 17.0549 19.0182C17.1741 19.0277 17.2122 17.9695 16.2542 17.7598C15.6822 17.6358 15.2818 17.4499 15.0768 17.3594C15.0625 17.836 15.3914 18.8561 16.0778 19.0658H16.0826Z" fill="#8C755E"/>
<path d="M18.7995 25.5484C18.0893 25.2624 17.2504 24.8048 16.8166 24.147C16.9119 24.9811 17.3838 26.7209 18.218 27.1356C18.809 27.4264 19.0426 27.2119 19.4716 27.3215C19.6241 27.3597 19.9864 26.025 18.7995 25.5484Z" fill="#8C755E"/>
<path d="M11.9403 19.0182C12.2835 18.9943 12.4313 19.2184 12.9127 19.0658C13.5991 18.8513 13.928 17.836 13.9137 17.3594C13.7087 17.4499 13.3131 17.6358 12.7364 17.7598C11.7735 17.9695 11.8164 19.0277 11.9356 19.0182H11.9403Z" fill="#8C755E"/>
<path d="M10.2005 25.5484C9.0089 26.025 9.37593 27.3597 9.52846 27.3215C9.96222 27.2119 10.1958 27.4264 10.7821 27.1356C11.621 26.7209 12.0881 24.9811 12.1835 24.147C11.7449 24.8048 10.9108 25.2624 10.2005 25.5484Z" fill="#8C755E"/>
<path d="M8.77056 24.1471C9.69528 23.8897 10.0528 24.4617 11.3874 23.7515C12.5981 23.108 13.3989 22.1404 13.8518 20.5579C13.642 21.6589 13.3703 22.7791 13.0128 23.7658C11.4446 28.0891 13.2178 29.5 14.5048 29.5C15.7918 29.5 17.5649 28.0891 15.9967 23.7658C15.6392 22.7791 15.3628 21.6589 15.1578 20.5579C15.6106 22.1404 16.4114 23.108 17.6221 23.7515C18.952 24.4617 19.3095 23.8897 20.239 24.1471C20.5631 24.2377 20.4869 21.2204 17.8414 20.4435C16.2446 19.9716 15.5058 19.6045 15.1483 18.8133C15.4962 19.8524 16.1159 20.8057 17.3457 21.1727C18.5326 21.5255 18.6994 22.107 18.5755 22.3596C18.38 22.7553 17.6746 22.76 16.6974 21.902C15.8061 21.1203 15.1292 19.8047 14.8289 18.4749C14.5715 16.5205 14.5096 15 14.5096 15C14.5096 15 14.4476 16.5205 14.1902 18.4749C13.8899 19.8095 13.213 21.1203 12.3217 21.902C11.3445 22.76 10.6391 22.7553 10.4436 22.3596C10.3197 22.107 10.4865 21.5255 11.6734 21.1727C12.9032 20.8057 13.5276 19.8524 13.8708 18.8133C13.5133 19.6045 12.7745 19.9716 11.1777 20.4435C8.53223 21.2204 8.4512 24.2424 8.7801 24.1471H8.77056Z" fill="#8C755E"/>
<path d="M18.5659 13.4175C18.7137 12.9361 18.4944 12.7835 18.5183 12.4404C18.5278 12.3212 17.4696 12.2831 17.2599 13.2411C17.136 13.8131 16.9501 14.2135 16.8595 14.4185C17.3362 14.4328 18.3562 14.1039 18.5659 13.4175Z" fill="#8C755E"/>
<path d="M25.0485 10.7009C24.7672 11.4111 24.3049 12.25 23.6471 12.6838C24.4812 12.5885 26.2211 12.1166 26.6358 11.2824C26.9265 10.6914 26.712 10.4578 26.8217 10.0288C26.8598 9.87628 25.5251 9.51402 25.0485 10.7009Z" fill="#8C755E"/>
<path d="M18.5183 17.5596C18.4944 17.2164 18.7185 17.0687 18.5659 16.5825C18.3514 15.8961 17.3362 15.5672 16.8595 15.5815C16.9501 15.7865 17.136 16.1821 17.2599 16.7589C17.4696 17.7217 18.5278 17.6788 18.5183 17.5596Z" fill="#8C755E"/>
<path d="M25.0485 19.2998C25.5251 20.4915 26.8598 20.1244 26.8217 19.9719C26.712 19.5381 26.9265 19.3046 26.6358 18.7183C26.2211 17.8794 24.4812 17.4122 23.6471 17.3169C24.3049 17.7554 24.7625 18.5896 25.0485 19.2998Z" fill="#8C755E"/>
<path d="M23.6471 20.7296C23.3897 19.8049 23.9617 19.4474 23.2515 18.1128C22.608 16.9021 21.6404 16.1013 20.0579 15.6484C21.1589 15.8582 22.2791 16.1299 23.2658 16.4874C27.5891 18.0556 29 16.2824 29 14.9954C29 13.7084 27.5891 11.9353 23.2658 13.5035C22.2791 13.861 21.1589 14.1374 20.0579 14.3424C21.6404 13.8896 22.608 13.0888 23.2515 11.8781C23.9617 10.5434 23.3897 10.1907 23.6471 9.2612C23.7377 8.93707 20.7204 9.01333 19.9435 11.6588C19.4716 13.2556 19.1045 13.9944 18.3133 14.3519C19.3524 14.004 20.3057 13.3843 20.6727 12.1545C21.0255 10.9676 21.607 10.8008 21.8596 10.9247C22.2553 11.1202 22.26 11.8256 21.402 12.8028C20.6203 13.6941 19.3047 14.371 17.9749 14.6713C16.0205 14.9287 14.5 14.9907 14.5 14.9907C14.5 14.9907 16.0205 15.0526 17.9749 15.31C19.3095 15.6103 20.6203 16.2872 21.402 17.1785C22.26 18.1557 22.2553 18.8611 21.8596 19.0566C21.607 19.1805 21.0255 19.0137 20.6727 17.8268C20.3057 16.597 19.3524 15.9726 18.3133 15.6294C19.1045 15.9869 19.4716 16.7257 19.9435 18.3225C20.7204 20.968 23.7424 21.049 23.6471 20.7201V20.7296Z" fill="#8C755E"/>
<path d="M10.4341 16.5825C10.2863 17.0639 10.5056 17.2164 10.4817 17.5596C10.4722 17.6788 11.5304 17.7169 11.7401 16.7589C11.864 16.1869 12.0499 15.7865 12.1405 15.5815C11.6638 15.5672 10.6438 15.8961 10.4341 16.5825Z" fill="#8C755E"/>
<path d="M3.95153 19.2998C4.23276 18.5896 4.69512 17.7507 5.35291 17.3169C4.51875 17.4122 2.77894 17.8841 2.36425 18.7183C2.07349 19.3093 2.28798 19.5429 2.17835 19.9719C2.14022 20.1244 3.47487 20.4867 3.95153 19.2998Z" fill="#8C755E"/>
<path d="M10.4817 12.4407C10.5056 12.7839 10.2815 12.9317 10.4341 13.4178C10.6486 14.1042 11.6639 14.4331 12.1405 14.4188C12.05 14.2139 11.8641 13.8182 11.7401 13.2415C11.5304 12.2786 10.4722 12.3215 10.4817 12.4407Z" fill="#8C755E"/>
<path d="M3.95153 10.7005C3.47487 9.50884 2.14022 9.87586 2.17835 10.0284C2.28798 10.4622 2.07349 10.6957 2.36425 11.282C2.77894 12.1209 4.51875 12.5881 5.35291 12.6834C4.69512 12.2449 4.23752 11.4107 3.95153 10.7005Z" fill="#8C755E"/>
<path d="M5.35289 9.27075C5.61029 10.1955 5.0383 10.553 5.74852 11.8876C6.39201 13.0983 7.35963 13.8991 8.94214 14.3519C7.84106 14.1422 6.72091 13.8705 5.73422 13.513C1.41091 11.9448 0 13.718 0 15.005C0 16.2919 1.41091 18.0651 5.73422 16.4969C6.72091 16.1394 7.84106 15.863 8.94214 15.658C7.35963 16.1108 6.39201 16.9116 5.74852 18.1223C5.0383 19.4522 5.61029 19.8097 5.35289 20.7392C5.26233 21.0633 8.27959 20.9871 9.05654 18.3416C9.52844 16.7448 9.89546 16.006 10.6867 15.6485C9.6476 15.9964 8.69428 16.6161 8.32725 17.8459C7.97452 19.0327 7.393 19.1996 7.14037 19.0756C6.74474 18.8802 6.73997 18.1748 7.59796 17.1976C8.37968 16.3062 9.69527 15.6294 11.0251 15.3291C12.9795 15.0717 14.5 15.0097 14.5 15.0097C14.5 15.0097 12.9795 14.9478 11.0251 14.6904C9.6905 14.3901 8.37968 13.7132 7.59796 12.8219C6.73997 11.8447 6.74474 11.1393 7.14037 10.9438C7.393 10.8199 7.97452 10.9867 8.32725 12.1736C8.69428 13.4034 9.6476 14.0278 10.6867 14.371C9.89546 14.0135 9.52844 13.2747 9.05654 11.6779C8.27959 9.03242 5.25756 8.95138 5.35289 9.28028V9.27075Z" fill="#8C755E"/>
</g>
<defs>
<clipPath id="clip0_3_1511">
<rect width="29" height="29" fill="white" transform="translate(0 0.5)"/>
</clipPath>
</defs>
</svg>
