<svg width="100" height="42" viewBox="0 0 100 42" fill="none" xmlns="http://www.w3.org/2000/svg">
<g clip-path="url(#clip0_3_1849)">
<path d="M2.76003 28.9292C9.36936 40.8675 24.7338 44.0863 37.1744 40.7697C45.7739 38.4798 53.4644 33.5985 60.3604 27.992C64.6929 24.4716 68.8206 20.609 73.751 17.985C78.6814 15.3611 84.7011 14.0898 89.9017 16.1352C95.1024 18.1806 98.837 24.2679 96.9369 29.4996C97.9443 25.8162 96.3145 21.5706 93.0958 19.5007C91.2858 18.3354 88.9762 17.8384 86.9042 18.4495C84.8321 19.0607 83.0958 20.8698 82.8419 23.0048C82.588 25.1399 84.0295 27.4216 86.1343 27.8861C88.2391 28.3506 90.6388 26.6637 90.6716 24.5124C90.6798 23.9257 90.0246 23.1841 89.656 23.6404C90.2211 25.6207 87.4775 27.4297 85.6757 26.4193C83.8739 25.4088 83.6609 22.63 84.9877 21.0572C86.3145 19.4845 88.6978 19.0851 90.6798 19.6719C93.7838 20.5846 96.0197 23.7382 95.9787 26.9571C95.9296 30.176 93.6855 33.2155 90.647 34.3238C87.6085 35.4321 83.9885 34.6172 81.6462 32.4006C80.344 31.1701 78.8616 31.6428 80.0082 32.8896C83.1368 36.304 88.4848 37.4938 92.7928 35.758C97.1007 34.0223 100.098 29.4751 99.9754 24.8546C99.8034 18.368 93.8575 13.0549 87.4447 11.8896C81.0319 10.7243 74.4308 12.9082 68.7387 16.0782C66.2408 17.4716 62.7191 20.0223 59.14 22.6707C57.24 24.0805 54.8321 21.7173 56.2244 19.8104C57.1253 18.5718 58.0344 17.3576 59.0008 16.176C62.6208 11.751 67.3628 7.75802 73.0549 7.08981C74.1441 6.95942 75.258 6.95942 76.2899 6.59272C77.6003 6.12822 78.7961 4.88142 78.231 3.35756C78.018 2.77898 77.5839 2.31449 77.0598 2.00482C75.8804 1.31216 74.4799 1.40995 73.1859 1.66256C68.0426 2.65674 63.5708 5.8756 60.0409 9.72194C56.5029 13.5683 53.7674 18.0502 50.819 22.3529C45.1515 30.6241 37.6495 38.5857 26.6912 37.6893C23.2924 37.4123 18.0835 36.1166 18.2146 31.8058C18.2391 31.0153 17.3219 31.0234 17.2973 31.8058C17.2645 32.8896 17.4693 33.8104 17.846 34.5927C15.7576 32.6288 14.3325 29.7196 14.7993 26.6393C14.914 25.8651 14.0377 25.5392 13.923 26.3133C13.6118 28.3669 13.8902 30.3471 14.6355 32.0828C11.4414 28.3587 10.3112 22.907 12.7273 18.2295C13.0876 17.5287 12.3341 16.9094 11.9738 17.6102C10.0655 21.3098 9.98361 25.3843 11.3513 28.8966C9.98361 26.7045 9.12366 24.1538 8.99262 21.2935C8.59131 12.7941 15.0532 5.20738 23.7756 4.97106C27.7641 4.85698 31.8427 6.42159 34.4799 9.45302C37.1908 12.5659 38.1572 17.3331 36.2981 21.1061C36.0115 21.6847 35.6593 22.2388 35.258 22.7522C33.407 25.1154 30.5242 26.5985 27.4857 26.3133C24.7174 26.0526 22.1703 24.4146 20.8518 21.9618C20.131 20.6172 19.8935 18.9466 20.4341 17.4961C20.9009 16.2411 22.4488 15.1329 23.7428 15.9722C24.7338 16.6079 24.742 18.0258 25.0614 19.0281C25.5037 20.4216 26.3882 21.5217 27.8542 22.0106C28.4275 22.2062 29.0418 22.2714 29.6396 22.1899C32.7436 21.7825 33.9558 18.2621 33.145 15.5974C32.3751 13.063 30.0983 10.8628 27.4365 10.4228C23.6609 9.80343 19.7133 12.46 18.5995 16.1026C17.4775 19.7452 19.0745 23.9583 22.154 26.2237C25.2334 28.4973 29.5332 28.8477 33.0794 27.4216C38.2801 25.3354 41.6216 19.5822 41.2039 14.0165C40.7862 8.45069 36.8387 3.39016 31.6626 1.24697C26.4865 -0.904373 20.303 -0.219856 15.5037 2.67304C8.83701 6.7068 5.03685 14.9862 6.34725 22.6544C7.32186 28.3343 11.0237 33.3215 15.9869 36.2225C25.4382 41.7557 37.1581 38.5776 45.9378 33.297C54.7174 28.0083 62.0966 20.609 71.3677 16.1026C75.0287 14.3261 78.9762 12.9897 83.0385 12.8267C87.1089 12.6637 91.3186 13.7475 94.439 16.3552C97.5594 18.9629 99.4021 23.1922 98.6241 27.169C99.1155 22.4344 96.0033 17.7732 91.7363 15.63C87.4693 13.4868 82.3178 13.5846 77.7641 15.0595C73.0057 16.5997 68.7879 19.517 64.9304 22.6137C63.8821 23.4612 62.801 24.2679 61.7281 25.091C51.5561 32.8325 40.5979 40.786 27.1253 40.3378C19.8444 40.0933 12.4734 37.0211 8.01801 31.2842C3.56265 25.5473 2.55528 17.0479 6.44553 10.9198C7.23996 9.67304 6.15069 9.11076 5.01228 9.40412C4.14414 9.6323 3.12858 10.1375 2.49795 10.7895C1.28583 12.0363 0.573295 13.772 0.270264 15.467C-0.556927 20.0793 0.491394 24.8628 2.75184 28.9373L2.76003 28.9292ZM21.638 14.7091C24.4226 12.0444 29.6396 13.4134 30.4423 17.6754C30.5897 18.4495 31.1548 18.1154 31.0156 17.3494C30.2621 13.3319 26.6667 11.4658 23.3743 12.3541C24.57 11.7429 25.9296 11.474 27.2645 11.6858C29.5987 12.0607 31.7363 14.0491 32.154 16.3797C32.5061 18.3354 31.507 20.9594 29.1237 20.8779C27.7396 20.829 26.5848 19.8267 26.1998 18.5066C25.7985 17.1212 25.6265 15.5811 24.2097 14.8395C23.4234 14.4239 22.4816 14.4239 21.638 14.7091ZM9.38574 27.8127C7.80507 24.8058 7.03521 21.375 7.29729 17.9932C7.7805 11.7103 11.81 5.81856 17.4939 3.03975C22.113 0.782472 27.8051 0.619492 32.3751 2.95826C36.9451 5.29702 40.172 10.2353 40.0819 15.3529C40.0246 18.3273 38.7715 21.2446 36.7568 23.4204C36.6994 23.3145 36.6093 23.2248 36.4783 23.176C36.8059 22.7196 37.1089 22.2388 37.371 21.7173C40.8927 14.6684 35.9378 6.7068 28.9271 4.47397C21.597 2.14336 13.1777 5.71262 9.6642 12.5007C7.15806 17.3413 7.23177 23.0048 9.39393 27.8127H9.38574ZM47.412 29.0106C49.4431 26.6148 51.2613 23.9909 52.9893 21.375C57.8378 14.0165 63.2187 5.44371 72.3997 3.14568C73.5381 2.86047 75.217 2.37968 76.3227 3.00715C77.4775 3.65907 76.8714 5.0933 75.8395 5.48445C75.1679 5.74522 74.439 5.74522 73.7346 5.80226C71.8919 5.9408 70.1147 6.34825 68.4111 7.07351C64.439 8.74405 61.1875 11.6858 58.4685 14.9618C54.7093 19.4763 51.6216 24.8709 47.4201 29.0188L47.412 29.0106ZM5.08599 10.6835C2.30958 15.524 2.06388 21.5217 4.02948 26.7289C6.13431 32.2947 9.18099 34.9268 9.18099 34.9268C5.62653 31.9443 2.92383 27.8779 1.75266 23.3878C0.884515 19.9978 0.311214 11.4169 5.08599 10.6835Z" fill="#8C755E"/>
</g>
<defs>
<clipPath id="clip0_3_1849">
<rect width="100" height="42" fill="white"/>
</clipPath>
</defs>
</svg>
