<svg width="42" height="100" viewBox="0 0 42 100" fill="none" xmlns="http://www.w3.org/2000/svg">
<g clip-path="url(#clip0_3_1853)">
<path d="M13.071 97.2398C1.13272 90.6305 -2.08614 75.266 1.2305 62.8254C3.52038 54.2259 8.40163 46.5354 14.0082 39.6395C17.5285 35.3069 21.3912 31.1792 24.0151 26.2488C26.6391 21.3184 27.9104 15.2988 25.865 10.0981C23.8196 4.89745 17.7322 1.1628 12.5006 3.06288C16.1839 2.05551 20.4296 3.68533 22.4994 6.904C23.6647 8.71399 24.1618 11.0236 23.5506 13.0956C22.9395 15.1677 21.1304 16.904 18.9953 17.1579C16.8603 17.4118 14.5786 15.9703 14.1141 13.8655C13.6496 11.7607 15.3364 9.361 17.4878 9.32824C18.0745 9.32005 18.8161 9.97525 18.3597 10.3438C16.3795 9.77869 14.5704 12.5223 15.5809 14.3241C16.5914 16.1259 19.3702 16.3389 20.943 15.0121C22.5157 13.6853 22.915 11.302 22.3283 9.32005C21.4156 6.21603 18.2619 3.98016 15.0431 4.02111C11.8242 4.07025 8.78464 6.31432 7.67637 9.35281C6.56811 12.3913 7.38301 16.0113 9.59954 18.3536C10.83 19.6558 10.3574 21.1382 9.1106 19.9916C5.69616 16.863 4.50641 11.515 6.24215 7.20702C7.97788 2.89908 12.525 -0.0984653 17.1455 0.0243909C23.6321 0.19638 28.9453 6.14233 30.1106 12.5551C31.2759 18.9679 29.092 25.569 25.922 31.2611C24.5285 33.759 21.9779 37.2807 19.3295 40.8598C17.9197 42.7599 20.2829 45.1677 22.1898 43.7754C23.4284 42.8745 24.6426 41.9654 25.8242 40.999C30.2491 37.379 34.2421 32.637 34.9104 26.9449C35.0407 25.8557 35.0407 24.7418 35.4075 23.7099C35.8719 22.3995 37.1187 21.2038 38.6426 21.7689C39.2212 21.9818 39.6857 22.4159 39.9953 22.94C40.688 24.1194 40.5902 25.5199 40.3376 26.8139C39.3434 31.9572 36.1246 36.429 32.2782 39.9589C28.4319 43.497 23.9499 46.2324 19.6473 49.1808C11.376 54.8483 3.41444 62.3504 4.31083 73.3086C4.58789 76.7074 5.88359 81.9163 10.1944 81.7852C10.9849 81.7607 10.9767 82.678 10.1944 82.7025C9.1106 82.7353 8.18976 82.5305 7.40745 82.1538C9.37136 84.2422 12.2806 85.6673 15.3609 85.2005C16.135 85.0858 16.461 85.9621 15.6868 86.0768C13.6333 86.388 11.6531 86.1096 9.91735 85.3643C13.6414 88.5584 19.0931 89.6886 23.7707 87.2725C24.4715 86.9122 25.0908 87.6657 24.39 88.026C20.6903 89.9343 16.6158 90.0162 13.1036 88.6485C15.2957 90.0162 17.8463 90.8762 20.7066 91.0072C29.2061 91.4085 36.7928 84.9466 37.0291 76.2242C37.1432 72.2357 35.5786 68.1571 32.5471 65.5199C29.4342 62.809 24.6671 61.8426 20.8941 63.7017C20.3155 63.9884 19.7614 64.3405 19.248 64.7418C16.8848 66.5928 15.4016 69.4757 15.6868 72.5142C15.9476 75.2824 17.5856 77.8295 20.0384 79.1481C21.383 79.8688 23.0536 80.1063 24.5041 79.5658C25.759 79.0989 26.8673 77.551 26.0279 76.257C25.3923 75.266 23.9744 75.2578 22.9721 74.9384C21.5786 74.4961 20.4785 73.6116 19.9895 72.1456C19.7939 71.5723 19.7288 70.9581 19.8102 70.3602C20.2177 67.2562 23.7381 66.044 26.4028 66.8549C28.9371 67.6247 31.1374 69.9015 31.5774 72.5633C32.1967 76.3389 29.5402 80.2865 25.8976 81.4003C22.2549 82.5223 18.0419 80.9253 15.7765 77.8458C13.5029 74.7664 13.1525 70.4667 14.5786 66.9204C16.6647 61.7197 22.4179 58.3782 27.9837 58.7959C33.5495 59.2136 38.61 63.1612 40.7532 68.3372C42.9045 73.5133 42.22 79.6968 39.3271 84.4961C35.2934 91.1628 27.014 94.963 19.3458 93.6526C13.6659 92.678 8.6787 88.9761 5.77765 84.0129C0.244473 74.5617 3.42259 62.8418 8.70314 54.0621C13.9919 45.2824 21.3912 37.9032 25.8976 28.6321C27.674 24.9712 29.0105 21.0236 29.1735 16.9613C29.3364 12.8909 28.2526 8.68123 25.6449 5.56084C23.0373 2.44044 18.8079 0.597686 14.8312 1.37574C19.5658 0.884338 24.227 3.99654 26.3702 8.26353C28.5134 12.5305 28.4156 17.682 26.9406 22.2357C25.4005 26.9941 22.4831 31.2119 19.3865 35.0694C18.539 36.1178 17.7322 37.1988 16.9092 38.2717C9.16764 48.4437 1.21421 59.402 1.6624 72.8745C1.90687 80.1554 4.97905 87.5264 10.716 91.9818C16.4529 96.4372 24.9523 97.4445 31.0803 93.5543C32.3271 92.7599 32.8894 93.8491 32.596 94.9875C32.3679 95.8557 31.8626 96.8712 31.2107 97.5019C29.9639 98.714 28.2282 99.4265 26.5332 99.7296C21.9208 100.557 17.1374 99.5084 13.0629 97.248L13.071 97.2398ZM27.291 78.3618C29.9558 75.5772 28.5867 70.3602 24.3248 69.5576C23.5506 69.4101 23.8848 68.845 24.6508 68.9843C28.6682 69.7377 30.5343 73.3332 29.6461 76.6255C30.2573 75.4298 30.5262 74.0703 30.3143 72.7353C29.9395 70.4011 27.9511 68.2635 25.6205 67.8459C23.6647 67.4937 21.0407 68.4929 21.1222 70.8762C21.1711 72.2603 22.1735 73.4151 23.4936 73.8C24.8789 74.2013 26.4191 74.3733 27.1607 75.7902C27.5763 76.5764 27.5763 77.5182 27.291 78.3618ZM14.1874 90.6141C17.1944 92.1947 20.6251 92.9646 24.007 92.7025C30.2899 92.2193 36.1816 88.1898 38.9604 82.506C41.2177 77.8868 41.3807 72.1947 39.0419 67.6247C36.7031 63.0547 31.7648 59.8278 26.6473 59.9179C23.6729 59.9753 20.7555 61.2283 18.5797 63.2431C18.6857 63.3004 18.7753 63.3905 18.8242 63.5215C19.2806 63.1939 19.7614 62.8909 20.2829 62.6288C27.3318 59.1071 35.2934 64.0621 37.5262 71.0727C39.8568 78.4028 36.2875 86.8221 29.4994 90.3356C24.6589 92.8418 18.9953 92.768 14.1874 90.6059L14.1874 90.6141ZM12.9895 52.5879C15.3853 50.5567 18.0093 48.7386 20.6251 47.0105C27.9837 42.162 36.5565 36.7811 38.8545 27.6001C39.1397 26.4617 39.6205 24.7828 38.993 23.6771C38.3411 22.5223 36.9069 23.1284 36.5157 24.1603C36.2549 24.8319 36.2549 25.5608 36.1979 26.2652C36.0594 28.1079 35.6519 29.8852 34.9267 31.5887C33.2561 35.5608 30.3143 38.8123 27.0384 41.5313C22.5239 45.2906 17.1292 48.3782 12.9814 52.5797L12.9895 52.5879ZM31.3166 94.9138C26.4761 97.6902 20.4785 97.9359 15.2712 95.9703C9.70547 93.8655 7.07334 90.8188 7.07334 90.8188C10.0559 94.3733 14.1222 97.076 18.6123 98.2472C22.0023 99.1153 30.5832 99.6886 31.3166 94.9138Z" fill="#8C755E"/>
</g>
<defs>
<clipPath id="clip0_3_1853">
<rect width="100" height="42" fill="white" transform="matrix(1.19249e-08 -1 -1 -1.19249e-08 42 100)"/>
</clipPath>
</defs>
</svg>
