<svg width="100" height="42" viewBox="0 0 100 42" fill="none" xmlns="http://www.w3.org/2000/svg">
<g clip-path="url(#clip0_5_2293)">
<path d="M97.24 28.9289C90.6306 40.8672 75.2662 44.0861 62.8256 40.7694C54.2261 38.4795 46.5356 33.5983 39.6396 27.9918C35.3071 24.4714 31.1794 20.6088 26.249 17.9848C21.3186 15.3608 15.2989 14.0896 10.0983 16.135C4.89763 18.1804 1.16298 24.2677 3.06306 29.4993C2.05569 25.816 3.68551 21.5704 6.90418 19.5005C8.71417 18.3352 11.0238 17.8381 13.0958 18.4493C15.1679 19.0605 16.9042 20.8695 17.1581 23.0046C17.412 25.1396 15.9705 27.4213 13.8657 27.8858C11.7609 28.3503 9.36118 26.6635 9.32842 24.5121C9.32023 23.9254 9.97543 23.1839 10.344 23.6402C9.77887 25.6204 12.5225 27.4295 14.3243 26.419C16.1261 25.4085 16.3391 22.6297 15.0123 21.057C13.6855 19.4842 11.3022 19.0849 9.32023 19.6716C6.21622 20.5843 3.98034 23.738 4.02129 26.9569C4.07043 30.1757 6.3145 33.2153 9.35299 34.3236C12.3915 35.4318 16.0115 34.6169 18.3538 32.4004C19.656 31.1699 21.1384 31.6425 19.9918 32.8893C16.8632 36.3038 11.5152 37.4935 7.20721 35.7578C2.89926 34.022 -0.0982819 29.4749 0.0245743 24.8544C0.196564 18.3678 6.14251 13.0546 12.5553 11.8893C18.9681 10.724 25.5692 12.908 31.2613 16.0779C33.7592 17.4714 37.2809 20.022 40.86 22.6705C42.76 24.0802 45.1679 21.717 43.7756 19.8102C42.8747 18.5715 41.9656 17.3573 40.9992 16.1757C37.3792 11.7508 32.6372 7.75778 26.9451 7.08956C25.8559 6.95918 24.742 6.95918 23.7101 6.59247C22.3997 6.12798 21.2039 4.88118 21.769 3.35732C21.982 2.77874 22.4161 2.31424 22.9402 2.00458C24.1196 1.31191 25.5201 1.4097 26.8141 1.66232C31.9574 2.6565 36.4292 5.87536 39.9591 9.72169C43.4971 13.568 46.2326 18.05 49.181 22.3527C54.8485 30.6239 62.3505 38.5855 73.3088 37.6891C76.7076 37.412 81.9165 36.1163 81.7854 31.8055C81.7609 31.0151 82.6781 31.0232 82.7027 31.8055C82.7355 32.8893 82.5307 33.8102 82.154 34.5925C84.2424 32.6286 85.6675 29.7194 85.2007 26.639C85.086 25.8649 85.9623 25.5389 86.077 26.3131C86.3882 28.3666 86.1098 30.3468 85.3645 32.0826C88.5586 28.3585 89.6888 22.9068 87.2727 18.2293C86.9124 17.5284 87.6659 16.9091 88.0262 17.6099C89.9345 21.3096 90.0164 25.3841 88.6487 28.8963C90.0164 26.7042 90.8763 24.1536 91.0074 21.2933C91.4087 12.7939 84.9468 5.20714 76.2244 4.97082C72.2359 4.85673 68.1573 6.42134 65.5201 9.45278C62.8092 12.5657 61.8428 17.3329 63.7019 21.1059C63.9885 21.6844 64.3407 22.2386 64.742 22.752C66.593 25.1152 69.4758 26.5983 72.5143 26.3131C75.2826 26.0523 77.8297 24.4144 79.1482 21.9615C79.869 20.6169 80.1065 18.9464 79.5659 17.4958C79.0991 16.2409 77.5512 15.1326 76.2572 15.972C75.2662 16.6076 75.258 18.0255 74.9386 19.0279C74.4963 20.4213 73.6118 21.5215 72.1458 22.0104C71.5725 22.206 70.9582 22.2712 70.3604 22.1897C67.2564 21.7822 66.0442 18.2619 66.855 15.5971C67.6249 13.0628 69.9017 10.8626 72.5635 10.4225C76.3391 9.80318 80.2867 12.4598 81.4005 16.1024C82.5225 19.745 80.9255 23.958 77.846 26.2234C74.7666 28.497 70.4668 28.8474 66.9206 27.4213C61.7199 25.3352 58.3784 19.582 58.7961 14.0162C59.2138 8.45045 63.1613 3.38991 68.3374 1.24672C73.5135 -0.904617 79.697 -0.2201 84.4963 2.6728C91.163 6.70656 94.9632 14.986 93.6527 22.6542C92.6781 28.334 88.9763 33.3212 84.0131 36.2223C74.5618 41.7555 62.8419 38.5773 54.0622 33.2968C45.2826 28.0081 37.9034 20.6088 28.6323 16.1024C24.9713 14.3259 21.0238 12.9894 16.9615 12.8265C12.8911 12.6635 8.68141 13.7473 5.56102 16.355C2.44063 18.9627 0.59787 23.192 1.37592 27.1687C0.884521 22.4341 3.99672 17.7729 8.26372 15.6297C12.5307 13.4865 17.6822 13.5843 22.2359 15.0593C26.9943 16.5995 31.2121 19.5168 35.0696 22.6134C36.1179 23.4609 37.199 24.2677 38.2719 25.0907C48.4439 32.8323 59.4021 40.7857 72.8747 40.3375C80.1556 40.0931 87.5266 37.0209 91.982 31.284C96.4374 25.5471 97.4447 17.0477 93.5545 10.9196C92.76 9.6728 93.8493 9.11052 94.9877 9.40388C95.8559 9.63205 96.8714 10.1373 97.5021 10.7892C98.7142 12.036 99.4267 13.7717 99.7297 15.4667C100.557 20.0791 99.5086 24.8626 97.2482 28.9371L97.24 28.9289ZM78.362 14.7089C75.5774 12.0442 70.3604 13.4132 69.5577 17.6751C69.4103 18.4493 68.8452 18.1152 68.9844 17.3492C69.7379 13.3317 73.3333 11.4656 76.6257 12.3538C75.43 11.7426 74.0704 11.4737 72.7355 11.6856C70.4013 12.0605 68.2637 14.0488 67.846 16.3794C67.4939 18.3352 68.493 20.9592 70.8763 20.8777C72.2604 20.8288 73.4152 19.8265 73.8002 18.5063C74.2015 17.121 74.3735 15.5808 75.7903 14.8393C76.5766 14.4237 77.5184 14.4237 78.362 14.7089ZM90.6143 27.8125C92.1949 24.8055 92.9648 21.3748 92.7027 17.9929C92.2195 11.7101 88.19 5.81832 82.5061 3.0395C77.887 0.782228 72.1949 0.619248 67.6249 2.95801C63.0549 5.29678 59.828 10.2351 59.9181 15.3527C59.9754 18.327 61.2285 21.2444 63.2432 23.4202C63.3006 23.3142 63.3907 23.2246 63.5217 23.1757C63.1941 22.7194 62.8911 22.2386 62.629 21.717C59.1073 14.6681 64.0622 6.70656 71.0729 4.47373C78.403 2.14311 86.8223 5.71238 90.3358 12.5005C92.8419 17.341 92.7682 23.0046 90.6061 27.8125H90.6143ZM52.588 29.0104C50.5569 26.6146 48.7387 23.9906 47.0107 21.3748C42.1622 14.0162 36.7813 5.44346 27.6003 3.14544C26.4619 2.86023 24.783 2.37943 23.6773 3.00691C22.5225 3.65883 23.1286 5.09305 24.1605 5.48421C24.8321 5.74498 25.561 5.74498 26.2654 5.80202C28.1081 5.94055 29.8853 6.348 31.5889 7.07326C35.561 8.74381 38.8125 11.6856 41.5315 14.9615C45.2907 19.4761 48.3784 24.8707 52.5799 29.0185L52.588 29.0104ZM94.914 10.6833C97.6904 15.5238 97.9361 21.5215 95.9705 26.7287C93.8657 32.2944 90.819 34.9266 90.819 34.9266C94.3735 31.944 97.0762 27.8777 98.2473 23.3876C99.1155 19.9976 99.6888 11.4167 94.914 10.6833Z" fill="#8C755E"/>
</g>
<defs>
<clipPath id="clip0_5_2293">
<rect width="100" height="42" fill="white" transform="matrix(-1 0 0 1 100 0)"/>
</clipPath>
</defs>
</svg>
