<svg width="55" height="55" viewBox="0 0 55 55" fill="none" xmlns="http://www.w3.org/2000/svg">
<path d="M36.682 36.3392C42.5347 27.1554 41.7989 28.3012 41.9676 28.0617C44.0984 25.0563 45.2246 21.519 45.2246 17.832C45.2246 8.05449 37.2903 0 27.5 0C17.7416 0 9.77539 8.03859 9.77539 17.832C9.77539 21.5166 10.9252 25.1465 13.1259 28.1924L18.3178 36.3393C12.7668 37.1924 3.33008 39.7345 3.33008 45.332C3.33008 47.3725 4.66189 50.2804 11.0067 52.5464C15.437 54.1286 21.2943 55 27.5 55C39.1042 55 51.6699 51.7266 51.6699 45.332C51.6699 39.7335 42.2443 37.1941 36.682 36.3392ZM15.8178 26.4199C15.8 26.3922 15.7816 26.3651 15.7622 26.3384C13.931 23.8192 12.998 20.8335 12.998 17.832C12.998 9.77346 19.487 3.22266 27.5 3.22266C35.4964 3.22266 42.002 9.77636 42.002 17.832C42.002 20.8383 41.0866 23.7227 39.3544 26.1756C39.1992 26.3803 40.0091 25.1222 27.5 44.7508L15.8178 26.4199ZM27.5 51.7773C14.8249 51.7773 6.55273 48.0516 6.55273 45.332C6.55273 43.5041 10.8032 40.4986 20.222 39.327L26.1411 48.6151C26.437 49.0793 26.9494 49.3604 27.4999 49.3604C28.0504 49.3604 28.5629 49.0792 28.8587 48.6151L34.7777 39.327C44.1967 40.4986 48.4473 43.5041 48.4473 45.332C48.4473 48.0285 40.2496 51.7773 27.5 51.7773Z" fill="#B78B49"/>
<path d="M27.5 9.77539C23.0576 9.77539 19.4434 13.3896 19.4434 17.832C19.4434 22.2745 23.0576 25.8887 27.5 25.8887C31.9424 25.8887 35.5566 22.2745 35.5566 17.832C35.5566 13.3896 31.9424 9.77539 27.5 9.77539ZM27.5 22.666C24.8345 22.666 22.666 20.4975 22.666 17.832C22.666 15.1666 24.8345 12.998 27.5 12.998C30.1655 12.998 32.334 15.1666 32.334 17.832C32.334 20.4975 30.1655 22.666 27.5 22.666Z" fill="#B78B49"/>
</svg>
