<svg width="43" height="43" viewBox="0 0 43 43" fill="none" xmlns="http://www.w3.org/2000/svg">
<path d="M42.7224 10.3221L32.9437 3.16699C32.7825 3.04833 32.5769 3.00768 32.3827 3.05611L20.6355 6.03577C20.276 6.12741 20.0588 6.49317 20.1504 6.85268C20.1888 7.00341 20.2784 7.13618 20.4038 7.22823L23.5143 9.49905L22.8425 12.9052C22.4763 14.8065 25.5298 17.8164 29.6448 18.6159C30.3666 18.7552 31.1 18.825 31.835 18.8242C32.9619 18.8312 34.0826 18.6565 35.1539 18.3069C36.7999 17.7593 37.8983 16.8456 38.0899 15.8681L38.7617 12.4719L42.4938 11.528C42.8534 11.4363 43.0706 11.0706 42.9789 10.7111C42.9405 10.5603 42.851 10.4276 42.7256 10.3355L42.7224 10.3221ZM36.7799 15.6095C36.7026 16.0025 35.9737 16.6172 34.7341 17.0305C33.1689 17.5204 31.5058 17.6105 29.8968 17.2925C26.1177 16.5568 24.0081 14.0005 24.1862 13.1607L24.7271 10.3759L30.1824 14.3801C30.2973 14.4648 30.4361 14.5106 30.5788 14.5111C30.6357 14.5115 30.6923 14.5036 30.7468 14.4876L37.3174 12.8248L36.7799 15.6095ZM30.7333 13.1103L22.3521 6.98305L32.4062 4.43674L40.7773 10.5606L30.7333 13.1103Z" fill="white"/>
<path d="M16.4265 18.9519C16.2209 19.0706 16.0932 19.289 16.0905 19.5264V31.512C16.0932 31.7494 16.2209 31.9677 16.4265 32.0864C16.5275 32.1489 16.6436 32.1826 16.7624 32.1838C16.8709 32.1848 16.9781 32.1595 17.0748 32.1099L28.5297 26.1137C28.8581 25.9409 28.9842 25.5347 28.8114 25.2064C28.7481 25.0861 28.6498 24.9879 28.5297 24.9246L17.0849 18.9284C16.8764 18.8208 16.6268 18.8296 16.4265 18.9519ZM17.4343 20.6315L26.7695 25.5191L17.4444 30.4034L17.4343 20.6315Z" fill="white"/>
<path d="M40.9823 35.9326H37.5324C37.5921 35.7446 37.6227 35.5486 37.6231 35.3514V19.8084C37.6231 19.4373 37.3223 19.1365 36.9512 19.1365C36.5801 19.1365 36.2793 19.4373 36.2793 19.8084V35.3514C36.2738 35.6778 36.0046 35.938 35.6782 35.9325C35.6781 35.9325 35.6781 35.9325 35.678 35.9325H5.976C5.64952 35.9381 5.38029 35.678 5.37468 35.3515C5.37468 35.3514 5.37468 35.3514 5.37468 35.3514V15.0147C5.38021 14.6882 5.64936 14.4281 5.97584 14.4336H5.976H20.827C21.1981 14.4336 21.4989 14.1328 21.4989 13.7617C21.4989 13.3907 21.1981 13.0899 20.827 13.0899H5.976C4.90814 13.0862 4.03839 13.9469 4.03101 15.0146V35.3513C4.03141 35.5485 4.06196 35.7445 4.12169 35.9324H0.671875C0.30082 35.9324 0 36.2332 0 36.6043V36.7722C0 38.2839 1.18917 39.9635 2.78475 39.9635H38.8693C40.4649 39.9635 41.6541 38.2839 41.6541 36.7722V36.6043C41.6541 36.2334 41.3533 35.9326 40.9823 35.9326ZM38.8693 38.6199H2.78475C2.20364 38.6199 1.61242 38.0018 1.41422 37.2762H40.2399C40.0417 38.0018 39.4504 38.6199 38.8693 38.6199Z" fill="white"/>
</svg>
