<svg width="14" height="14" viewBox="0 0 14 14" fill="none" xmlns="http://www.w3.org/2000/svg">
<path d="M6.99999 0C4.42683 0 2.33331 2.09352 2.33331 4.66668C2.33331 5.43914 2.52644 6.20504 2.89359 6.88436L6.74479 13.8496C6.79606 13.9425 6.89376 14 6.99999 14C7.10622 14 7.20392 13.9425 7.25519 13.8496L11.1078 6.88207C11.4735 6.20504 11.6667 5.43911 11.6667 4.66665C11.6667 2.09352 9.57314 0 6.99999 0ZM6.99999 7C5.71341 7 4.66666 5.95325 4.66666 4.66668C4.66666 3.3801 5.71341 2.33335 6.99999 2.33335C8.28657 2.33335 9.33331 3.3801 9.33331 4.66668C9.33331 5.95325 8.28657 7 6.99999 7Z" fill="#8C755E"/>
</svg>
