<svg width="43" height="43" viewBox="0 0 43 43" fill="none" xmlns="http://www.w3.org/2000/svg">
<g clip-path="url(#clip0_3_1983)">
<path d="M37.2714 5.7222C26.8078 5.7222 22.1165 0.32193 22.0498 0.243789C21.7774 -0.0823917 21.2218 -0.0816749 20.9494 0.244506C20.9036 0.298989 16.2632 5.72148 5.7286 5.72148C5.33288 5.72148 5.01172 6.04265 5.01172 6.43836V20.1201C5.01172 27.5993 8.3739 34.7072 14.0057 39.1325C16.2761 40.9168 18.7285 42.2079 21.2957 42.9692C21.3624 42.9893 21.4312 42.9993 21.5 42.9993C21.5688 42.9993 21.6369 42.9893 21.7043 42.9692C24.2715 42.2072 26.7239 40.9168 28.9943 39.1325C34.6261 34.7064 37.9883 27.5993 37.9883 20.1201V6.43908C37.9883 6.04336 37.6671 5.7222 37.2714 5.7222ZM36.5545 20.1208C36.5545 27.1634 33.3974 33.8498 28.1082 38.0063C26.0414 39.6307 23.8191 40.8164 21.5 41.534C19.1809 40.8171 16.9586 39.6307 14.8918 38.0063C9.60263 33.8505 6.44548 27.1634 6.44548 20.1208V7.14808C15.2215 6.95309 19.9695 3.20738 21.5 1.73921C23.0305 3.2081 27.7785 6.95309 36.5545 7.14808V20.1208Z" fill="white"/>
<path d="M21.0971 5.72527C18.9357 7.19416 15.2452 9.08673 9.93957 9.76347C9.58112 9.80935 9.31301 10.114 9.31301 10.4746V20.1217C9.31301 26.2919 12.0608 32.1352 16.6639 35.7526C18.1135 36.8917 19.6526 37.7849 21.2383 38.4072C21.3229 38.4402 21.4111 38.4567 21.5 38.4567C21.5889 38.4567 21.6778 38.4402 21.7617 38.4072C23.346 37.7857 24.8858 36.8924 26.3368 35.7526C30.9392 32.1352 33.687 26.2919 33.687 20.1217V10.4746C33.687 10.114 33.4189 9.80935 33.0604 9.76347C27.7548 9.08673 24.0643 7.19416 21.9029 5.72527C21.6599 5.55967 21.3401 5.55967 21.0971 5.72527ZM32.2532 11.099V20.121C32.2532 25.8553 29.7104 31.2771 25.4507 34.6242C24.1905 35.6142 22.8628 36.4014 21.5 36.9655C20.1372 36.4006 18.8095 35.6142 17.55 34.6242C13.2903 31.2764 10.7468 25.8546 10.7468 20.1203V11.099C15.6925 10.3671 19.2597 8.62864 21.5 7.17768C23.7403 8.62864 27.3075 10.3671 32.2532 11.099Z" fill="white"/>
</g>
<defs>
<clipPath id="clip0_3_1983">
<rect width="43" height="43" fill="white"/>
</clipPath>
</defs>
</svg>
