<svg width="55" height="55" viewBox="0 0 55 55" fill="none" xmlns="http://www.w3.org/2000/svg">
<path d="M47.3194 38.7839C47.3131 38.7735 47.3069 38.763 47.3005 38.7524C47.2543 38.6769 47.207 38.6021 47.1585 38.5277C47.1319 38.4867 47.105 38.4458 47.0777 38.4051C47.0446 38.3558 47.011 38.3067 46.9768 38.258C46.9326 38.1947 46.8876 38.1322 46.842 38.0701C46.8283 38.0516 46.8156 38.0327 46.802 38.0143C46.7922 38.0013 46.7819 37.989 46.7721 37.976C46.7171 37.9031 46.6609 37.8312 46.6039 37.7601C46.5839 37.7352 46.5642 37.7101 46.5441 37.6855C46.4872 37.6161 46.4291 37.5478 46.3704 37.4801C46.3459 37.4519 46.3217 37.4234 46.297 37.3955C46.248 37.3403 46.1977 37.2862 46.1475 37.2323C46.11 37.1919 46.0728 37.1513 46.0347 37.1117C46.0061 37.082 45.9766 37.0532 45.9476 37.024C44.8351 35.898 43.4643 35.0757 41.9208 34.6213C41.8944 34.6135 41.8676 34.607 41.8404 34.602C41.8401 34.602 34.5575 33.2491 34.5572 33.249C34.5443 33.2466 34.5314 33.246 34.5185 33.244C34.1778 33.1885 33.8296 33.2342 33.5171 33.371C33.2636 33.0597 33.0966 32.6321 33.0966 32.237V30.9185C33.5569 30.6246 34.0039 30.2943 34.4353 29.9228C36.2401 28.3688 37.3767 26.1258 37.6219 23.6788C38.9471 23.6176 40.0062 22.5204 40.0062 21.1804V19.3018C40.0062 18.5421 39.6657 17.8391 39.0926 17.3699V13.0513C41.726 11.7536 42.2982 10.2405 42.2982 9.17297C42.2982 7.34121 40.5921 5.0484 37.8458 3.18914C36.0863 1.99815 32.4026 0 27.4999 0C22.5972 0 18.9136 1.99815 17.1541 3.18914C14.4077 5.04829 12.7017 7.3411 12.7017 9.17297C12.7017 10.2405 13.2739 11.7536 15.9072 13.0513V17.3699C15.3343 17.8391 14.9937 18.5421 14.9937 19.3018V21.1804C14.9937 22.5204 16.0528 23.6176 17.378 23.6788C17.6231 26.1258 18.7598 28.3689 20.5646 29.9228C20.996 30.2943 21.443 30.6246 21.9033 30.9185V32.237C21.9033 32.6321 21.7363 33.0596 21.4828 33.3709C21.1585 33.2288 20.7956 33.1833 20.4427 33.249L13.1596 34.602C13.1324 34.607 13.1056 34.6135 13.0792 34.6213C11.5365 35.0755 10.1663 35.8972 9.05405 37.0223C9.0243 37.0523 8.99422 37.0818 8.96489 37.1121C8.9273 37.1511 8.89066 37.1913 8.85371 37.231C8.8029 37.2856 8.7522 37.3402 8.70257 37.3959C8.67818 37.4234 8.65434 37.4516 8.63017 37.4794C8.57108 37.5474 8.51275 37.616 8.45571 37.6857C8.43562 37.7102 8.41607 37.7352 8.3962 37.7599C8.33905 37.8312 8.28276 37.9031 8.22776 37.976C8.21799 37.989 8.20768 38.0012 8.1979 38.0143C8.18415 38.0327 8.17147 38.0516 8.15794 38.0701C8.11229 38.1322 8.06728 38.1947 8.02313 38.258C7.98886 38.3069 7.95523 38.3561 7.92204 38.4054C7.89486 38.4459 7.86812 38.4866 7.84158 38.5275C7.79314 38.6019 7.74565 38.6769 7.69936 38.7524C7.69302 38.7629 7.68668 38.7734 7.68045 38.7838C6.79003 40.2511 6.32178 41.9172 6.32178 43.655V44.6372C6.32178 45.0824 6.68261 45.4431 7.12766 45.4431C7.57271 45.4431 7.93353 45.0823 7.93353 44.6372V43.655C7.93353 42.8695 8.04998 42.102 8.27428 41.3687C8.74855 41.7459 9.32411 41.9467 9.92234 41.9467C10.0179 41.9467 10.1143 41.9416 10.2107 41.9312C10.9163 41.8555 11.5503 41.5095 11.9958 40.9571L12.8728 39.8694C13.3183 39.3169 13.5219 38.624 13.4463 37.9183C13.3862 37.3576 13.1548 36.8424 12.7852 36.4307C13.0168 36.3365 13.2534 36.2516 13.4958 36.1788L18.143 35.3156L21.8306 40.4758C22.1997 40.9921 22.7776 41.2767 23.377 41.2767C23.6285 41.2767 23.8838 41.2267 24.1289 41.1226L24.3743 41.0183L25.4475 42.2659L23.8996 53.3881H13.7726V46.8533C13.7726 46.4082 13.4117 46.0475 12.9667 46.0475C12.5216 46.0475 12.1608 46.4082 12.1608 46.8533V53.3881H8.93707C8.38374 53.3881 7.93375 52.938 7.93375 52.3848V48.3872C7.93375 47.9421 7.57292 47.5813 7.12787 47.5813C6.68282 47.5813 6.32199 47.9422 6.32199 48.3872V52.3848C6.32199 53.8267 7.49515 55 8.93718 55H46.063C47.5051 55 48.6782 53.8267 48.6782 52.3848V43.6552C48.678 41.9173 48.2099 40.2512 47.3194 38.7839ZM11.618 38.8579L10.741 39.9457C10.5658 40.163 10.3165 40.299 10.0389 40.3289C9.76175 40.3585 9.48879 40.2786 9.27147 40.1033L8.93514 39.8321C9.00732 39.7034 9.08295 39.5771 9.1618 39.4533C9.16266 39.4519 9.16373 39.4505 9.16459 39.449C9.23227 39.3428 9.30349 39.2395 9.376 39.1371C9.39802 39.1062 9.41993 39.0752 9.44238 39.0445C9.50705 38.956 9.57354 38.8691 9.64176 38.7836C9.65937 38.7615 9.67667 38.739 9.6945 38.7171C9.77152 38.6227 9.85102 38.5305 9.93233 38.44C9.95607 38.4134 9.98024 38.3874 10.0043 38.3613C10.0849 38.274 10.1667 38.1879 10.2513 38.1045C10.2585 38.0973 10.2656 38.0899 10.2729 38.0827C10.5845 37.7771 10.9223 37.4971 11.284 37.246L11.4606 37.3884C11.6779 37.5636 11.814 37.8129 11.8438 38.0905C11.8733 38.368 11.7933 38.6404 11.618 38.8579ZM43.5394 37.3882L43.716 37.2457C44.0778 37.4969 44.4155 37.7768 44.7271 38.0825C44.7344 38.0896 44.7414 38.0971 44.7487 38.1043C44.8333 38.1878 44.9151 38.2739 44.9957 38.3611C45.0198 38.3872 45.0439 38.4132 45.0677 38.4397C45.149 38.5303 45.2285 38.6226 45.3055 38.7169C45.3233 38.7388 45.3406 38.7612 45.3582 38.7834C45.4265 38.8689 45.493 38.9559 45.5576 39.0443C45.5801 39.0749 45.6021 39.106 45.624 39.1369C45.6965 39.2393 45.7677 39.3427 45.8354 39.4487C45.8364 39.4501 45.8373 39.4515 45.8382 39.453C45.9172 39.5769 45.9928 39.7032 46.0649 39.8319L45.7285 40.1031C45.5111 40.2783 45.2384 40.3582 44.9611 40.3286C44.6835 40.2989 44.4342 40.1628 44.2589 39.9454L43.3819 38.8577C43.0201 38.4091 43.0909 37.75 43.5394 37.3882ZM33.9173 35.0246C33.9184 35.0238 33.9194 35.023 33.9205 35.0221L34.1314 34.8644C34.1689 34.8364 34.2169 34.8255 34.2626 34.8338L35.1079 34.9908L31.858 39.5387C31.7767 39.6525 31.6299 39.6938 31.5011 39.6391L29.1052 38.6213L33.9173 35.0246ZM27.4999 37.8087L22.8037 34.2986C23.2474 33.7162 23.5152 32.9749 23.5152 32.237V31.7652C24.7583 32.286 26.0865 32.5583 27.491 32.574C27.494 32.574 27.497 32.574 27.5 32.574C27.503 32.574 27.506 32.574 27.509 32.574C28.9135 32.5582 30.2417 32.2859 31.4848 31.7652V32.237C31.4848 32.975 31.7526 33.7162 32.1962 34.2986L27.4999 37.8087ZM29.0687 40.357L28.3346 41.2105H26.6655L25.9314 40.357L27.5 39.6907L29.0687 40.357ZM15.9072 11.2142C14.8715 10.5757 14.3135 9.87035 14.3135 9.17286C14.3135 7.72009 16.2543 5.7446 18.0576 4.52386C19.6642 3.43643 23.0272 1.61187 27.4999 1.61187C31.9726 1.61187 35.3356 3.43643 36.9422 4.52396C38.7455 5.74471 40.6863 7.7202 40.6863 9.17297C40.6863 9.87035 40.1283 10.5758 39.0925 11.2143V9.74875C39.0925 8.61061 38.3222 7.61879 37.2191 7.33681C35.1326 6.80357 31.0299 5.90896 26.9953 5.90734C26.9917 5.90734 26.9887 5.90734 26.985 5.90734C23.4913 5.90734 20.0203 6.67659 17.7233 7.3222C16.654 7.62276 15.9072 8.60825 15.9072 9.71867V11.2142ZM18.7023 14.0437C18.691 14.0365 18.6795 14.0294 18.6683 14.0222C18.6161 13.9888 18.5658 13.9552 18.517 13.9214C18.4971 13.9077 18.4774 13.8939 18.4581 13.8801C18.4181 13.8517 18.3793 13.8232 18.3417 13.7946C18.3159 13.7748 18.2908 13.755 18.2661 13.7353C18.2365 13.7116 18.2074 13.688 18.1794 13.6643C18.1497 13.6389 18.1214 13.6137 18.0937 13.5883C18.0729 13.5693 18.0518 13.5504 18.0321 13.5314C18.0005 13.5009 17.9709 13.4705 17.9422 13.4401C17.9285 13.4256 17.9141 13.411 17.901 13.3965C17.8996 13.3949 17.8984 13.3933 17.897 13.3917H31.4272C31.8723 13.3917 32.2331 13.0309 32.2331 12.5859C32.2331 12.1407 31.8723 11.78 31.4272 11.78H17.5191V9.71878C17.5191 9.32733 17.7824 8.97993 18.1595 8.87401C20.3591 8.25569 23.6746 7.51921 26.985 7.51921C26.988 7.51921 26.9916 7.51921 26.9946 7.51921C30.8531 7.52082 34.8067 8.38396 36.8199 8.89851C37.2089 8.99787 37.4806 9.34753 37.4806 9.74875V11.7799H35.3192C34.8742 11.7799 34.5134 12.1407 34.5134 12.5858C34.5134 13.031 34.8742 13.3917 35.3193 13.3917H37.1032C37.1018 13.3934 37.1006 13.395 37.0992 13.3965C37.0861 13.411 37.0717 13.4256 37.058 13.4401C37.0292 13.4705 36.9997 13.5009 36.9682 13.5314C36.9484 13.5504 36.9273 13.5693 36.9065 13.5883C36.8788 13.6137 36.8505 13.6389 36.8208 13.6643C36.7929 13.688 36.7637 13.7116 36.7341 13.7353C36.7094 13.755 36.6844 13.7748 36.6585 13.7946C36.6209 13.8232 36.5821 13.8517 36.5421 13.8801C36.5228 13.8938 36.5031 13.9077 36.4833 13.9214C36.4343 13.9552 36.3841 13.9888 36.3319 14.0222C36.3207 14.0294 36.3093 14.0365 36.298 14.0437C35.963 14.2545 35.5639 14.4578 35.1078 14.6464C35.0983 14.6504 35.0897 14.656 35.0803 14.6603C33.3536 15.3721 30.7589 15.9099 27.5001 15.9099C24.2414 15.9099 21.6466 15.3721 19.9199 14.6603C19.9105 14.656 19.9019 14.6504 19.8924 14.6464C19.4363 14.4578 19.0372 14.2545 18.7023 14.0437ZM18.7783 15.9165V17.4866C18.3352 17.2569 17.8868 17.1334 17.5192 17.0673V15.1945C17.8649 15.4402 18.2806 15.6827 18.7783 15.9165ZM36.2216 15.9164C36.7193 15.6827 37.1349 15.4402 37.4807 15.1945V17.0671C37.1131 17.1331 36.6647 17.2568 36.2216 17.4865V15.9164ZM21.6163 28.7013C19.9658 27.2802 18.9909 25.1505 18.9417 22.8582C18.9324 22.42 18.5743 22.0696 18.136 22.0696H17.4948C17.0046 22.0696 16.6056 21.6708 16.6056 21.1804V19.3018C16.6056 19.0314 16.7275 18.7809 16.9326 18.614C17.2167 18.6391 17.7472 18.7243 18.1971 19.01C18.2016 19.0129 18.206 19.0157 18.2105 19.0186C18.274 19.0596 18.3356 19.1049 18.3948 19.1544C18.4017 19.1601 18.4086 19.1659 18.4153 19.1718C18.4441 19.1966 18.4724 19.2222 18.4998 19.2492C18.5237 19.2729 18.5488 19.2949 18.5743 19.316C18.5818 19.3222 18.5895 19.328 18.5971 19.334C18.6164 19.3491 18.6361 19.3635 18.6562 19.3772C18.6641 19.3826 18.6719 19.388 18.6799 19.3932C18.7072 19.4108 18.7348 19.4275 18.7633 19.4424C18.7634 19.4425 18.7636 19.4426 18.7637 19.4427C18.7926 19.4579 18.8221 19.4714 18.8521 19.4839C18.8604 19.4873 18.8688 19.4904 18.8771 19.4936C18.8999 19.5025 18.9228 19.5106 18.946 19.5179C18.9547 19.5207 18.9633 19.5235 18.9721 19.526C19.0025 19.5348 19.0331 19.5425 19.0641 19.5486C19.0646 19.5487 19.065 19.5488 19.0656 19.549C19.0974 19.5552 19.1295 19.5596 19.1617 19.563C19.1704 19.564 19.1791 19.5645 19.1877 19.5652C19.2121 19.5672 19.2366 19.5684 19.2612 19.5687C19.2668 19.5688 19.2722 19.5695 19.2777 19.5695C19.2813 19.5695 19.2849 19.5689 19.2885 19.5689C19.3201 19.5686 19.3519 19.5673 19.3837 19.5643C19.3846 19.5642 19.3855 19.5642 19.3862 19.5642C19.4188 19.561 19.4513 19.5559 19.4838 19.5497C19.4929 19.548 19.502 19.5458 19.5111 19.5439C19.5352 19.5386 19.5592 19.5326 19.5831 19.5259C19.5926 19.5232 19.602 19.5206 19.6115 19.5176C19.6433 19.5075 19.6749 19.4965 19.7061 19.4835C20.1216 19.31 20.3901 18.9074 20.3901 18.4575V16.5302C22.4652 17.1837 25.0168 17.5217 27.4999 17.5217C29.9829 17.5217 32.5345 17.1837 34.6097 16.5302V18.4575C34.6097 18.9074 34.8782 19.3102 35.2937 19.4835C35.325 19.4966 35.3568 19.5077 35.3887 19.5178C35.3978 19.5206 35.4068 19.5231 35.4158 19.5258C35.4403 19.5327 35.4649 19.539 35.4896 19.5442C35.4982 19.5461 35.5068 19.5481 35.5155 19.5497C35.5807 19.5622 35.6464 19.5685 35.712 19.569C35.7153 19.569 35.7187 19.5696 35.7221 19.5696C35.7272 19.5696 35.7324 19.5689 35.7376 19.5688C35.7629 19.5685 35.788 19.5672 35.8132 19.5652C35.8213 19.5645 35.8295 19.564 35.8377 19.5631C35.9021 19.5564 35.9658 19.5439 36.0281 19.5259C36.0366 19.5234 36.045 19.5207 36.0535 19.518C36.0769 19.5107 36.1 19.5024 36.123 19.4935C36.1312 19.4903 36.1396 19.4872 36.1478 19.4838C36.1778 19.4713 36.2074 19.4578 36.2363 19.4426C36.2365 19.4425 36.2367 19.4424 36.2369 19.4423C36.2653 19.4274 36.2929 19.4107 36.3201 19.3932C36.3281 19.388 36.336 19.3825 36.344 19.3771C36.364 19.3634 36.3837 19.349 36.4029 19.334C36.4106 19.328 36.4184 19.3221 36.4259 19.3158C36.4515 19.2947 36.4765 19.2728 36.5003 19.2491C36.5274 19.2223 36.5556 19.197 36.584 19.1724C36.5914 19.166 36.599 19.1597 36.6065 19.1533C36.6329 19.1312 36.6596 19.1098 36.687 19.0895C36.6896 19.0876 36.692 19.0856 36.6946 19.0837C36.7242 19.0619 36.7544 19.0415 36.7849 19.0216C36.7931 19.0163 36.8013 19.0111 36.8096 19.0058C36.8368 18.9888 36.8643 18.9722 36.8919 18.9565C36.8959 18.9543 36.8998 18.9518 36.9039 18.9495C36.9354 18.932 36.9671 18.9155 36.999 18.8997C37.0069 18.8957 37.0149 18.892 37.0228 18.8881C37.0514 18.8743 37.0801 18.861 37.1088 18.8486C37.1128 18.8468 37.1166 18.845 37.1206 18.8433C37.1537 18.8291 37.1868 18.8159 37.2197 18.8033C37.2257 18.8011 37.2315 18.7989 37.2374 18.7968C37.2687 18.7851 37.3 18.774 37.3311 18.7637C37.3329 18.7632 37.3346 18.7625 37.3363 18.762C37.3712 18.7505 37.4059 18.7399 37.4402 18.73C37.4415 18.7296 37.4428 18.7292 37.444 18.7289C37.6895 18.6584 37.9144 18.6274 38.0674 18.6137C38.2726 18.7808 38.3945 19.0312 38.3945 19.3017V21.1803C38.3945 21.6706 37.9955 22.0695 37.5053 22.0695H36.8641C36.4257 22.0695 36.0678 22.4199 36.0584 22.8581C36.0092 25.1504 35.0344 27.2801 33.3838 28.7012C31.6723 30.1749 29.6929 30.9356 27.5002 30.962C25.3073 30.9357 23.3281 30.1751 21.6163 28.7013ZM23.4986 39.6391C23.3696 39.6937 23.223 39.6523 23.1418 39.5388L19.8918 34.991L20.7371 34.8339C20.7831 34.8255 20.8309 34.8365 20.8684 34.8645L21.0793 35.0221C21.0805 35.023 21.0815 35.0238 21.0827 35.0247L25.8945 38.6213L23.4986 39.6391ZM25.5269 53.3881L26.9972 42.8223H28.0026L29.4729 53.3881H25.5269ZM46.0629 53.3881H42.8394V46.8533C42.8394 46.4082 42.4786 46.0475 42.0335 46.0475C41.5885 46.0475 41.2277 46.4082 41.2277 46.8533V53.3881H31.1005L29.5526 42.2659L30.6258 41.0183L30.8712 41.1226C31.1164 41.2267 31.3715 41.2767 31.623 41.2767C32.2223 41.2767 32.8005 40.9922 33.1695 40.4757L36.857 35.3156L41.5042 36.1788C41.7466 36.2516 41.9833 36.3365 42.2149 36.4307C41.3626 37.3829 41.2993 38.8429 42.1269 39.8693L43.004 40.9571C43.4495 41.5095 44.0834 41.8554 44.789 41.9311C44.8855 41.9415 44.9817 41.9466 45.0774 41.9466C45.6755 41.9466 46.2511 41.7456 46.7254 41.3686C46.9497 42.1019 47.0661 42.8694 47.0661 43.6549V52.3848H47.0662C47.0664 52.938 46.6161 53.3881 46.0629 53.3881Z" fill="#B78B49"/>
<path d="M38.5009 46.0475H34.2567C33.5308 46.0475 32.9402 46.6381 32.9402 47.364V49.6252C32.9402 50.3511 33.5308 50.9417 34.2567 50.9417H38.5009C39.2268 50.9417 39.8173 50.3511 39.8173 49.6252V47.364C39.8173 46.638 39.2267 46.0475 38.5009 46.0475ZM34.5518 49.3298V47.6592H38.2054V49.3298H34.5518Z" fill="#B78B49"/>
<path d="M20.7433 46.0474H16.4991C15.7732 46.0474 15.1827 46.638 15.1827 47.3639V49.625C15.1827 50.351 15.7733 50.9416 16.4991 50.9416H20.7433C21.4692 50.9416 22.0598 50.351 22.0598 49.625V47.3639C22.0599 46.638 21.4692 46.0474 20.7433 46.0474ZM20.4481 49.3297H16.7945V47.6592H20.4481V49.3297Z" fill="#B78B49"/>
</svg>
