<svg width="55" height="55" viewBox="0 0 55 55" fill="none" xmlns="http://www.w3.org/2000/svg">
<path d="M51.3324 20.3992H46.501V7.6343C46.501 5.67128 44.904 4.07422 42.9409 4.07422H3.66755C1.70448 4.07422 0.107422 5.67128 0.107422 7.6343V11.6854V16.9744V31.0408C0.107422 33.0039 1.70448 34.6009 3.66755 34.6009H8.49897V47.3658C8.49897 49.3288 10.096 50.9259 12.0591 50.9259H51.3324C53.2955 50.9259 54.8926 49.3288 54.8926 47.3658V23.9593C54.8926 21.9963 53.2955 20.3992 51.3324 20.3992ZM3.66755 5.79297H42.9409C43.9562 5.79297 44.7823 6.61898 44.7823 7.6343V10.8261H1.82617V7.6343C1.82617 6.61898 2.65219 5.79297 3.66755 5.79297ZM1.82617 12.5448H44.6698V16.115H1.82617V12.5448ZM8.49897 23.9593V32.8822H3.66755C2.65219 32.8822 1.82617 32.0561 1.82617 31.0408V17.8338H44.7823V20.3992H12.0591C10.096 20.3992 8.49897 21.9963 8.49897 23.9593ZM53.1738 47.3658C53.1738 48.3811 52.3478 49.2071 51.3324 49.2071H12.0591C11.0438 49.2071 10.2177 48.3811 10.2177 47.3658V23.9593C10.2177 22.944 11.0438 22.1179 12.0591 22.1179H51.3324C52.3478 22.1179 53.1738 22.944 53.1738 23.9593V47.3658Z" fill="#B78B49"/>
<path d="M16.2227 32.6958H24.3423C25.3126 32.6958 26.1019 31.9065 26.1019 30.9362V28.4859C26.1019 27.5156 25.3126 26.7262 24.3423 26.7262H16.2227C15.2525 26.7262 14.4631 27.5156 14.4631 28.4859V30.9362C14.4631 31.9065 15.2525 32.6958 16.2227 32.6958ZM16.1818 28.4859C16.1818 28.4633 16.2002 28.4449 16.2227 28.4449H24.3423C24.3649 28.4449 24.3832 28.4633 24.3832 28.4859V30.9362C24.3832 30.9588 24.3649 30.9771 24.3423 30.9771H16.2227C16.2002 30.9771 16.1818 30.9588 16.1818 30.9362V28.4859Z" fill="#B78B49"/>
<path d="M19.2441 43.9182H13.8596C13.3849 43.9182 13.0002 44.3029 13.0002 44.7776C13.0002 45.2522 13.3849 45.637 13.8596 45.637H19.2441C19.7187 45.637 20.1035 45.2522 20.1035 44.7776C20.1035 44.3029 19.7187 43.9182 19.2441 43.9182Z" fill="#B78B49"/>
<path d="M29.34 43.9182H23.9556C23.4809 43.9182 23.0962 44.3029 23.0962 44.7776C23.0962 45.2522 23.4809 45.637 23.9556 45.637H29.34C29.8147 45.637 30.1994 45.2522 30.1994 44.7776C30.1994 44.3029 29.8147 43.9182 29.34 43.9182Z" fill="#B78B49"/>
<path d="M39.436 43.9182H34.0515C33.5768 43.9182 33.1921 44.3029 33.1921 44.7776C33.1921 45.2522 33.5768 45.637 34.0515 45.637H39.436C39.9106 45.637 40.2954 45.2522 40.2954 44.7776C40.2954 44.3029 39.9106 43.9182 39.436 43.9182Z" fill="#B78B49"/>
<path d="M49.532 43.9182H44.1475C43.6728 43.9182 43.2881 44.3029 43.2881 44.7776C43.2881 45.2522 43.6728 45.637 44.1475 45.637H49.532C50.0066 45.637 50.3914 45.2522 50.3914 44.7776C50.3914 44.3029 50.0066 43.9182 49.532 43.9182Z" fill="#B78B49"/>
</svg>
