<svg width="55" height="55" viewBox="0 0 55 55" fill="none" xmlns="http://www.w3.org/2000/svg">
<path d="M9.45312 53.1738H45.5469C47.569 53.1717 49.5077 52.3674 50.9376 50.9376C52.3674 49.5077 53.1717 47.569 53.1738 45.5469V9.45312C53.1717 7.43099 52.3674 5.4923 50.9376 4.06244C49.5077 2.63258 47.569 1.82833 45.5469 1.82617H9.45312C7.43099 1.82833 5.4923 2.63258 4.06244 4.06244C2.63258 5.4923 1.82833 7.43099 1.82617 9.45312V45.5469C1.82833 47.569 2.63258 49.5077 4.06244 50.9376C5.4923 52.3674 7.43099 53.1717 9.45312 53.1738ZM3.33008 9.45312C3.33201 7.82979 3.97774 6.27349 5.12561 5.12561C6.27349 3.97774 7.82979 3.33201 9.45312 3.33008H45.5469C47.1702 3.33201 48.7265 3.97774 49.8744 5.12561C51.0223 6.27349 51.668 7.82979 51.6699 9.45312V45.5469C51.668 47.1702 51.0223 48.7265 49.8744 49.8744C48.7265 51.0223 47.1702 51.668 45.5469 51.6699H9.45312C7.82979 51.668 6.27349 51.0223 5.12561 49.8744C3.97774 48.7265 3.33201 47.1702 3.33008 45.5469V9.45312Z" fill="#B78B49"/>
<path d="M17.6172 45.4017H22.8491C23.0485 45.4017 23.2398 45.3224 23.3808 45.1814C23.5218 45.0404 23.601 44.8491 23.601 44.6497V30.8679H29.2188C32.0393 30.8679 34.7443 29.7475 36.7387 27.7531C38.7331 25.7587 39.8535 23.0537 39.8535 20.2332C39.8535 17.4126 38.7331 14.7076 36.7387 12.7132C34.7443 10.7188 32.0393 9.59839 29.2188 9.59839H17.6172C17.4178 9.5985 17.2266 9.67776 17.0856 9.81876C16.9446 9.95975 16.8653 10.1509 16.8652 10.3503V44.6497C16.8653 44.8491 16.9446 45.0403 17.0856 45.1813C17.2266 45.3223 17.4178 45.4016 17.6172 45.4017ZM18.3691 11.1023H29.2188C31.6404 11.1023 33.9629 12.0643 35.6752 13.7767C37.3876 15.489 38.3496 17.8115 38.3496 20.2332C38.3496 22.6548 37.3876 24.9773 35.6752 26.6896C33.9629 28.402 31.6404 29.364 29.2188 29.364H22.8491C22.6497 29.3641 22.4585 29.4434 22.3175 29.5844C22.1765 29.7254 22.0972 29.9166 22.0971 30.116V43.8978H18.3691V11.1023Z" fill="#B78B49"/>
<path d="M22.8186 25.3589H29.4942C32.3383 25.3589 34.6504 22.9212 34.6504 19.9255C34.6504 16.9297 32.337 14.4921 29.4942 14.4921H22.8186C22.6192 14.4922 22.428 14.5714 22.287 14.7124C22.146 14.8534 22.0667 15.0446 22.0666 15.244V24.6069C22.0667 24.8063 22.146 24.9975 22.287 25.1385C22.428 25.2795 22.6192 25.3587 22.8186 25.3589ZM23.5705 15.996H29.4942C31.509 15.996 33.1465 17.7577 33.1465 19.9255C33.1465 22.0932 31.5077 23.855 29.4942 23.855H23.5705V15.996Z" fill="#B78B49"/>
</svg>
