<svg width="55" height="55" viewBox="0 0 55 55" fill="none" xmlns="http://www.w3.org/2000/svg">
<path d="M45.7032 9.24311C40.834 4.37356 34.3594 1.69189 27.4731 1.69189C20.5869 1.69189 14.1123 4.37356 9.24311 9.24311C4.37356 14.1123 1.69189 20.5869 1.69189 27.4731C1.69189 34.3594 4.37356 40.834 9.24311 45.7032C14.1123 50.5727 20.5869 53.2544 27.4731 53.2544C34.3594 53.2544 40.834 50.5727 45.7032 45.7032C50.5727 40.834 53.2544 34.3594 53.2544 27.4731C53.2544 20.5869 50.5727 14.1123 45.7032 9.24311ZM27.4731 51.2402C14.3679 51.2402 3.70605 40.5784 3.70605 27.4731C3.70605 14.3679 14.3679 3.70605 27.4731 3.70605C40.5784 3.70605 51.2402 14.3679 51.2402 27.4731C51.2402 40.5784 40.5784 51.2402 27.4731 51.2402Z" fill="#B78B49"/>
<path d="M13.8005 14.8075C14.0566 14.8075 14.3125 14.7109 14.5089 14.5164L14.5233 14.502C14.9186 14.1105 14.9221 13.4732 14.5306 13.0779C14.1391 12.6823 13.5015 12.6791 13.1065 13.0703L13.092 13.0848C12.6971 13.476 12.6936 14.1136 13.0848 14.5089C13.2821 14.7081 13.5411 14.8075 13.8005 14.8075Z" fill="#B78B49"/>
<path d="M41.858 13.0883C38.5432 9.77372 34.1532 7.69347 29.4971 7.23053C24.9054 6.7742 20.2574 7.89867 16.4091 10.3972C15.9424 10.7002 15.8099 11.324 16.1127 11.7904C16.4157 12.2568 17.0392 12.3893 17.5059 12.0865C24.7087 7.40992 34.3512 8.43022 40.4336 14.5127C47.5801 21.6592 47.5801 33.2872 40.4336 40.4333C33.2875 47.5801 21.6591 47.5801 14.513 40.4333C8.42171 34.3427 7.40707 24.6911 12.1001 17.4848C12.4041 17.0187 12.2722 16.395 11.8061 16.0916C11.3404 15.7879 10.716 15.9197 10.4126 16.3858C7.90558 20.2351 6.77513 24.8865 7.22926 29.4839C7.68969 34.1454 9.77025 38.54 13.0883 41.858C17.0543 45.8237 22.264 47.8067 27.4731 47.8067C32.6823 47.8067 37.892 45.8237 41.858 41.858C49.7897 33.926 49.7897 21.0203 41.858 13.0883Z" fill="#B78B49"/>
<path d="M41.0105 23.1883C40.7307 22.3244 39.9634 21.7661 39.0558 21.7661H31.6865L29.4281 14.7811C29.149 13.9169 28.3814 13.3583 27.4731 13.3583C26.5649 13.3583 25.7973 13.9169 25.5181 14.7811L23.2598 21.7661H15.8905C14.9825 21.7661 14.2156 22.3244 13.9358 23.1883C13.6566 24.0519 13.9506 24.9539 14.6864 25.486L20.6561 29.8033L18.3682 36.7933C18.0853 37.6569 18.3776 38.5605 19.1128 39.0948C19.4801 39.3614 19.9005 39.4948 20.321 39.4948C20.7427 39.4948 21.1644 39.3605 21.532 39.0923L27.4731 34.7559L33.4143 39.0923C34.1482 39.628 35.098 39.6289 35.8332 39.0948C36.5683 38.5605 36.861 37.6572 36.5781 36.7933L34.2898 29.8033L40.2596 25.4857C40.9951 24.9539 41.2896 24.0519 41.0105 23.1883ZM39.0794 23.8539L32.5142 28.6023C32.1592 28.8585 32.011 29.3148 32.1469 29.7315L34.664 37.4199C34.6687 37.4344 34.6694 37.4432 34.67 37.4432C34.6646 37.4571 34.636 37.4778 34.6237 37.4782C34.6215 37.4778 34.6136 37.4747 34.6014 37.4656L28.0667 32.6961C27.8901 32.5668 27.6815 32.5022 27.4731 32.5022C27.2648 32.5022 27.0561 32.5668 26.879 32.6961L20.3446 37.4656C20.3323 37.4747 20.3244 37.4778 20.3244 37.4782C20.31 37.4778 20.2813 37.4571 20.2769 37.4451C20.2763 37.4432 20.2775 37.4344 20.2823 37.4206L22.799 29.7315C22.9353 29.3155 22.7871 28.8585 22.4318 28.6023L15.8669 23.8543C15.8543 23.8451 15.8489 23.8388 15.8483 23.8388C15.8445 23.8253 15.8555 23.7913 15.865 23.7834C15.8669 23.7828 15.8754 23.7809 15.8905 23.7809H23.9927C24.4296 23.7809 24.8166 23.4989 24.951 23.0832L27.4341 15.4008C27.4388 15.3863 27.4432 15.379 27.4432 15.3787C27.4549 15.3705 27.4904 15.3705 27.5011 15.3775C27.5021 15.379 27.5071 15.3863 27.5115 15.4008L29.9946 23.0832C30.1293 23.4989 30.5164 23.7809 30.9532 23.7809H39.0552C39.07 23.7809 39.0782 23.7822 39.0791 23.7822C39.0904 23.7913 39.1014 23.825 39.0983 23.8369C39.0974 23.8385 39.0917 23.8448 39.0794 23.8539Z" fill="#B78B49"/>
</svg>
