<svg width="55" height="55" viewBox="0 0 55 55" fill="none" xmlns="http://www.w3.org/2000/svg">
<path d="M15.2304 39.5542C19.0478 41.4309 23.2462 42.4033 27.5 42.3958C32.6139 42.3295 37.6201 40.918 42.0155 38.3032C46.4108 35.6883 50.0402 31.9624 52.5388 27.5C51.1595 25.1027 49.4637 22.902 47.4971 20.9573C47.3781 20.8549 47.2815 20.7292 47.2131 20.588C47.1448 20.4467 47.1061 20.2929 47.0997 20.1361C47.0932 19.9793 47.119 19.8228 47.1755 19.6764C47.232 19.53 47.3179 19.3967 47.428 19.2849C47.5381 19.1731 47.67 19.0851 47.8155 19.0263C47.961 18.9676 48.1171 18.9393 48.274 18.9433C48.4308 18.9474 48.5852 18.9836 48.7275 19.0497C48.8698 19.1159 48.997 19.2106 49.1013 19.3279C51.3733 21.5779 53.3083 24.1444 54.8465 26.9477C54.9395 27.1169 54.9883 27.3069 54.9883 27.5C54.9883 27.6931 54.9395 27.8831 54.8465 28.0523C52.1933 33.0179 48.2564 37.1808 43.4464 40.1068C38.6365 43.0328 33.1296 44.6146 27.5 44.6875C22.8974 44.6949 18.3549 43.6426 14.2244 41.6121C14.089 41.546 13.9679 41.4539 13.868 41.3411C13.7682 41.2282 13.6916 41.0968 13.6425 40.9543C13.5935 40.8119 13.5729 40.6611 13.5821 40.5107C13.5914 40.3603 13.6301 40.2132 13.6961 40.0778C13.7622 39.9424 13.8543 39.8213 13.9671 39.7215C14.08 39.6216 14.2114 39.545 14.3539 39.4959C14.4964 39.4469 14.6471 39.4264 14.7975 39.4356C14.9479 39.4448 15.095 39.4835 15.2304 39.5496V39.5542ZM27.5 36.6667C29.8496 36.6699 32.1108 35.7708 33.8167 34.155C35.5225 32.5391 36.5427 30.3299 36.6667 27.9835C36.6744 27.8332 36.6524 27.6828 36.602 27.541C36.5516 27.3992 36.4737 27.2686 36.3728 27.1569C36.2719 27.0452 36.15 26.9544 36.0141 26.8898C35.8781 26.8252 35.7308 26.788 35.5804 26.7804C35.4294 26.7689 35.2777 26.7881 35.1344 26.837C34.991 26.8858 34.8591 26.9633 34.7466 27.0646C34.6341 27.166 34.5434 27.2891 34.4799 27.4266C34.4164 27.5641 34.3815 27.713 34.3773 27.8644C34.3185 28.9808 33.9883 30.066 33.4153 31.026C32.8424 31.986 32.044 32.7918 31.0893 33.3735C30.1346 33.9553 29.0525 34.2954 27.9367 34.3645C26.8208 34.4336 25.705 34.2295 24.6858 33.77C24.5479 33.702 24.3977 33.6625 24.2442 33.6538C24.0907 33.6451 23.937 33.6674 23.7923 33.7193C23.6476 33.7713 23.5148 33.8518 23.4019 33.9561C23.2889 34.0605 23.1981 34.1865 23.1349 34.3266C23.0717 34.4668 23.0373 34.6182 23.0338 34.7719C23.0303 34.9256 23.0578 35.0785 23.1147 35.2213C23.1715 35.3642 23.2565 35.4942 23.3646 35.6035C23.4727 35.7128 23.6017 35.7993 23.744 35.8577C24.924 36.3919 26.2046 36.6678 27.5 36.6667ZM54.8327 10.8625C54.9907 11.122 55.0391 11.4337 54.9674 11.7289C54.8956 12.0242 54.7095 12.2788 54.45 12.4369L21.246 32.6471L1.74167 44.5202C1.5625 44.6303 1.35615 44.6883 1.14584 44.6875C0.895937 44.6874 0.652911 44.6057 0.453791 44.4547C0.254671 44.3037 0.110374 44.0917 0.0428881 43.8511C-0.024598 43.6105 -0.0115729 43.3544 0.0799788 43.1219C0.17153 42.8894 0.336589 42.6931 0.550002 42.5631L8.35542 37.8125C5.01227 35.1208 2.22298 31.8062 0.142086 28.0523C0.0490054 27.8831 0.000198364 27.6931 0.000198364 27.5C0.000198364 27.3069 0.0490054 27.1169 0.142086 26.9477C2.79622 21.9804 6.73487 17.8164 11.547 14.8903C16.3592 11.9642 21.8685 10.3833 27.5 10.3125C33.6428 10.3201 39.6378 12.1977 44.6875 15.6956L53.2583 10.4798C53.5179 10.3218 53.8295 10.2734 54.1248 10.3451C54.42 10.4169 54.6747 10.603 54.8327 10.8625ZM32.6517 23.0221C32.0173 22.2739 31.2282 21.6722 30.3388 21.2584C29.4495 20.8445 28.4809 20.6284 27.5 20.625C26.373 20.6021 25.2583 20.8621 24.2577 21.3813C23.2572 21.9005 22.4028 22.6623 21.7727 23.597C21.1426 24.5316 20.7569 25.6094 20.6509 26.7316C20.5449 27.8538 20.7219 28.9847 21.1658 30.0208L32.6517 23.0221ZM42.5333 17.0087C38.0449 14.1367 32.8287 12.6084 27.5 12.6042C22.3861 12.6705 17.3799 14.082 12.9846 16.6968C8.58924 19.3117 4.95983 23.0376 2.46125 27.5C4.49276 31.0131 7.20016 34.0889 10.4271 36.5498L19.1354 31.2469C18.2252 29.2099 18.089 26.9108 18.7526 24.7807C19.4162 22.6505 20.8339 20.8355 22.7399 19.6758C24.646 18.5162 26.9096 18.0915 29.1064 18.4814C31.3032 18.8713 33.2823 20.049 34.6729 21.7937L42.5333 17.0087Z" fill="#B78B49"/>
</svg>
