<svg width="55" height="55" viewBox="0 0 55 55" fill="none" xmlns="http://www.w3.org/2000/svg">
<path d="M25.2235 33.5156H12.0312C11.556 33.5156 11.1719 33.1306 11.1719 32.6562C11.1719 32.1819 11.556 31.7969 12.0312 31.7969H25.2235C25.6987 31.7969 26.0829 32.1819 26.0829 32.6562C26.0829 33.1306 25.6979 33.5156 25.2235 33.5156Z" fill="white"/>
<path d="M25.2235 23.2031H12.0312C11.556 23.2031 11.1719 22.8181 11.1719 22.3438C11.1719 21.8694 11.556 21.4844 12.0312 21.4844H25.2235C25.6987 21.4844 26.0829 21.8694 26.0829 22.3438C26.0829 22.8181 25.6979 23.2031 25.2235 23.2031Z" fill="white"/>
<path d="M24.0625 28.3594H6.875C6.39977 28.3594 6.01562 27.9744 6.01562 27.5C6.01562 27.0256 6.39977 26.6406 6.875 26.6406H24.0625C24.5377 26.6406 24.9219 27.0256 24.9219 27.5C24.9219 27.9744 24.5377 28.3594 24.0625 28.3594Z" fill="white"/>
<path d="M32.6562 30.853C30.9487 30.853 29.2188 29.7015 29.2188 27.4998C29.2188 25.298 30.9487 24.1465 32.6562 24.1465C34.3638 24.1465 36.0938 25.298 36.0938 27.4998C36.0938 29.7015 34.3638 30.853 32.6562 30.853ZM32.6562 25.8652C31.863 25.8652 30.9375 26.2932 30.9375 27.4998C30.9375 28.7063 31.863 29.1343 32.6562 29.1343C33.4495 29.1343 34.375 28.7063 34.375 27.4998C34.375 26.2932 33.4495 25.8652 32.6562 25.8652Z" fill="white"/>
<path d="M34.479 26.5365C34.259 26.5365 34.039 26.4523 33.8714 26.2847C33.5354 25.9487 33.5354 25.4056 33.8714 25.0696L38.7329 20.2081C39.0689 19.8721 39.612 19.8721 39.948 20.2081C40.2841 20.5441 40.2841 21.0872 39.948 21.4232L35.0866 26.2847C34.919 26.4523 34.699 26.5365 34.479 26.5365Z" fill="white"/>
<path d="M29.6184 31.3984C29.3984 31.3984 29.1784 31.3141 29.0108 31.1466C28.6748 30.8114 28.6748 30.2674 29.0108 29.9314L30.2259 28.7154C30.562 28.3794 31.1051 28.3794 31.4411 28.7154C31.7771 29.0505 31.7771 29.5945 31.4411 29.9305L30.2259 31.1466C30.0584 31.3141 29.8384 31.3984 29.6184 31.3984Z" fill="white"/>
<path d="M32.6562 43.8281C32.181 43.8281 31.7969 43.4431 31.7969 42.9688V40.3906C31.7969 39.9163 32.181 39.5312 32.6562 39.5312C33.1315 39.5312 33.5156 39.9163 33.5156 40.3906V42.9688C33.5156 43.4431 33.1315 43.8281 32.6562 43.8281Z" fill="white"/>
<path d="M43.5944 39.2974C43.3744 39.2974 43.1544 39.2132 42.9868 39.0456L41.1641 37.2221C40.828 36.886 40.828 36.3421 41.1641 36.0069C41.5001 35.6709 42.0432 35.6709 42.3792 36.0069L44.202 37.8305C44.538 38.1665 44.538 38.7105 44.202 39.0456C44.0335 39.2132 43.8135 39.2974 43.5944 39.2974Z" fill="white"/>
<path d="M41.7708 19.2447C41.5508 19.2447 41.3308 19.1605 41.1632 18.9929C40.8272 18.6578 40.8272 18.1138 41.1632 17.7778L42.9859 15.9542C43.322 15.6181 43.8651 15.6181 44.2011 15.9542C44.5371 16.2893 44.5371 16.8333 44.2011 17.1693L42.3784 18.9929C42.2108 19.1605 41.9908 19.2447 41.7708 19.2447Z" fill="white"/>
<path d="M32.6562 15.4688C32.181 15.4688 31.7969 15.0838 31.7969 14.6094V12.0312C31.7969 11.5569 32.181 11.1719 32.6562 11.1719C33.1315 11.1719 33.5156 11.5569 33.5156 12.0312V14.6094C33.5156 15.0838 33.1315 15.4688 32.6562 15.4688Z" fill="white"/>
<path d="M48.125 28.3594H45.5469C45.0716 28.3594 44.6875 27.9744 44.6875 27.5C44.6875 27.0256 45.0716 26.6406 45.5469 26.6406H48.125C48.6002 26.6406 48.9844 27.0256 48.9844 27.5C48.9844 27.9744 48.6002 28.3594 48.125 28.3594Z" fill="white"/>
<path d="M26.4593 18.0469H17.1875C16.7123 18.0469 16.3281 17.6619 16.3281 17.1875C16.3281 16.7131 16.7123 16.3281 17.1875 16.3281H26.4593C26.9345 16.3281 27.3187 16.7131 27.3187 17.1875C27.3187 17.6619 26.9345 18.0469 26.4593 18.0469Z" fill="white"/>
<path d="M26.4593 38.6719H17.1875C16.7123 38.6719 16.3281 38.2869 16.3281 37.8125C16.3281 37.3381 16.7123 36.9531 17.1875 36.9531H26.4593C26.9345 36.9531 27.3187 37.3381 27.3187 37.8125C27.3187 38.2869 26.9345 38.6719 26.4593 38.6719Z" fill="white"/>
<path d="M32.603 43.812C30.0841 43.812 27.5395 43.2319 25.1762 42.0142C24.7543 41.7968 24.5884 41.2785 24.8059 40.8566C25.0233 40.4346 25.5423 40.2688 25.9634 40.4862C32.7044 43.9598 41.1013 41.6326 45.0802 35.1882C49.0703 28.7248 47.4005 20.1663 41.2792 15.7035C36.8457 12.4723 30.8335 12.0048 25.9634 14.5133C25.5423 14.7307 25.0233 14.5657 24.8059 14.1429C24.5884 13.721 24.7534 13.2028 25.1762 12.9853C30.6187 10.1803 37.3355 10.702 42.2916 14.3139C49.1339 19.3018 51.0013 28.8675 46.542 36.0905C43.4904 41.0353 38.1116 43.812 32.603 43.812Z" fill="white"/>
</svg>
