<svg width="14" height="14" viewBox="0 0 14 14" fill="none" xmlns="http://www.w3.org/2000/svg">
<g clip-path="url(#clip0_1_58)">
<path d="M13.9699 10.8474C13.9303 10.7281 13.6784 10.5524 13.2143 10.3206C13.0885 10.2475 12.9094 10.1482 12.6776 10.0222C12.4456 9.89627 12.235 9.7802 12.0462 9.67412C11.857 9.56807 11.6798 9.46533 11.5142 9.36605C11.4877 9.34616 11.4049 9.28825 11.2657 9.19192C11.1263 9.09587 11.0088 9.02458 10.9125 8.97808C10.8165 8.93187 10.7219 8.90861 10.6291 8.90861C10.4966 8.90861 10.331 9.00312 10.1322 9.19192C9.93344 9.38095 9.75109 9.58629 9.58546 9.80855C9.41979 10.0307 9.24409 10.236 9.05868 10.425C8.87299 10.614 8.72042 10.7084 8.60124 10.7084C8.54141 10.7084 8.46681 10.6917 8.37741 10.6588C8.28805 10.6257 8.22007 10.5973 8.1734 10.5744C8.12715 10.551 8.04779 10.5048 7.93502 10.435C7.82204 10.3653 7.75922 10.3272 7.74598 10.3206C6.83789 9.81666 6.05908 9.23994 5.4094 8.59054C4.75993 7.94076 4.18314 7.16201 3.67938 6.25382C3.67276 6.24055 3.63456 6.17755 3.56501 6.06492C3.49536 5.95219 3.44894 5.87275 3.42574 5.82622C3.40255 5.77987 3.37437 5.71189 3.34129 5.62242C3.3082 5.53295 3.29159 5.45843 3.29159 5.3987C3.29159 5.27945 3.38608 5.12692 3.57501 4.94129C3.7639 4.75577 3.96945 4.58004 4.19143 4.41444C4.41358 4.24885 4.61892 4.0665 4.80788 3.86771C4.99678 3.66882 5.09123 3.50319 5.09123 3.37064C5.09123 3.2779 5.06803 3.18334 5.02168 3.08726C4.97529 2.99097 4.90404 2.87346 4.80788 2.73419C4.71169 2.59499 4.65371 2.51221 4.63379 2.48557C4.53446 2.31997 4.43183 2.14267 4.32565 1.95374C4.21946 1.76484 4.10356 1.55429 3.97756 1.32231C3.85166 1.09044 3.75231 0.911398 3.67931 0.785467C3.44744 0.321549 3.27181 0.0695476 3.15246 0.0299156C3.10604 0.0100299 3.03639 0 2.94368 0C2.7646 0 2.53099 0.0330847 2.24267 0.0994632C1.95424 0.165737 1.72728 0.23525 1.56154 0.30828C1.2301 0.44741 0.878809 0.851741 0.507563 1.52113C0.169507 2.1441 0.000495911 2.7607 0.000495911 3.37046C0.000495911 3.5493 0.012093 3.72329 0.0352871 3.89247C0.0584813 4.06148 0.0999243 4.25209 0.159651 4.46425C0.219273 4.67634 0.267368 4.83389 0.303726 4.93649C0.34012 5.03915 0.408065 5.22307 0.507528 5.48831C0.606852 5.75347 0.666579 5.9158 0.686465 5.97545C0.918441 6.6251 1.19353 7.20506 1.51167 7.7155C2.0351 8.56393 2.74942 9.44075 3.6542 10.3456C4.55902 11.2504 5.43566 11.9647 6.28416 12.4883C6.79454 12.8064 7.3747 13.0815 8.02424 13.3136C8.08393 13.3334 8.24626 13.393 8.51132 13.4927C8.77649 13.592 8.96047 13.66 9.06314 13.6965C9.16584 13.733 9.32343 13.7811 9.53535 13.8408C9.74771 13.9005 9.93814 13.942 10.1072 13.9653C10.2763 13.9882 10.4503 14 10.6292 14C11.2389 14 11.8555 13.8309 12.4786 13.4929C13.1479 13.1218 13.5521 12.7704 13.6913 12.4387C13.7646 12.2732 13.8339 12.0462 13.9002 11.7577C13.9666 11.4694 13.9997 11.2359 13.9997 11.0568C13.9999 10.9637 13.9899 10.8942 13.9699 10.8474Z" fill="#8C755E"/>
</g>
<defs>
<clipPath id="clip0_1_58">
<rect width="14" height="14" fill="white"/>
</clipPath>
</defs>
</svg>
