<svg width="43" height="43" viewBox="0 0 43 43" fill="none" xmlns="http://www.w3.org/2000/svg">
<g clip-path="url(#clip0_3_1900)">
<path d="M32.5101 32.8506H28.0716C27.3581 32.8506 26.7776 33.4311 26.7776 34.1447V35.8923C26.7776 36.6059 27.3581 37.1864 28.0716 37.1864H32.5101C33.2237 37.1864 33.8042 36.6059 33.8042 35.8923V34.1447C33.8042 33.4311 33.2237 32.8506 32.5101 32.8506ZM32.5444 35.8923C32.5444 35.9113 32.529 35.9267 32.5101 35.9267H28.0716C28.0527 35.9267 28.0373 35.9112 28.0373 35.8923V34.1447C28.0373 34.1257 28.0528 34.1104 28.0716 34.1104H32.5101C32.5291 34.1104 32.5444 34.1258 32.5444 34.1447V35.8923Z" fill="white"/>
<path d="M35.1163 26.7195C33.0911 25.8179 29.3479 25.2163 27.151 24.9313C26.8376 24.8905 26.5876 24.6249 26.5876 24.2908V20.9995C28.3546 19.6503 29.4189 17.7183 29.6295 15.5726H29.9304C31.0301 15.5726 31.9247 14.678 31.9247 13.5783V12.0664C31.9247 11.2828 31.4704 10.6033 30.8113 10.2775L30.8103 7.7117C30.8102 7.36383 30.5282 7.08207 30.1804 7.08207H30.1802C29.8322 7.08223 29.5504 7.36434 29.5506 7.7122L29.5516 10.0722H28.6219C28.3789 9.9078 28.2325 9.6357 28.2325 9.33587V7.97532C28.2325 6.76721 27.2095 5.84699 26.1174 5.88302L26.0917 5.88285C25.4304 5.8784 24.9099 5.96936 24.3355 6.16748C22.4482 6.81424 20.5644 6.77737 18.8318 6.17403C18.0791 5.91292 17.6223 5.8826 16.8601 5.8826C15.7062 5.8826 14.7674 6.82138 14.7674 7.97532V9.33596C14.7674 9.63561 14.621 9.9078 14.378 10.0722H13.4481V5.03755C13.4481 3.8952 14.4579 2.94617 15.687 3.1374C16.6189 3.28303 17.4419 2.67801 17.5299 1.74175C17.734 1.44184 18.0732 1.26002 18.4418 1.26002L26.0735 1.25977C27.9897 1.25968 29.5494 2.81868 29.5501 4.73504C29.5502 5.0829 29.8321 5.36467 30.1799 5.36467H30.1802C30.5281 5.3645 30.81 5.08248 30.8098 4.73454C30.8088 2.1238 28.6842 -8.39819e-05 26.0735 2.49065e-09L18.4419 0.000251956C17.5619 0.000251956 16.7605 0.484002 16.3506 1.26271C16.2142 1.52205 16.3458 1.68716 16.1796 1.82926C16.1095 1.88931 16.0035 1.91182 15.8812 1.89276C13.9238 1.58714 12.1884 3.08903 12.1884 5.03755V10.2776C11.5294 10.6034 11.0752 11.2829 11.0752 12.0664V13.5783C11.0752 14.678 11.9698 15.5726 13.0695 15.5726H13.3699C13.583 17.7774 14.6789 19.6988 16.4123 21.0078V24.2907C16.4123 24.6249 16.162 24.8905 15.8488 24.9312C13.6244 25.2197 9.92308 25.8115 7.8836 26.7195C5.41967 27.8165 3.82758 30.2682 3.82758 32.9653V34.6055C3.82758 34.9535 4.10951 35.2354 4.45746 35.2354C4.80541 35.2354 5.08734 34.9535 5.08734 34.6055V32.9653C5.08734 30.7652 6.38608 28.7652 8.39599 27.8703C9.71564 27.2827 11.857 26.829 13.7386 26.5157L15.2107 30.2984C15.6622 31.4587 17.0141 31.9664 18.1137 31.4114L18.8489 31.0405L19.6792 32.8114L18.2296 41.7402H10.4555V39.1326C10.4555 38.7847 10.1736 38.5027 9.82566 38.5027C9.47771 38.5027 9.19577 38.7847 9.19577 39.1326V41.7402H6.25187C5.60972 41.7402 5.08743 41.2179 5.08743 40.5758V37.5607C5.08743 37.2128 4.80549 36.9309 4.45754 36.9309C4.1096 36.9309 3.82766 37.2128 3.82766 37.5607V40.5758C3.82766 41.9125 4.91517 43 6.25187 43H36.748C38.0847 43 39.1722 41.9125 39.1722 40.5758V32.9655C39.1723 30.2683 37.5802 27.8166 35.1163 26.7195ZM29.6682 11.332C29.6767 11.332 29.9782 11.3335 29.9697 11.3331C30.3566 11.3536 30.665 11.6747 30.665 12.0665V13.5785C30.665 13.9835 30.3355 14.313 29.9305 14.313H29.6668L29.6682 11.332ZM13.0695 14.313C12.6645 14.313 12.3349 13.9834 12.3349 13.5784V12.0665C12.3349 11.6745 12.6436 11.3533 13.0305 11.333C13.0685 11.331 13.0883 11.3325 13.3317 11.332L13.3331 14.313H13.0695ZM26.989 26.1805C27.2905 26.2197 27.6266 26.2655 27.9864 26.3179L26.6151 29.8416C26.4359 30.3016 25.8993 30.5119 25.4536 30.2869L22.6726 28.8833L26.3848 25.9972C26.5695 26.0892 26.7726 26.1525 26.989 26.1805ZM25.5028 25.0873L21.5 28.1994L17.4972 25.0873C17.61 24.8428 17.6721 24.5722 17.6721 24.2909V21.7926C18.8895 22.41 20.1658 22.7152 21.493 22.7299H21.507C22.8563 22.7149 24.1626 22.3902 25.3278 21.7936V24.2909C25.3278 24.5723 25.39 24.8429 25.5028 25.0873ZM23.0257 30.4727L22.2673 32.0905H20.7328L19.9743 30.4727L21.5 29.7027L23.0257 30.4727ZM14.5933 14.9357L14.5915 11.3302C15.0654 11.2945 16.0272 10.5248 16.0272 9.33596V7.97532C16.0272 7.52038 16.3938 7.14942 16.8472 7.14245C17.0816 7.15186 17.6134 7.09214 18.3164 7.33074C20.4265 8.04621 22.5204 8.12179 24.7445 7.35896C25.1602 7.21636 25.534 7.13985 26.0809 7.14253C26.6646 7.1485 26.9727 7.55683 26.9727 7.97532V9.33587C26.9727 10.5129 27.9266 11.2938 28.4085 11.3302L28.4067 14.9357C28.3216 18.7368 25.1399 21.4263 21.5 21.4701C17.8828 21.4267 14.6791 18.7745 14.5933 14.9357ZM17.5464 30.2869C17.1058 30.5094 16.5661 30.307 16.3849 29.8417L15.0134 26.3177C15.3722 26.2656 15.7083 26.2199 16.0109 26.1805C16.2274 26.1525 16.4304 26.0892 16.6151 25.9973L20.3273 28.8834L17.5464 30.2869ZM19.5059 41.7402L20.8683 33.3503H22.1316L23.494 41.7402H19.5059ZM37.9126 40.5758C37.9126 41.2179 37.3902 41.7402 36.7481 41.7402H33.8042V39.1326C33.8042 38.7847 33.5223 38.5027 33.1743 38.5027C32.8264 38.5027 32.5444 38.7847 32.5444 39.1326V41.7402H24.7703L23.3205 32.8115L24.1509 31.0405L24.886 31.4115C25.9882 31.9678 27.3384 31.4567 27.789 30.2985L29.2607 26.517C31.146 26.8322 33.2987 27.2892 34.6038 27.8704C36.6138 28.7653 37.9125 30.7652 37.9125 32.9654V40.5758H37.9126Z" fill="white"/>
</g>
<defs>
<clipPath id="clip0_3_1900">
<rect width="43" height="43" fill="white"/>
</clipPath>
</defs>
</svg>
